<svg aria-hidden="true" focusable="false" role="img" xmlns="http://www.w3.org/2000/svg" viewBox="0 0 512 512">
<style type="text/css">
	.st0{fill:#EBE6E2;}
	.st1{fill:#D8826C;}
	.st2{fill:#FFFFFF;}
	.st3{fill:#F5F0EB;}
	.st4{fill:#F5AE94;}
	.st5{fill:#DD876C;}
	.st6{fill:#0D0D0C;}
	.st7{fill:#5C8696;}
	.st8{fill:#242422;}
	.st9{fill:#F0A98F;}
	.st10{opacity:0.4;fill:#EAECED;}
	.st11{fill:#5C311E;}
	.st12{fill:#D5503B;}
	.st13{fill:#22272E;}
	.st14{fill:#617085;}
	.st15{fill:#515D6E;stroke:#515D6E;stroke-miterlimit:10;}
	.st16{fill:#515D6E;}
	.st17{fill:#8C4C09;}
	.st18{fill:#C28C4B;}
</style>
<g>
	<g>
		<path class="st0" d="M204.8,133.2c0,0,52.6-9.9,102.7-1.3c0,0-11.2,95.4-15.1,115.8c0,0-39.5,9.9-73.7-0.7
			C218.7,247,204.2,151.6,204.8,133.2z"/>
		<path class="st1" d="M269.3,127.1c0,8.8-5.3,15.9-14.1,15.9l0,0c-8.7,0-14.1-7.1-14.1-15.9V107c0-8.8,5.3-15.9,14.1-15.9l0,0
			c8.7,0,14.1,7.1,14.1,15.9V127.1z"/>
		<g>
			<path class="st2" d="M257.3,155.6c0,1.2-1,2.3-2.3,2.3c-1.3,0-2.3-1-2.3-2.3c0-1.3,1-2.3,2.3-2.3
				C256.3,153.3,257.3,154.3,257.3,155.6z"/>
			<path class="st2" d="M257.3,179.1c0,1.3-1,2.3-2.3,2.3c-1.3,0-2.3-1-2.3-2.3c0-1.2,1-2.3,2.3-2.3
				C256.3,176.9,257.3,177.9,257.3,179.1z"/>
			<path class="st2" d="M257.1,226.3c0,1.3-1,2.3-2.3,2.3c-1.3,0-2.3-1-2.3-2.3c0-1.3,1-2.3,2.3-2.3
				C256.1,224.1,257.1,225.1,257.1,226.3z"/>
			<path class="st2" d="M257.3,202.6c0,1.3-1,2.3-2.3,2.3c-1.3,0-2.3-1-2.3-2.3c0-1.3,1-2.3,2.3-2.3
				C256.3,200.4,257.3,201.4,257.3,202.6z"/>
		</g>
		<g>
			<path class="st3" d="M239.1,117.4l-12.5,13.2l10.5,27.6l17.8-15.1C254.9,143.1,241,128.6,239.1,117.4z"/>
			<path class="st3" d="M270.7,117.4l12.5,13.2l-10.5,27.6l-17.8-15.1C254.9,143.1,268.7,128.6,270.7,117.4z"/>
		</g>
	</g>
	<g>
		<g>
			<path class="st4" d="M292.9,88.2c0.1,12.5-13.3,22.7-22.1,27.4c-8.9,4.8-16.6,3.2-16.6,3.2c-35.2-8-32.8-24.8-34.7-38.7
				c-1-6.8-1.9-19.6,1.1-35.4c0.4-2.1,1.1-4.1,1.9-5.9c5.5-11.4,18.4-15.8,18.4-15.8c7.7-2.7,16.5-3.3,24.5-1.8
				c11.6,2.1,20.6,8.1,23.6,19.9c0.9,3.8,1.5,7.7,1.9,11.6c1,8,1.5,16.1,1.8,24.2C292.8,80.7,292.9,84.4,292.9,88.2z"/>
		</g>
		<path class="st5" d="M255.9,53.2c0,0-2.7-2.4-2.6,6.8c0.1,9.2,1.3,18.8,1.3,18.8s-6.3-3.1-4,1.8c1.3,2.7,4,3.9,6.7,4.4
			c2.4,0.5,4.1-0.4,5.6-2.1c0.7-0.7,4.2-4.8,2.9-5.9c-0.6-0.5-3.8,1.1-4.6,1.3C261.2,78.3,260.3,50.8,255.9,53.2z"/>
		<path class="st6" d="M266.5,46.7c0,0,16-3.2,21,8.5c0,0-17.8-5.4-21.2-2.7L266.5,46.7z"/>
		<path class="st6" d="M247.2,48c0,0-15.7-4.2-21.5,7.2c0,0,18.1-4.2,21.4-1.4L247.2,48z"/>
		<g>
			<path class="st2" d="M281.9,73.1c-1.5,1.4-3.5,2.3-5.7,2.4c-1,0.1-2,0-2.9-0.3c-3.7-0.9-6.6-4.1-6.9-8c-0.3-4.9,3.5-9.2,8.6-9.5
				c5.1-0.3,9.4,3.3,9.8,8.2C284.9,68.8,283.8,71.4,281.9,73.1z"/>
			<g>
				<path class="st7" d="M282.7,70c-0.1,1.1-0.4,2.2-0.8,3.2c-1.5,1.4-3.5,2.3-5.7,2.4c-1,0.1-2,0-2.9-0.3c-1.4-1.4-2.2-3.7-2-6.2
					c0.3-4.1,3.1-7.2,6.3-6.9c1.1,0.1,2.1,0.6,2.9,1.3c0.5,0.4,0.9,1,1.2,1.6C282.5,66.4,282.8,68.1,282.7,70z"/>
				<path class="st6" d="M281,69.8c-0.2,2.9-2.2,5.1-4.5,4.9c-2.3-0.2-3.9-2.7-3.7-5.6c0.2-2.9,2.2-5.1,4.5-4.9
					C279.6,64.5,281.3,66.9,281,69.8z"/>
				<path class="st2" d="M281.7,64.9c-0.1,0.8-1.1,1.4-2.2,1.3c-1.2-0.1-2-0.8-2-1.6c0.1-0.8,1-1.3,2.2-1.3
					C280.9,63.4,281.7,64.1,281.7,64.9z"/>
			</g>
		</g>
		<g>
			<path class="st2" d="M245.5,73.1c-1.5,1.4-3.5,2.3-5.7,2.4c-1,0.1-2,0-2.9-0.3c-3.7-0.9-6.6-4.1-6.9-8c-0.3-4.9,3.5-9.2,8.6-9.5
				c5.1-0.3,9.4,3.3,9.8,8.2C248.5,68.8,247.4,71.4,245.5,73.1z"/>
			<g>
				<path class="st7" d="M246.3,70c-0.1,1.1-0.4,2.2-0.8,3.2c-1.5,1.4-3.5,2.3-5.7,2.4c-1,0.1-2,0-2.9-0.3c-1.4-1.4-2.2-3.7-2-6.2
					c0.3-4.1,3.1-7.2,6.3-6.9c1.1,0.1,2.1,0.6,2.9,1.3c0.5,0.4,0.9,1,1.2,1.6C246.1,66.4,246.5,68.1,246.3,70z"/>
				<path class="st6" d="M244.7,69.8c-0.2,2.9-2.2,5.1-4.5,4.9c-2.2-0.2-3.9-2.7-3.7-5.6c0.2-2.9,2.2-5.1,4.5-4.9
					C243.2,64.5,244.9,66.9,244.7,69.8z"/>
				<path class="st2" d="M245.3,64.9c-0.1,0.8-1,1.4-2.2,1.3c-1.2-0.1-2-0.8-2-1.6c0.1-0.8,1.1-1.3,2.2-1.3
					C244.5,63.4,245.4,64.1,245.3,64.9z"/>
			</g>
		</g>
		<path class="st8" d="M304.5,17.6c-2.1,2.9-5.5,5.7-9.1,6.5c3-3.2,5.9-7.5,5.4-11.9c0-0.2-0.3-0.4-0.5-0.3
			c-0.6,0.3-1.1,0.8-1.6,1.3c-2.7,2.5-7.2,2.4-10.5,1.2c-5.8-2.1-10.5-6.1-15.7-9.2c-5.7-3.4-12-5.4-18.7-5.1
			c-3.6,0.2-7.1,0.9-10.5,2.1c-8.3,3-18.1,8.9-20.3,18.1c-0.3,1.3-0.4,2.6-0.4,3.9c0,0.8,0.7,3.3,0.4,3.9c-0.2,0.3,0.2,0.7,0.4,0.5
			c0.1,0,0.3-0.1,0.3-0.2c0.1-0.2,0.1-0.2,0.1-0.3c3.9-3.2,10.4,9.2,12.8,11.2c9.1,7.6,22.1,8.7,32.9,5.7
			c12.1-3.3,25.5-11.7,32.5-21.8c1.2-1.7,2.3-3.3,3.1-5.2C305.2,17.5,304.7,17.3,304.5,17.6z"/>
		<g>
			<g>
				<path class="st9" d="M291.5,62c0,0,7.7-17.4,14.1-3.7c5.1,10.9-3.4,21.6-10.2,20.9C288.5,78.4,291.5,62,291.5,62z"/>
				<path class="st1" d="M291.9,64.7c0,0,5.7-11.2,8.7-7.2c3,4,2.9,9.5,2.9,9.5s-2.1-5.8-6.3-2c0,0,5.5,9.1-3.7,7.2
					C293.6,72.3,289.5,69.7,291.9,64.7z"/>
			</g>
		</g>
		<path class="st8" d="M231.9,25.2c0,0,0.9,14.3-5,21.2c-5.9,6.9-6.5,21-6.5,21s-21.7-27.7,3-43.8C223.4,23.5,228.3,21.6,231.9,25.2
			z"/>
		<path class="st8" d="M279.6,30.8c0,0,10,13.4,12.2,32.6c0,0,14.1-21.1,0.7-38.8C292.5,24.5,277.7,18.3,279.6,30.8z"/>
		<g>
			<g>
				<path class="st9" d="M220.9,64.6c0,0-7.7-17.4-14.1-3.7c-5.1,10.9,3.4,21.6,10.2,20.9C223.8,81.1,220.9,64.6,220.9,64.6z"/>
				<path class="st1" d="M220.4,67.3c0,0-5.7-11.2-8.7-7.2c-3,4-2.9,9.5-2.9,9.5s2.1-5.8,6.3-2c0,0-5.5,9.1,3.7,7.2
					C218.8,74.9,222.8,72.4,220.4,67.3z"/>
			</g>
		</g>
		<g>
			<g>
				<path class="st10" d="M243.3,60.2c-3.2-0.5-6.4-0.6-9.4-0.5c-1.9,3.2-3.7,6.5-5.1,10c-1,2.5-2,5.2-2.5,7.9
					c3,2.7,6.9,3.6,10.8,3.6C238.5,74,239.5,66.1,243.3,60.2z"/>
				<path class="st10" d="M283.5,59.4c-3.3-0.2-6.5,0-9.4,0.4c-1.6,3.4-3.1,6.9-4.2,10.4c-0.8,2.6-1.5,5.3-1.8,8.1
					c3.2,2.4,7.2,2.9,11.1,2.5C280,73.7,280.3,65.7,283.5,59.4z"/>
			</g>
			<path class="st11" d="M291.4,71.8c3.1-9.2,2.2-13.1,2.1-13.6l-0.2-0.7l-0.7-0.3c-0.6-0.2-14-5.4-28.4,1.1c-1.6,0.7-3,1.5-4.4,2.5
				l0-0.3l-5.3,0.2l-0.1-0.2l-0.7-0.4c-1.5-0.9-3.2-1.6-4.8-2.2c-14.8-5.6-28,0.5-28.5,0.8l-0.7,0.3l-0.2,0.8
				c-0.1,0.4-0.7,4.4,3,13.4c1.3,3.2,3.9,5.6,7.5,7c4.4,1.7,8.9,1.3,9.1,1.2c10.5-1.1,12.3-6.2,13.5-9.5c0.1-0.2,0.1-0.4,0.2-0.5
				c0.9-2.3,1.3-4.3,1.5-6c1-0.4,2.6-0.6,4.7,0.1c0.3,1.7,0.9,4,2,6.5c0.1,0.2,0.2,0.3,0.2,0.5c1.4,3.3,3.6,8.2,14.1,8.6
				c0.2,0,4.7,0.1,9-1.8C287.9,77.6,290.2,75.1,291.4,71.8z M238.7,78.1c0,0-4,0.3-7.7-1.1c-2.8-1-4.7-2.8-5.7-5.2
				c-2.5-6-2.8-9.4-2.8-10.8c3-1.2,13.7-4.7,25.3-0.3c1.2,0.5,2.5,1,3.6,1.6c0,1.3-0.2,4.1-1.5,7.7c-0.1,0.2-0.1,0.4-0.2,0.6
				C248.5,73.7,247.2,77.2,238.7,78.1z M283.1,76.3c-3.6,1.6-7.6,1.5-7.6,1.5c-8.6-0.4-10.1-3.8-11.4-6.8c-0.1-0.2-0.2-0.4-0.3-0.6
				c-1.6-3.5-1.9-6.3-2-7.6c1.1-0.7,2.3-1.3,3.5-1.9c11.3-5.1,22.2-2.3,25.2-1.3c0.1,1.4-0.1,4.9-2.1,11
				C287.6,73.2,285.8,75.1,283.1,76.3z"/>
		</g>
		<path class="st12" d="M246.9,91.4c0,0,16.1,22.2,25.2-2.3C272.1,89,265.2,103.1,246.9,91.4z"/>
	</g>
	<g>
		<g>
			<g>
				<g>
					<g>
						<path class="st13" d="M303.4,503.6l-34.9-4c1.7-2.7,2.5-8.9,2.9-14.8c0.6-8.2,0.4-16.8,0.4-16.8s23-5.6,23,0
							c0,2.8,1.3,10.7,2.9,16.8C300.2,494.3,303.4,503.6,303.4,503.6z"/>
						<path class="st13" d="M304,506.1c0,0.2,0-0.5,0-0.3c-0.1,1.9-0.6,1.7-1.4,4.6H266c-0.9-2.8-1.3-2.7-1.4-4.6c0-0.2,0,0.1,0-0.1
							c0-8.7,8.8-15.6,19.7-15.6C295.2,490.1,304,497.4,304,506.1z"/>
					</g>
					<path class="st14" d="M271.4,487.8c0.6-11.3,0.4-19.7,0.4-19.7s23-5.6,23,0c0,2.8,1.3,8.4,2.9,19.7H271.4z"/>
				</g>
				<path class="st15" d="M304,503.3c-0.1,0-0.6,2.8-1.4,5.6H266c-0.9-2.8-1.3-5.6-1.4-5.6H304z"/>
			</g>
			<path class="st16" d="M290.9,493c-2.7-3.8-9.2-2.5-12.3,0.1c-0.5,0.4,0,1,0.5,0.9c1.9-0.3,3.4-1.3,5.4-1.4
				c2.1-0.1,3.8,1.2,5.8,1.3C290.8,493.9,291.2,493.3,290.9,493z"/>
			<path class="st16" d="M289.8,496.9c-3-2.1-9-2.8-11.7,0.3c-0.4,0.4,0,1.1,0.6,1c1.8-0.5,3.9-0.7,5.7-0.7c1.9,0,3.4,1.3,5.2,0.9
				C290.3,498.1,290.3,497.2,289.8,496.9z"/>
		</g>
		<g>
			<g>
				<g>
					<path class="st13" d="M244.3,505.7c-0.2,2.1-0.6,3.8-1,5c0,0-55.6,2.4-59.5,0.6c-0.6-0.3-0.4-0.9,0.3-1.6
						c0.2-0.6,0.4-1.3,0.7-2.1c1.9-4.7,7.3-12.1,22.3-11.2c2.6-1.3,4.8-2.4,6.1-3.1c1.9-1,3.3-3.6,4.3-6.8
						c2.2-6.9,2.6-16.7,2.2-18.7l23.6,0.3c0,0,0.8,8.7,1.2,18.4C244.8,493.3,244.9,500.6,244.3,505.7z"/>
					<path class="st14" d="M217.5,487.8c2.2-11.3,2.6-17.3,2.2-19.3l23.6,0.6c0,0,0.8,7.5,1.2,18.7H217.5z"/>
				</g>
				<path class="st15" d="M244.3,505.7c-0.2,2.1-0.6,3.8-1,5c0,0-55.6,2.4-59.5,0.6c-0.6-0.3-0.4-0.9,0.3-1.6
					c0.2-0.6,0.4-1.3,0.7-2.1C194.5,507.7,229.4,507.7,244.3,505.7z"/>
			</g>
			<path class="st16" d="M212.9,497.7c-0.9-2.7-5.2-3.7-7.6-2.1c-0.2,0.2-0.3,0.5,0,0.6c1,0.6,2.3,0.3,3.4,0.5
				c1.2,0.2,1.7,1.2,2.6,1.8C212,499.1,213.2,498.6,212.9,497.7z"/>
			<path class="st16" d="M221.1,494.3c-0.7-1.8-2.9-3.2-5-3.4c-1.5-0.1-4.7,0.4-4.3,2.3c0,0.2,0.2,0.3,0.4,0.3
				c1,0.1,1.8-0.5,2.8-0.5c1.1,0,2.3,0.7,3,1.4c0.7,0.7,1,1.4,2.1,1.6C220.9,496,221.2,494.8,221.1,494.3z"/>
		</g>
		<g>
			<path class="st13" d="M215.8,482.6h30.5l8.7-187.1c1,0.1,2,0.2,3,0.2L269,481.3h30.4c0.2-23.4,1.4-200.2-6.6-240.9l-73.7-0.7
				C219.8,241.7,215.4,409.4,215.8,482.6z"/>
			<path class="st17" d="M285,251.1l8.5-0.1l-0.7-10.5l-8.5-0.1C284.6,243.9,284.9,247.5,285,251.1z"/>
			<path class="st17" d="M276.7,240.3l-37.6-0.3c0.1,4,0.3,8,0.4,12l37.9-0.7C276.6,247.8,276.6,244,276.7,240.3z"/>
			<path class="st17" d="M230,239.8l-10.8-0.1v12.5L231,252C230,248.4,229.8,243.9,230,239.8z"/>
			<rect x="248.4" y="237.4" class="st18" width="14.1" height="16.9"/>
		</g>
	</g>
	<g>
		<g>
			<g>
				<path class="st1" d="M182,166.3c6-6.5-36.6,39.7-36.6,49.3c0,9.1,58.9,46.7,58.9,46.7l5.1-12.2c0,0-31.5-34.6-40.7-39.6
					c0,0,22.4-21.3,26.4-27.4C199.3,176.9,182,166.3,182,166.3z"/>
				<path class="st9" d="M226.6,248.6c3.4-0.3,6.8-0.3,10.2-0.6c0.5-0.1,0.9-0.4,0.9-0.9c0.1-4.1-4.2-6.5-7.9-6.8
					c-2.1-0.2-4.1,0-6.1,0.5c2-1.7,3.9-3.5,5.5-5.5c0.3-0.4,0.4-1.1-0.2-1.4c-3.7-1.6-6.7,0.3-9.5,2.7c-2.1,1.8-3.9,4-5.8,6
					c-2,2-4.2,3.2-6.7,4.1c-0.1,0-0.3-0.1-0.4,0c-6.7,1.3-7.8,7.8-4.8,13.2c1.7,3.1,4.6,4.6,8,5c2.3,0.3,4.9-0.5,7.1-1
					c5.2-1,9.6,1.7,13.4,4.8c0.6,0.5,1.4,0.2,1.5-0.6c0.7-6.5-4-10.8-9.4-13.4c5.4-0.8,9.5,3.1,15,3.7c0.5,0.1,0.9-0.4,0.9-0.9
					C238.3,251.7,231.8,250.1,226.6,248.6z"/>
			</g>
			<path class="st0" d="M212.5,164.9c-5.3,10.1-40.4,45.6-40.4,45.6c5.7,4,22.4,20.3,30.6,28.3c2.8,2.7,4.5,4.5,4.5,4.5L198,260
				c-2-1-3.9-2-5.7-3c-36.8-19.9-49.9-42-49.9-42c8.5-34.6,62.5-81.8,62.5-81.8C213.2,139.1,212.5,164.9,212.5,164.9z"/>
		</g>
		<g>
			<g>
				<path class="st1" d="M330,165.1c-5.9-6.5,36.6,39.7,36.6,49.3c0,9.1-59,46.7-59,46.7l-5.1-12.2c0,0,31.5-34.6,40.7-39.6
					c0,0-22.4-21.3-26.4-27.4C312.7,175.8,330,165.1,330,165.1z"/>
				<path class="st9" d="M273.8,256.5c0,0.4,0.4,0.9,0.9,0.9c5.4-0.5,9.6-4.5,15-3.7c-5.4,2.5-10,6.9-9.4,13.4
					c0.1,0.8,0.9,1.1,1.5,0.6c3.8-3.1,8.3-5.9,13.4-4.8c2.2,0.4,4.8,1.2,7.1,1c3.4-0.4,6.3-1.9,8-5c3-5.4,1.9-11.9-4.8-13.2
					c-0.2,0-0.3,0-0.4,0c-2.5-0.9-4.7-2.1-6.7-4.1c-1.9-2-3.7-4.2-5.8-6c-2.8-2.5-5.8-4.4-9.5-2.7c-0.6,0.3-0.5,1-0.2,1.4
					c1.6,1.9,3.5,3.7,5.5,5.5c-2-0.4-4-0.7-6.1-0.5c-3.7,0.3-8,2.6-7.9,6.8c0,0.5,0.4,0.8,0.9,0.9c3.4,0.3,6.8,0.3,10.2,0.6
					C280.2,248.9,273.7,250.6,273.8,256.5z"/>
			</g>
			<path class="st0" d="M299.5,163.7c5.3,10.1,40.4,45.6,40.4,45.6c-5.7,4-22.4,20.3-30.6,28.3c-2.8,2.7-4.5,4.5-4.5,4.5l9.1,16.8
				c2-1,3.9-2,5.7-3c36.8-19.9,49.9-42,49.9-42c-8.5-34.6-62.5-81.8-62.5-81.8C298.8,137.9,299.5,163.7,299.5,163.7z"/>
		</g>
	</g>
</g>
</svg>
