<svg aria-hidden="true" focusable="false" role="img" xmlns="http://www.w3.org/2000/svg" viewBox="0 0 512 512">
<style type="text/css">
	.st0{fill-rule:evenodd;clip-rule:evenodd;fill:#614830;}
	.st1{fill-rule:evenodd;clip-rule:evenodd;fill:#76593C;}
	.st2{fill-rule:evenodd;clip-rule:evenodd;fill:#402020;}
	.st3{fill:#BAA466;stroke:#76593C;stroke-miterlimit:10;}
	.st4{fill:#EBE6E2;}
	.st5{fill:#D8826C;}
	.st6{fill:#FFFFFF;}
	.st7{fill:#F5F0EB;}
	.st8{fill:#F5AE94;}
	.st9{fill:#DD876C;}
	.st10{fill:#0D0D0C;}
	.st11{fill:#5C8696;}
	.st12{fill:#242422;}
	.st13{fill:#F0A98F;}
	.st14{opacity:0.4;fill:#EAECED;}
	.st15{fill:#5C311E;}
	.st16{fill:#D5503B;}
	.st17{fill:#22272E;}
	.st18{fill:#617085;}
	.st19{fill:#515D6E;stroke:#515D6E;stroke-miterlimit:10;}
	.st20{fill:#515D6E;}
	.st21{fill:#8C4C09;}
	.st22{fill:#C28C4B;}
</style>
<g>
	<g>
		<g>
			<rect x="171.4" y="37.2" class="st0" width="176.7" height="30.6"/>
			<rect x="144" y="0" class="st0" width="28" height="488"/>
			<rect x="171.4" y="29.2" class="st1" width="176.7" height="30.6"/>
			<rect x="153.9" y="0" class="st1" width="28" height="488"/>
			<path class="st2" d="M167.9,39.8c2.6,0,4.8,2.1,4.8,4.8c0,2.6-2.1,4.8-4.8,4.8c-2.6,0-4.8-2.1-4.8-4.8
				C163.1,42,165.2,39.8,167.9,39.8"/>
			
				<rect x="153" y="70.9" transform="matrix(0.7071 -0.7071 0.7071 0.7071 0.7495 174.1117)" class="st1" width="115" height="30.6"/>
			<path class="st2" d="M240.2,39.8c2.6,0,4.8,2.1,4.8,4.8c0,2.6-2.1,4.8-4.8,4.8s-4.8-2.1-4.8-4.8C235.4,42,237.6,39.8,240.2,39.8"
				/>
			<path class="st2" d="M167.9,117.3c2.6,0,4.8,2.1,4.8,4.8c0,2.6-2.1,4.8-4.8,4.8c-2.6,0-4.8-2.1-4.8-4.8
				C163.1,119.4,165.2,117.3,167.9,117.3"/>
		</g>
		<g>
			<path class="st3" d="M288.1,70.7c0-3,2.4-5.4,5.4-5.4c3,0,5.4,2.4,5.4,5.4v87.8c0,3-2.4,5.4-5.4,5.4c-3,0-5.4-2.4-5.4-5.4V70.7z"
				/>
			<g>
				<path class="st3" d="M298.4,119.5c3.1-1.5,6.7-0.2,8.2,2.9c1.5,3.1,0.2,6.7-2.9,8.2l-14.3,6.8c-3.1,1.5-6.7,0.2-8.2-2.9
					c-1.5-3.1-0.2-6.7,2.9-8.2L298.4,119.5z"/>
				<path class="st3" d="M297.9,130.1c2.7-1.3,5.9-0.1,7.2,2.5c1.3,2.7,0.1,5.9-2.5,7.2l-12.5,6c-2.7,1.3-5.9,0.1-7.2-2.5
					c-1.3-2.7-0.1-5.9,2.5-7.2L297.9,130.1z"/>
				<path class="st3" d="M297.9,141c2.7-1.3,5.9-0.1,7.2,2.5c1.3,2.7,0.1,5.9-2.5,7.2l-12.5,6c-2.7,1.3-5.9,0.1-7.2-2.5
					c-1.3-2.7-0.1-5.9,2.5-7.2L297.9,141z"/>
				<path class="st3" d="M297.9,150.7c2.7-1.3,5.9-0.1,7.2,2.5c1.3,2.7,0.1,5.9-2.5,7.2l-12.5,6c-2.7,1.3-5.9,0.1-7.2-2.5
					c-1.3-2.7-0.1-5.9,2.5-7.2L297.9,150.7z"/>
			</g>
			<g>
				<path class="st3" d="M277.6,27.3c0.4-3,3.1-5.1,6-4.7c3,0.4,5.1,3,4.7,6L283,71.3c-0.4,3-3,5.1-6,4.7c-2.9-0.4-5.1-3-4.7-6
					L277.6,27.3z"/>
				<path class="st3" d="M287.1,27.3c0.4-3,3-5.1,6-4.7c2.9,0.4,5.1,3,4.7,6l-5.3,42.7c-0.4,3-3.1,5.1-6,4.7c-2.9-0.4-5.1-3-4.7-6
					L287.1,27.3z"/>
				<path class="st3" d="M296.7,27.3c0.4-3,3-5.1,6-4.7c3,0.4,5.1,3,4.7,6l-5.3,42.7c-0.4,3-3,5.1-6,4.7c-2.9-0.4-5.1-3-4.7-6
					L296.7,27.3z"/>
				<path class="st3" d="M306.3,27.3c0.4-3,3-5.1,6-4.7c3,0.4,5.1,3,4.7,6l-5.3,42.7c-0.4,3-3.1,5.1-6,4.7c-3-0.4-5.1-3-4.7-6
					L306.3,27.3z"/>
			</g>
		</g>
	</g>
	<g>
		<g>
			<path class="st4" d="M258,239.7c0,0,36.8-6.9,71.7-0.9c0,0-7.8,66.6-10.6,80.9c0,0-27.6,6.9-51.5-0.5
				C267.6,319.2,257.5,252.5,258,239.7z"/>
			<path class="st5" d="M302.9,235.4c0,6.1-3.7,11.1-9.8,11.1l0,0c-6.1,0-9.8-5-9.8-11.1v-14.1c0-6.1,3.7-11.1,9.8-11.1l0,0
				c6.1,0,9.8,5,9.8,11.1V235.4z"/>
			<g>
				<path class="st6" d="M294.6,255.3c0,0.9-0.7,1.6-1.6,1.6c-0.9,0-1.6-0.7-1.6-1.6c0-0.9,0.7-1.6,1.6-1.6
					C293.9,253.7,294.6,254.4,294.6,255.3z"/>
				<path class="st6" d="M294.6,271.8c0,0.9-0.7,1.6-1.6,1.6c-0.9,0-1.6-0.7-1.6-1.6c0-0.9,0.7-1.6,1.6-1.6
					C293.9,270.2,294.6,270.9,294.6,271.8z"/>
				<path class="st6" d="M294.5,304.7c0,0.9-0.7,1.6-1.6,1.6c-0.9,0-1.6-0.7-1.6-1.6c0-0.9,0.7-1.6,1.6-1.6
					C293.8,303.1,294.5,303.8,294.5,304.7z"/>
				<path class="st6" d="M294.6,288.2c0,0.9-0.7,1.6-1.6,1.6c-0.9,0-1.6-0.7-1.6-1.6c0-0.9,0.7-1.6,1.6-1.6
					C293.9,286.6,294.6,287.3,294.6,288.2z"/>
			</g>
			<g>
				<path class="st7" d="M281.9,228.6l-8.7,9.2l7.3,19.3l12.4-10.6C292.9,246.6,283.2,236.5,281.9,228.6z"/>
				<path class="st7" d="M303.9,228.6l8.7,9.2l-7.3,19.3l-12.4-10.6C292.9,246.6,302.5,236.5,303.9,228.6z"/>
			</g>
			<path class="st3" d="M306.6,185.5c-3.9-5.6-8.8-9.7-13.9-9.7c-5.1,0-10,4-13.9,9.7c-4.9,7.1-8,16.5-8,24.2
				c0,6.8,2.5,12.9,6.5,17.3c3.9,4.3,9.4,7,15.3,7c6,0,11.4-2.7,15.3-7c4-4.4,6.5-10.5,6.5-17.3C314.5,202,311.5,192.6,306.6,185.5
				 M292.7,167c8.4,0,15.7,5.7,21.2,13.5c5.8,8.5,9.5,19.8,9.5,29.1c0,9-3.4,17.2-8.9,23.2c-5.6,6.1-13.3,9.8-21.8,9.8
				c-8.5,0-16.2-3.8-21.8-9.8c-5.5-6-8.9-14.2-8.9-23.2c0-9.3,3.7-20.6,9.5-29.1C276.9,172.6,284.3,167,292.7,167z"/>
		</g>
		<g>
			<g>
				<path class="st8" d="M318.7,209.8c0.1,8.7-9.3,15.8-15.5,19.1c-6.2,3.3-11.6,2.2-11.6,2.2c-24.6-5.6-22.9-17.3-24.3-27
					c-0.7-4.8-1.3-13.7,0.8-24.7c0.3-1.5,0.8-2.9,1.3-4.1c3.8-8,12.8-11,12.8-11c5.4-1.9,11.5-2.3,17.1-1.3
					c8.1,1.5,14.4,5.7,16.4,13.9c0.7,2.7,1,5.4,1.4,8.1c0.7,5.6,1.1,11.2,1.3,16.9C318.6,204.6,318.6,207.2,318.7,209.8z"/>
			</g>
			<path class="st9" d="M292.8,185.4c0,0-1.9-1.7-1.8,4.8c0.1,6.4,0.9,13.1,0.9,13.1s-4.4-2.2-2.8,1.3c0.9,1.9,2.8,2.7,4.7,3.1
				c1.7,0.3,2.9-0.3,3.9-1.4c0.5-0.5,2.9-3.4,2-4.1c-0.4-0.4-2.7,0.7-3.2,0.9C296.5,203,295.9,183.8,292.8,185.4z"/>
			<path class="st10" d="M300.2,180.9c0,0,11.1-2.2,14.7,6c0,0-12.5-3.7-14.8-1.9L300.2,180.9z"/>
			<path class="st10" d="M286.8,181.8c0,0-11-2.9-15,5c0,0,12.7-3,14.9-1L286.8,181.8z"/>
			<g>
				<path class="st6" d="M310.9,199.3c-1,1-2.4,1.6-4,1.7c-0.7,0.1-1.4,0-2-0.2c-2.6-0.6-4.6-2.8-4.8-5.6c-0.2-3.4,2.5-6.4,6-6.6
					c3.5-0.2,6.6,2.3,6.8,5.8C313.1,196.3,312.3,198.1,310.9,199.3z"/>
				<g>
					<path class="st11" d="M311.5,197.1c-0.1,0.8-0.3,1.5-0.6,2.2c-1,1-2.4,1.6-4,1.7c-0.7,0.1-1.4,0-2-0.2c-1-1-1.5-2.6-1.4-4.4
						c0.2-2.8,2.2-5,4.4-4.8c0.8,0.1,1.5,0.4,2,0.9c0.3,0.3,0.6,0.7,0.8,1.1C311.3,194.6,311.6,195.8,311.5,197.1z"/>
					<path class="st10" d="M310.4,197c-0.2,2-1.6,3.6-3.1,3.4c-1.6-0.1-2.7-1.9-2.6-3.9c0.2-2,1.6-3.5,3.1-3.4
						C309.4,193.3,310.5,195,310.4,197z"/>
					<path class="st6" d="M310.8,193.6c0,0.5-0.7,0.9-1.5,0.9c-0.8-0.1-1.4-0.6-1.4-1.1c0-0.5,0.7-0.9,1.5-0.9
						C310.2,192.6,310.9,193,310.8,193.6z"/>
				</g>
			</g>
			<g>
				<path class="st6" d="M285.5,199.3c-1,1-2.4,1.6-4,1.7c-0.7,0.1-1.4,0-2-0.2c-2.6-0.6-4.6-2.8-4.8-5.6c-0.2-3.4,2.4-6.4,6-6.6
					c3.5-0.2,6.6,2.3,6.8,5.8C287.7,196.3,286.9,198.1,285.5,199.3z"/>
				<g>
					<path class="st11" d="M286.1,197.1c-0.1,0.8-0.3,1.5-0.6,2.2c-1,1-2.4,1.6-4,1.7c-0.7,0.1-1.4,0-2-0.2c-1-1-1.5-2.6-1.4-4.4
						c0.2-2.8,2.2-5,4.4-4.8c0.8,0.1,1.5,0.4,2,0.9c0.3,0.3,0.6,0.7,0.8,1.1C285.9,194.6,286.2,195.8,286.1,197.1z"/>
					<path class="st10" d="M285,197c-0.2,2-1.6,3.6-3.1,3.4c-1.6-0.1-2.7-1.9-2.6-3.9c0.2-2,1.6-3.5,3.1-3.4
						C284,193.3,285.1,195,285,197z"/>
					<path class="st6" d="M285.4,193.6c0,0.5-0.7,0.9-1.5,0.9c-0.8-0.1-1.4-0.6-1.4-1.1c0-0.5,0.7-0.9,1.5-0.9
						C284.8,192.6,285.5,193,285.4,193.6z"/>
				</g>
			</g>
			<path class="st12" d="M326.7,160.5c-1.4,2-3.9,4-6.4,4.5c2.1-2.2,4.1-5.2,3.8-8.3c0-0.1-0.2-0.3-0.3-0.2
				c-0.4,0.2-0.8,0.6-1.1,0.9c-1.9,1.7-5,1.7-7.3,0.9c-4-1.4-7.3-4.3-11-6.5c-3.9-2.4-8.4-3.8-13-3.6c-2.5,0.1-5,0.6-7.3,1.5
				c-5.8,2.1-12.6,6.2-14.2,12.6c-0.2,0.9-0.3,1.8-0.3,2.7c0,0.6,0.5,2.3,0.2,2.7c-0.1,0.2,0.1,0.5,0.3,0.3c0.1,0,0.2,0,0.2-0.1
				c0-0.1,0.1-0.2,0.1-0.2c2.7-2.2,7.3,6.4,8.9,7.8c6.3,5.3,15.4,6,23,4c8.5-2.3,17.8-8.1,22.7-15.2c0.8-1.2,1.6-2.3,2.2-3.6
				C327.2,160.5,326.9,160.3,326.7,160.5z"/>
			<g>
				<g>
					<path class="st13" d="M317.6,191.6c0,0,5.4-12.2,9.8-2.6c3.5,7.6-2.4,15.1-7.1,14.6C315.6,203,317.6,191.6,317.6,191.6z"/>
					<path class="st5" d="M318,193.5c0,0,4-7.8,6.1-5c2.1,2.8,2.1,6.7,2.1,6.7s-1.5-4.1-4.4-1.4c0,0,3.9,6.4-2.6,5
						C319.1,198.8,316.3,197,318,193.5z"/>
				</g>
			</g>
			<path class="st12" d="M276.1,165.9c0,0,0.6,10-3.5,14.8c-4.1,4.8-4.5,14.7-4.5,14.7s-15.2-19.3,2.1-30.6
				C270.1,164.7,273.5,163.3,276.1,165.9z"/>
			<path class="st12" d="M309.4,169.8c0,0,7,9.3,8.5,22.7c0,0,9.9-14.7,0.5-27.1C318.3,165.4,308,161,309.4,169.8z"/>
			<g>
				<g>
					<path class="st13" d="M268.4,193.4c0,0-5.4-12.2-9.8-2.6c-3.5,7.6,2.4,15.1,7.1,14.6C270.4,204.9,268.4,193.4,268.4,193.4z"/>
					<path class="st5" d="M268,195.3c0,0-4-7.8-6.1-5c-2.1,2.8-2.1,6.7-2.1,6.7s1.5-4.1,4.4-1.4c0,0-3.9,6.4,2.6,5
						C266.9,200.6,269.7,198.8,268,195.3z"/>
				</g>
			</g>
			<g>
				<g>
					<path class="st14" d="M284,190.3c-2.2-0.3-4.5-0.4-6.6-0.4c-1.3,2.2-2.6,4.6-3.6,7c-0.7,1.7-1.4,3.6-1.8,5.5
						c2.1,1.9,4.8,2.5,7.5,2.5C280.6,200,281.3,194.5,284,190.3z"/>
					<path class="st14" d="M312.1,189.8c-2.3-0.1-4.5,0-6.6,0.3c-1.1,2.4-2.1,4.8-2.9,7.3c-0.6,1.8-1,3.7-1.2,5.7
						c2.2,1.7,5,2,7.7,1.8C309.7,199.7,309.8,194.2,312.1,189.8z"/>
				</g>
				<path class="st15" d="M317.6,198.4c2.2-6.4,1.6-9.2,1.5-9.5l-0.1-0.5l-0.5-0.2c-0.4-0.2-9.7-3.8-19.8,0.8
					c-1.1,0.5-2.1,1.1-3.1,1.7l0-0.2l-3.7,0.1l-0.1-0.2l-0.5-0.3c-1.1-0.6-2.2-1.1-3.4-1.6c-10.3-3.9-19.5,0.3-19.9,0.5l-0.5,0.2
					l-0.1,0.5c-0.1,0.3-0.5,3.1,2.1,9.3c0.9,2.3,2.7,3.9,5.2,4.9c3.1,1.2,6.2,0.9,6.4,0.9c7.3-0.8,8.6-4.3,9.4-6.6
					c0-0.1,0.1-0.3,0.1-0.4c0.6-1.6,0.9-3,1.1-4.2c0.7-0.3,1.8-0.5,3.3,0.1c0.2,1.2,0.6,2.8,1.4,4.6c0.1,0.1,0.1,0.2,0.2,0.4
					c1,2.3,2.5,5.7,9.8,6c0.1,0,3.3,0.1,6.3-1.3C315.1,202.4,316.8,200.7,317.6,198.4z M280.8,202.8c0,0-2.8,0.2-5.4-0.7
					c-2-0.7-3.3-2-4-3.7c-1.7-4.2-2-6.6-2-7.6c2.1-0.8,9.5-3.3,17.6-0.2c0.9,0.3,1.7,0.7,2.5,1.1c0,0.9-0.1,2.9-1.1,5.4
					c0,0.1-0.1,0.3-0.1,0.4C287.6,199.7,286.7,202.2,280.8,202.8z M311.8,201.6c-2.5,1.1-5.3,1.1-5.3,1.1c-6-0.3-7-2.6-7.9-4.7
					c-0.1-0.1-0.1-0.3-0.2-0.4c-1.1-2.5-1.4-4.4-1.4-5.3c0.8-0.5,1.6-0.9,2.5-1.3c7.9-3.6,15.5-1.6,17.6-0.9c0,1,0,3.4-1.5,7.7
					C314.9,199.4,313.7,200.7,311.8,201.6z"/>
			</g>
			<path class="st16" d="M304.1,217c0,0-11-15.7-17.6,1.4C286.5,218.4,291.4,208.6,304.1,217z"/>
		</g>
		<g>
			<g>
				<g>
					<g>
						<path class="st17" d="M365.7,466.9c1.1,1,1.9,2,2.3,2.7c0,0-22.7,31.6-25.3,32.9c-0.4,0.2-0.7-0.1-0.8-0.9
							c-0.3-0.3-0.6-0.8-0.9-1.3c-1.8-3.1-3.5-9.3,3.5-17.1c0.4-2,0.7-3.7,0.9-4.7c0.3-1.5-0.6-3.4-1.9-5.3c-2.9-4.2-8-8.6-9.3-9.3
							l10.3-12.8c0,0,5.1,3.3,10.6,7.3C359.1,461.2,363.1,464.3,365.7,466.9z"/>
						<path class="st18" d="M343.5,473.3c-2.9-4.3-8-8.6-9.3-9.3l10.3-12.8c0,0,5.3,3.4,10.6,7.2L343.5,473.3z"/>
					</g>
					<path class="st19" d="M365.7,466.9c1.1,1,1.9,2,2.3,2.7c0,0-22.7,31.6-25.3,32.9c-0.4,0.2-0.7-0.1-0.8-0.9
						c-0.3-0.3-0.6-0.8-0.9-1.3C345.3,495.1,360.4,475.9,365.7,466.9z"/>
				</g>
				<path class="st20" d="M347.8,480.6c-1.8-0.7-4.3,1.2-4.4,3.3c0,0.2,0.1,0.4,0.4,0.3c0.8-0.3,1.1-1.1,1.7-1.7
					c0.7-0.6,1.4-0.4,2.1-0.6C348.1,481.7,348.4,480.9,347.8,480.6z"/>
				<path class="st20" d="M349.4,474.7c-1.3-0.4-3,0.2-4,1.3c-0.7,0.8-1.8,2.8-0.6,3.3c0.1,0.1,0.2,0,0.3-0.1
					c0.5-0.5,0.5-1.2,0.9-1.8c0.5-0.6,1.4-1,2.1-1.1c0.7-0.1,1.2,0.1,1.8-0.5C350.3,475.5,349.8,474.8,349.4,474.7z"/>
			</g>
			<g>
				<g>
					<g>
						<path class="st17" d="M319.3,479.7c0.9,1.2,1.6,2.2,1.9,3c0,0-26.7,28.2-29.5,29.2c-0.4,0.2-0.6-0.2-0.6-1
							c-0.2-0.4-0.4-0.8-0.7-1.4c-1.3-3.3-2.2-9.6,5.7-16.4c0.7-1.9,1.2-3.6,1.5-4.5c0.5-1.4-0.1-3.4-1.1-5.5
							c-2.3-4.6-6.8-9.6-8-10.5l12-11.3c0,0,4.6,4,9.5,8.6C313.5,473.3,317.1,476.9,319.3,479.7z"/>
						<path class="st18" d="M296.5,483.1c-2.3-4.6-6.8-9.6-7.9-10.4l12-11.3c0,0,4.8,4.1,9.5,8.6L296.5,483.1z"/>
					</g>
					<path class="st19" d="M319.3,479.7c0.9,1.2,1.6,2.2,1.9,3c0,0-26.7,28.2-29.5,29.2c-0.4,0.2-0.6-0.2-0.6-1
						c-0.2-0.4-0.4-0.8-0.7-1.4C295.3,504.9,312.8,488,319.3,479.7z"/>
				</g>
				<path class="st20" d="M299.7,490.9c-1.7-0.9-4.4,0.7-4.9,2.7c0,0.2,0.1,0.4,0.3,0.3c0.8-0.2,1.3-1,1.9-1.4
					c0.7-0.5,1.4-0.2,2.2-0.3C299.9,492.1,300.3,491.2,299.7,490.9z"/>
				<path class="st20" d="M302.1,485.3c-1.2-0.5-3-0.2-4.2,0.7c-0.8,0.7-2.2,2.5-1,3.2c0.1,0.1,0.2,0,0.3-0.1
					c0.5-0.4,0.6-1.1,1.1-1.6c0.6-0.5,1.5-0.8,2.2-0.8c0.7,0,1.2,0.2,1.8-0.2C302.9,486.2,302.4,485.4,302.1,485.3z"/>
			</g>
			<g>
				<path class="st17" d="M320.2,340.8c-27.3,31.6-46.8,9.5-54-2.3c0,0,0,0,0,0c0.2-12.1,0.3-19.8,0.2-20.1l51.4,0.5
					C318.8,323.7,319.6,331.4,320.2,340.8z"/>
				<path class="st21" d="M312.4,326.5l5.9-0.1l-0.5-7.4l-5.9-0.1C312.1,321.5,312.3,324,312.4,326.5z"/>
				<path class="st21" d="M306.6,319l-26.3-0.2c0.1,2.8,0.2,5.6,0.2,8.4l26.5-0.5C306.5,324.2,306.6,321.6,306.6,319z"/>
				<path class="st21" d="M274,318.7l-7.6-0.1v8.7l8.3-0.1C274,324.6,273.9,321.5,274,318.7z"/>
				<rect x="285.2" y="316.9" class="st22" width="15.7" height="5.9"/>
			</g>
			<path class="st17" d="M266.2,338.5c0,0-13.5,69.6-14,86c-0.5,16.4,40.4,53.5,40.4,53.5l15.3-13.7c0,0-31.7-44.2-31.7-45.9
				c0-1.6,16.9-64.5,12.6-73.7c-4.4-9.3-21.8-8.2-21.8-8.2S266.2,338.5,266.2,338.5z"/>
			<path class="st17" d="M292.5,336.3c0,0-3.4,70.8-1.5,87.1c1.8,16.3,47.7,47.2,47.7,47.2l13.2-15.7c0,0-37.7-39.2-37.9-40.9
				c-0.2-1.6,10.6-67.8,4.9-76.4c-5.7-8.6-25.9-3.4-25.9-3.4S292.5,336.3,292.5,336.3z"/>
		</g>
		<g>
			<path class="st13" d="M355.2,356.9c-0.1-0.8-0.2-1.6-0.3-2.4l-8.8-1.4c-0.1,1.3-0.2,2.5-0.3,3.8c-1.8,1.2-4.4,3.9-4.5,7.4
				c-0.1,3.4-4.4,6.6-4.6,7.8c2.8,2,4.8-0.8,6.6-3.9c0.8-1.4,1.5-1.6,1.9-1.5c0,0.7,0,1.2,0,1.3c0,0.1,0,0.3-0.1,0.4
				c-0.7,2.6-1.2,5.2-1.7,7.9c-0.2,1.3-0.5,2.6,0.2,3.8c0.1,0.2,0.4,0.2,0.7,0.1c1.8-0.9,2.2-2.9,2.7-4.6c0.3-1.1,0.6-2.1,0.8-3.1
				c-0.1,2-0.4,3.9-0.7,5.8c-0.4,1.7-0.9,3.9-0.1,5.6c0.7,1.7,1.6,0.9,2.3-0.2c0,0.2,0,0.4,0,0.6c0,0.5,0.5,0.7,0.9,0.5
				c5.3-2.7,6-11.2,5.1-16.7c3.9,2.7,0.5,7.3,1.9,10.7c0.1,0.2,0.4,0.4,0.7,0.2c3.7-2.6,2-9.8,0.8-13.4
				C357.8,362.9,355.7,359.8,355.2,356.9z"/>
			<path class="st4" d="M359.5,360.3c2.8-95.6-29.9-121.5-29.9-121.5c-6.7,6.9-5.8,38.5-5.8,38.5c9.7,13.3,15.5,64.2,17.4,83H359.5z
				"/>
		</g>
		<g>
			<path class="st13" d="M232.5,357.5c0.1-0.8,0.2-1.6,0.3-2.4l8.8-1.4c0.1,1.3,0.2,2.5,0.3,3.8c1.8,1.2,4.4,3.9,4.5,7.4
				c0.1,3.4,4.4,6.6,4.6,7.8c-2.8,2-4.8-0.8-6.6-3.9c-0.8-1.4-1.5-1.6-1.9-1.5c0,0.7,0,1.2,0,1.3c0,0.1,0,0.3,0.1,0.4
				c0.7,2.6,1.2,5.2,1.7,7.9c0.2,1.3,0.5,2.6-0.2,3.8c-0.1,0.2-0.4,0.2-0.7,0.1c-1.8-0.9-2.2-2.9-2.7-4.6c-0.3-1.1-0.6-2.1-0.8-3.1
				c0.1,2,0.4,3.9,0.7,5.8c0.4,1.7,0.9,3.9,0.1,5.6c-0.7,1.7-1.6,0.9-2.3-0.2c0,0.2,0,0.4,0,0.6c0,0.5-0.5,0.7-0.9,0.5
				c-5.3-2.7-6-11.2-5.1-16.7c-3.9,2.7-0.5,7.3-1.9,10.7c-0.1,0.2-0.4,0.4-0.7,0.2c-3.7-2.6-2-9.8-0.8-13.4
				C230,363.5,232,360.4,232.5,357.5z"/>
			<path class="st4" d="M228.2,360.8c-2.8-95.6,29.9-121.5,29.9-121.5c6.7,6.9,5.8,38.5,5.8,38.5c-9.7,13.3-15.5,64.2-17.4,83H228.2
				z"/>
		</g>
	</g>
</g>
</svg>
