<svg aria-hidden="true" focusable="false" role="img" xmlns="http://www.w3.org/2000/svg" viewBox="0 0 512 512">
<style type="text/css">
	.st0{fill-rule:evenodd;clip-rule:evenodd;fill:#614830;}
	.st1{fill-rule:evenodd;clip-rule:evenodd;fill:#76593C;}
	.st2{fill-rule:evenodd;clip-rule:evenodd;fill:#402020;}
	.st3{fill:#BAA466;stroke:#76593C;stroke-miterlimit:10;}
	.st4{fill:#22272E;}
	.st5{fill:#617085;}
	.st6{fill:#515D6E;stroke:#515D6E;stroke-miterlimit:10;}
	.st7{fill:#515D6E;}
	.st8{fill:#8C4C09;}
	.st9{fill:#C28C4B;}
	.st10{fill:#EBE6E2;}
	.st11{fill:#D8826C;}
	.st12{fill:#FFFFFF;}
	.st13{fill:#F5F0EB;}
	.st14{fill:#F5AE94;}
	.st15{fill:#DD876C;}
	.st16{fill:#0D0D0C;}
	.st17{fill:#242422;}
	.st18{fill:#F0A98F;}
	.st19{opacity:0.4;fill:#EAECED;}
	.st20{fill:#5C311E;}
	.st21{fill:#D5503B;}
</style>
<g>
	<g>
		<g>
			<rect x="169.6" y="37.3" class="st0" width="177.3" height="30.7"/>
			<rect x="142.2" class="st0" width="28.1" height="489.9"/>
			<rect x="169.6" y="29.3" class="st1" width="177.3" height="30.7"/>
			<rect x="152.1" class="st1" width="28.1" height="489.9"/>
			<path class="st2" d="M166.1,40c2.6,0,4.8,2.1,4.8,4.8s-2.1,4.8-4.8,4.8c-2.7,0-4.8-2.1-4.8-4.8S163.5,40,166.1,40"/>
			
				<rect x="151.2" y="71.1" transform="matrix(0.7071 -0.7071 0.7071 0.7071 5.541025e-02 173.0903)" class="st1" width="115.4" height="30.7"/>
			<path class="st2" d="M238.7,40c2.6,0,4.8,2.1,4.8,4.8s-2.1,4.8-4.8,4.8s-4.8-2.1-4.8-4.8S236.1,40,238.7,40"/>
			<path class="st2" d="M166.1,117.7c2.6,0,4.8,2.1,4.8,4.8c0,2.6-2.1,4.8-4.8,4.8c-2.7,0-4.8-2.1-4.8-4.8
				C161.3,119.9,163.5,117.7,166.1,117.7"/>
		</g>
		<g>
			<path class="st3" d="M286.8,70.9c0-3,2.4-5.4,5.4-5.4c3,0,5.4,2.4,5.4,5.4v88.2c0,3-2.4,5.4-5.4,5.4c-3,0-5.4-2.4-5.4-5.4V70.9z"
				/>
			<g>
				<path class="st3" d="M297.2,119.9c3.1-1.5,6.7-0.2,8.2,2.9c1.5,3.1,0.2,6.7-2.9,8.2l-14.3,6.9c-3.1,1.5-6.7,0.2-8.2-2.9
					c-1.5-3.1-0.2-6.7,2.9-8.2L297.2,119.9z"/>
				<path class="st3" d="M296.6,130.6c2.7-1.3,5.9-0.1,7.2,2.5c1.3,2.7,0.1,5.9-2.5,7.2l-12.5,6c-2.7,1.3-5.9,0.1-7.2-2.5
					c-1.3-2.7-0.1-5.9,2.5-7.2L296.6,130.6z"/>
				<path class="st3" d="M296.6,141.5c2.7-1.3,5.9-0.1,7.2,2.5c1.3,2.7,0.1,5.9-2.5,7.2l-12.5,6c-2.7,1.3-5.9,0.1-7.2-2.5
					c-1.3-2.7-0.1-5.9,2.5-7.2L296.6,141.5z"/>
				<path class="st3" d="M296.6,151.2c2.7-1.3,5.9-0.1,7.2,2.5c1.3,2.7,0.1,5.9-2.5,7.2l-12.5,6c-2.7,1.3-5.9,0.1-7.2-2.5
					c-1.3-2.7-0.1-5.9,2.5-7.2L296.6,151.2z"/>
			</g>
			<g>
				<path class="st3" d="M276.3,27.4c0.4-3,3.1-5.1,6-4.7c3,0.4,5.1,3.1,4.7,6l-5.3,42.9c-0.4,3-3.1,5.1-6,4.7c-3-0.4-5.1-3.1-4.7-6
					L276.3,27.4z"/>
				<path class="st3" d="M285.8,27.4c0.4-3,3.1-5.1,6-4.7c3,0.4,5.1,3.1,4.7,6l-5.3,42.9c-0.4,3-3.1,5.1-6,4.7c-3-0.4-5.1-3.1-4.7-6
					L285.8,27.4z"/>
				<path class="st3" d="M295.5,27.4c0.4-3,3.1-5.1,6-4.7c3,0.4,5.1,3.1,4.7,6l-5.3,42.9c-0.4,3-3.1,5.1-6,4.7c-3-0.4-5.1-3.1-4.7-6
					L295.5,27.4z"/>
				<path class="st3" d="M305.1,27.4c0.4-3,3.1-5.1,6-4.7c3,0.4,5.1,3.1,4.7,6l-5.3,42.9c-0.4,3-3.1,5.1-6,4.7c-3-0.4-5.1-3.1-4.7-6
					L305.1,27.4z"/>
			</g>
		</g>
	</g>
	<g>
		<g>
			<g>
				<g>
					<g>
						<path class="st4" d="M367.5,466.7c1.1,1,1.9,2,2.3,2.7c0,0-22.8,31.7-25.4,33.1c-0.4,0.2-0.7-0.1-0.8-0.9
							c-0.3-0.3-0.6-0.8-0.9-1.3c-1.8-3.1-3.5-9.3,3.5-17.1c0.4-2,0.7-3.7,0.9-4.7c0.3-1.5-0.6-3.4-1.9-5.3
							c-2.9-4.2-8.1-8.7-9.3-9.3l10.4-12.9c0,0,5.1,3.3,10.7,7.3C360.9,461.1,364.9,464.2,367.5,466.7z"/>
						<path class="st5" d="M345.3,473.1c-2.9-4.3-8-8.6-9.3-9.3l10.4-12.9c0,0,5.3,3.4,10.6,7.3L345.3,473.1z"/>
					</g>
					<path class="st6" d="M367.5,466.7c1.1,1,1.9,2,2.3,2.7c0,0-22.8,31.7-25.4,33.1c-0.4,0.2-0.7-0.1-0.8-0.9
						c-0.3-0.3-0.6-0.8-0.9-1.3C347,495,362.2,475.8,367.5,466.7z"/>
				</g>
				<path class="st7" d="M349.5,480.5c-1.9-0.7-4.3,1.2-4.5,3.3c0,0.2,0.1,0.4,0.4,0.3c0.8-0.3,1.1-1.1,1.7-1.7
					c0.7-0.6,1.4-0.4,2.1-0.6C349.9,481.6,350.2,480.7,349.5,480.5z"/>
				<path class="st7" d="M351.2,474.6c-1.3-0.4-3,0.2-4,1.3c-0.7,0.8-1.8,2.8-0.6,3.3c0.1,0.1,0.2,0,0.3-0.1
					c0.5-0.5,0.5-1.2,0.9-1.8c0.5-0.6,1.4-1,2.1-1.1c0.7-0.1,1.2,0.1,1.8-0.5C352.1,475.4,351.5,474.7,351.2,474.6z"/>
			</g>
			<g>
				<g>
					<g>
						<path class="st4" d="M320.9,479.6c0.9,1.2,1.6,2.2,1.9,3c0,0-26.8,28.3-29.6,29.3c-0.4,0.2-0.6-0.2-0.6-1
							c-0.2-0.4-0.4-0.9-0.7-1.4c-1.3-3.3-2.2-9.7,5.8-16.5c0.7-2,1.2-3.6,1.5-4.5c0.5-1.4-0.1-3.4-1.1-5.5c-2.3-4.6-6.8-9.7-8-10.5
							l12-11.3c0,0,4.7,4,9.6,8.7C315.1,473.1,318.7,476.7,320.9,479.6z"/>
						<path class="st5" d="M298,483c-2.3-4.6-6.8-9.6-7.9-10.5l12-11.4c0,0,4.8,4.1,9.6,8.6L298,483z"/>
					</g>
					<path class="st6" d="M320.9,479.6c0.9,1.2,1.6,2.2,1.9,3c0,0-26.8,28.3-29.6,29.3c-0.4,0.2-0.6-0.2-0.6-1
						c-0.2-0.4-0.4-0.9-0.7-1.4C296.8,504.9,314.4,487.9,320.9,479.6z"/>
				</g>
				<path class="st7" d="M301.3,490.9c-1.8-0.9-4.4,0.7-4.9,2.7c0,0.2,0.1,0.4,0.3,0.3c0.8-0.2,1.3-1,1.9-1.4
					c0.7-0.5,1.4-0.2,2.2-0.3C301.4,492,301.8,491.2,301.3,490.9z"/>
				<path class="st7" d="M303.7,485.2c-1.2-0.5-3-0.2-4.2,0.7c-0.8,0.7-2.2,2.5-1,3.2c0.1,0.1,0.2,0,0.3-0.1
					c0.5-0.4,0.6-1.2,1.2-1.6c0.6-0.5,1.5-0.8,2.2-0.8c0.7,0,1.2,0.2,1.8-0.3C304.5,486.1,304,485.3,303.7,485.2z"/>
			</g>
			<g>
				<path class="st4" d="M321.9,340.2c-27.4,31.8-47,9.6-54.2-2.3c0,0,0,0,0,0c0.2-12.2,0.3-19.9,0.2-20.2l51.6,0.5
					C320.5,323,321.2,330.7,321.9,340.2z"/>
				<path class="st8" d="M314,325.8l6-0.1l-0.5-7.4l-5.9-0.1C313.8,320.8,313.9,323.3,314,325.8z"/>
				<path class="st8" d="M308.2,318.2l-26.4-0.2c0.1,2.8,0.2,5.6,0.2,8.4l26.6-0.5C308.1,323.5,308.2,320.8,308.2,318.2z"/>
				<path class="st8" d="M275.4,317.9l-7.6-0.1v8.8l8.3-0.1C275.4,323.9,275.3,320.8,275.4,317.9z"/>
				<rect x="286.7" y="316.2" class="st9" width="15.8" height="5.9"/>
			</g>
			<path class="st4" d="M267.6,337.9c0,0-13.5,69.8-14.1,86.3c-0.5,16.5,40.6,53.7,40.6,53.7l15.4-13.7c0,0-31.8-44.4-31.8-46.1
				c0-1.6,17-64.7,12.6-74c-4.4-9.3-21.9-8.2-21.9-8.2S267.6,337.9,267.6,337.9z"/>
			<path class="st4" d="M294.1,335.7c0,0-3.4,71.1-1.6,87.4c1.8,16.4,47.9,47.3,47.9,47.3l13.2-15.8c0,0-37.8-39.4-38.1-41
				c-0.2-1.6,10.6-68.1,4.9-76.6c-5.7-8.6-26-3.4-26-3.4S294,335.6,294.1,335.7z"/>
		</g>
		<g>
			<path class="st10" d="M256.8,242.1c0,0,36.9-6.9,71.9-0.9c0,0-7.8,66.9-10.6,81.2c0,0-27.7,6.9-51.7-0.5
				C266.5,321.8,256.3,255,256.8,242.1z"/>
			<path class="st11" d="M301.9,237.8c0,6.2-3.7,11.2-9.9,11.2l0,0c-6.1,0-9.9-5-9.9-11.2v-14.1c0-6.2,3.7-11.2,9.9-11.2l0,0
				c6.1,0,9.9,5,9.9,11.2V237.8z"/>
			<g>
				<path class="st12" d="M293.5,257.7c0,0.9-0.7,1.6-1.6,1.6c-0.9,0-1.6-0.7-1.6-1.6c0-0.9,0.7-1.6,1.6-1.6
					C292.8,256.1,293.5,256.9,293.5,257.7z"/>
				<path class="st12" d="M293.5,274.3c0,0.9-0.7,1.6-1.6,1.6c-0.9,0-1.6-0.7-1.6-1.6c0-0.9,0.7-1.6,1.6-1.6
					C292.8,272.7,293.5,273.4,293.5,274.3z"/>
				<path class="st12" d="M293.4,307.3c0,0.9-0.7,1.6-1.6,1.6c-0.9,0-1.6-0.7-1.6-1.6c0-0.9,0.7-1.6,1.6-1.6
					C292.7,305.8,293.4,306.5,293.4,307.3z"/>
				<path class="st12" d="M293.5,290.7c0,0.9-0.7,1.6-1.6,1.6c-0.9,0-1.6-0.7-1.6-1.6c0-0.9,0.7-1.6,1.6-1.6
					C292.8,289.2,293.5,289.9,293.5,290.7z"/>
			</g>
			<g>
				<path class="st13" d="M280.8,231l-8.8,9.2l7.4,19.4l12.5-10.6C291.9,249,282.2,238.8,280.8,231z"/>
				<path class="st13" d="M302.9,231l8.8,9.2l-7.4,19.4L291.9,249C291.9,249,301.5,238.8,302.9,231z"/>
			</g>
			<path class="st3" d="M305.4,186.2c-3.9-5.7-8.8-9.7-14-9.7c-5.1,0-10.1,4.1-14,9.7c-4.9,7.1-8,16.6-8,24.3
				c0,6.8,2.5,12.9,6.5,17.3c4,4.3,9.4,7,15.4,7c6,0,11.4-2.7,15.4-7c4-4.4,6.5-10.5,6.5-17.3C313.4,202.8,310.3,193.3,305.4,186.2
				 M291.4,167.6c8.4,0,15.8,5.7,21.2,13.6c5.9,8.5,9.5,19.9,9.5,29.2c0,9.1-3.4,17.3-8.9,23.3c-5.6,6.1-13.3,9.8-21.9,9.8
				c-8.6,0-16.3-3.8-21.9-9.8c-5.5-6-8.9-14.2-8.9-23.3c0-9.3,3.7-20.7,9.5-29.2C275.6,173.3,283,167.6,291.4,167.6z"/>
		</g>
		<g>
			<g>
				<path class="st14" d="M315.5,201.8c4.2,7.7-0.7,18.4-4.6,24.3c-3.9,5.9-9.2,7.5-9.2,7.5c-24.4,6.7-28.4-4.5-34.2-12.5
					c-2.9-3.9-7.6-11.5-11-22.2c-0.5-1.5-0.7-2.9-0.7-4.3c-0.4-8.8,6.1-15.8,6.1-15.8c3.9-4.2,9.1-7.5,14.5-9.2
					c7.8-2.5,15.4-1.8,21.1,4.6c1.8,2,3.5,4.3,5,6.5c3.3,4.6,6.3,9.5,9.1,14.4C312.9,197.3,314.2,199.5,315.5,201.8z"/>
			</g>
			<path class="st15" d="M281,192.4c0,0-2.5-0.6,0.6,5.1c3.1,5.6,7,11.2,7,11.2s-5,0.1-1.9,2.4c1.7,1.2,3.7,1.1,5.6,0.5
				c1.7-0.5,2.4-1.6,2.8-3.1c0.2-0.7,1-4.4-0.2-4.6c-0.6-0.1-2,1.9-2.4,2.4C292.6,206.2,283,189.5,281,192.4z"/>
			<path class="st16" d="M285.4,184.9c0,0,8.8-7.2,15.8-1.6c0,0-12.8,2.6-14,5.3L285.4,184.9z"/>
			<path class="st16" d="M274,192.1c0,0-11.1,2.6-10.9,11.5c0,0,9.8-8.6,12.8-7.9L274,192.1z"/>
			<path class="st17" d="M299.3,154.4c-0.3,2.5-1.5,5.4-3.5,7c0.8-3,1.2-6.5-0.6-9.2c-0.1-0.1-0.3-0.1-0.4,0
				c-0.3,0.4-0.4,0.9-0.6,1.3c-0.9,2.4-3.7,3.9-6.1,4.2c-4.3,0.6-8.5-0.3-12.8-0.5c-4.6-0.3-9.2,0.6-13.2,3
				c-2.2,1.3-4.1,2.9-5.8,4.8c-4.1,4.6-8.3,11.5-6.6,17.9c0.2,0.9,0.6,1.7,1,2.5c0.3,0.5,1.5,1.8,1.5,2.3c0,0.3,0.3,0.3,0.4,0.2
				c0.1,0,0.2-0.1,0.1-0.2c0-0.1,0-0.2,0-0.2c1.4-3.2,9.5,2.2,11.6,2.7c8.1,1.7,16.5-1.9,22.2-7.3c6.4-6,11.9-15.6,12.9-24.2
				c0.2-1.4,0.3-2.8,0.2-4.2C299.8,154.1,299.3,154.1,299.3,154.4z"/>
			<g>
				<g>
					<path class="st18" d="M305.9,186.1c0,0-1-13.3,7.5-6.9c6.7,5.1,5,14.5,0.6,16.3C309.5,197.3,305.9,186.1,305.9,186.1z"/>
					<path class="st11" d="M307.1,187.6c0,0-0.2-8.8,3-7.3c3.2,1.5,5,4.9,5,4.9s-3.2-2.9-4.5,0.8c0,0,6.4,3.8,0.1,5.7
						C310.6,191.8,307.3,191.5,307.1,187.6z"/>
				</g>
			</g>
			<path class="st17" d="M257,183c0,0,5.2,8.5,3.9,14.8c-1.4,6.2,2.9,15.1,2.9,15.1s-22.6-10-12.6-28.1
				C251.1,184.8,253.5,181.9,257,183z"/>
			<path class="st17" d="M288.3,170.7c0,0,10.6,5,18.3,16.1c0,0,1.8-17.7-12.4-24.2C294.2,162.6,283,163.6,288.3,170.7z"/>
			<g>
				<g>
					<path class="st18" d="M263.2,211c0,0-10.5-8.2-9.9,2.3c0.5,8.4,9.2,12.3,13.2,9.6C270.4,220.2,263.2,211,263.2,211z"/>
					<path class="st11" d="M263.8,212.9c0,0-7.2-5-7.7-1.6c-0.5,3.5,1.3,6.9,1.3,6.9s-0.6-4.3,3.2-3.3c0,0-0.4,7.5,4.7,3.2
						C265.2,218.1,266.9,215.2,263.8,212.9z"/>
				</g>
			</g>
			<g>
				<g>
					<polygon class="st16" points="276.6,204.5 273.8,203.6 273,206.3 270.4,205.5 269.5,208.2 272.2,209 271.4,211.7 274.2,212.5 
						275,209.9 277.6,210.7 278.5,207.9 275.8,207.1 					"/>
					<polygon class="st16" points="301.2,190.6 298.4,189.8 297.6,192.4 295,191.6 294.1,194.4 296.8,195.2 296,197.9 298.7,198.7 
						299.5,196 302.2,196.8 303,194.1 300.4,193.3 					"/>
				</g>
				<g>
					<path class="st19" d="M275.5,200.9c-2.2,0.8-4.2,1.7-6,2.8c-0.1,2.6-0.1,5.3,0.1,7.9c0.2,1.9,0.5,3.9,1,5.7
						c2.7,0.7,5.4-0.1,7.8-1.3C277.1,211,275.1,205.8,275.5,200.9z"/>
					<path class="st19" d="M300.2,187.1c-2.1,1-4,2.1-5.7,3.4c0.1,2.6,0.4,5.2,0.9,7.8c0.4,1.9,0.8,3.8,1.6,5.6
						c2.8,0.4,5.4-0.6,7.7-2.1C302.7,197.1,300.2,192.1,300.2,187.1z"/>
				</g>
				<path class="st20" d="M309.1,192.2c-1.1-6.7-3-8.9-3.2-9.1l-0.4-0.4l-0.5,0.1c-0.4,0-10.4,1.2-17.2,10c-0.7,0.9-1.4,2-1.9,3
					l-0.1-0.2l-3.2,1.9l-0.1-0.1l-0.6,0c-1.2,0-2.5,0.1-3.7,0.2c-11,1.4-17.1,9.5-17.4,9.9l-0.3,0.4l0.2,0.5c0.1,0.3,1,3,6.3,7.3
					c1.9,1.6,4.2,2.2,6.9,1.8c3.3-0.4,5.9-2.2,6-2.2c6.1-4.2,5.6-7.9,5.2-10.3c0-0.1,0-0.3-0.1-0.4c-0.2-1.7-0.6-3.1-1-4.2
					c0.5-0.6,1.4-1.2,2.9-1.5c0.7,1,1.8,2.2,3.4,3.4c0.1,0.1,0.2,0.2,0.3,0.2c2,1.5,4.9,3.9,11.6,0.7c0.1-0.1,3-1.5,5-4.1
					C308.9,196.9,309.5,194.6,309.1,192.2z M278.6,213.5c0,0-2.3,1.5-5.1,1.9c-2.1,0.3-3.8-0.2-5.3-1.4c-3.5-2.9-4.8-4.9-5.3-5.8
					c1.5-1.7,6.9-7.4,15.5-8.5c0.9-0.1,1.9-0.2,2.8-0.2c0.4,0.8,1.3,2.6,1.6,5.3c0,0.1,0,0.3,0.1,0.4
					C283.2,207.5,283.6,210.1,278.6,213.5z M305.5,197.8c-1.7,2.2-4.2,3.4-4.2,3.5c-5.4,2.6-7.5,1-9.3-0.4c-0.1-0.1-0.2-0.2-0.3-0.3
					c-2.1-1.7-3.3-3.3-3.8-4c0.5-0.8,1-1.6,1.6-2.3c5.3-6.9,13-8.7,15.2-9.1c0.5,0.9,1.6,3,2.3,7.5
					C307.2,194.3,306.7,196.1,305.5,197.8z"/>
			</g>
			<path class="st21" d="M306,215c0,0-17.2-8.7-15,9.6C291,224.6,290.8,213.6,306,215z"/>
		</g>
		<g>
			<path class="st18" d="M354.3,359.8c-0.2-0.8-0.2-1.6-0.3-2.4l-8.8-1.4c-0.1,1.3-0.2,2.6-0.3,3.8c-1.8,1.2-4.4,3.9-4.5,7.4
				c-0.1,3.4-4.4,6.6-4.6,7.8c2.8,2,4.8-0.9,6.6-3.9c0.8-1.4,1.5-1.6,1.9-1.5c0,0.8,0,1.2,0,1.3c0,0.1,0,0.3-0.1,0.4
				c-0.7,2.6-1.2,5.3-1.7,7.9c-0.2,1.3-0.5,2.6,0.2,3.8c0.1,0.2,0.5,0.3,0.7,0.1c1.8-0.9,2.2-2.9,2.7-4.7c0.3-1.1,0.6-2.1,0.8-3.1
				c-0.1,2-0.4,3.9-0.7,5.8c-0.4,1.8-0.9,3.9-0.1,5.6c0.8,1.7,1.6,0.9,2.3-0.2c0,0.2,0,0.4,0,0.6c0,0.5,0.6,0.7,0.9,0.5
				c5.4-2.7,6-11.3,5.1-16.8c3.9,2.7,0.5,7.3,1.9,10.8c0.1,0.2,0.4,0.4,0.7,0.2c3.7-2.6,2-9.8,0.8-13.4
				C356.9,365.8,354.9,362.7,354.3,359.8z"/>
			<path class="st10" d="M358.7,363.1c2.8-95.9-30-122-30-122c-6.8,6.9-5.8,38.6-5.8,38.6c9.8,13.3,15.6,64.4,17.4,83.3H358.7z"/>
		</g>
		<g>
			<path class="st18" d="M231.4,360.6c0.2-0.8,0.2-1.6,0.3-2.4l8.8-1.4c0.1,1.3,0.2,2.6,0.3,3.8c1.8,1.2,4.4,3.9,4.5,7.4
				c0.1,3.4,4.4,6.6,4.6,7.8c-2.8,2-4.8-0.9-6.6-3.9c-0.8-1.4-1.5-1.6-1.9-1.5c0,0.8,0,1.2,0,1.3c0,0.1,0,0.3,0.1,0.4
				c0.7,2.6,1.2,5.3,1.7,7.9c0.2,1.3,0.5,2.6-0.2,3.8c-0.1,0.2-0.5,0.3-0.7,0.1c-1.8-0.9-2.2-2.9-2.7-4.7c-0.3-1.1-0.6-2.1-0.8-3.1
				c0.1,2,0.4,3.9,0.7,5.8c0.4,1.8,0.9,3.9,0.1,5.6c-0.8,1.7-1.6,0.9-2.3-0.2c0,0.2,0,0.4,0,0.6c0,0.5-0.6,0.7-0.9,0.5
				c-5.4-2.7-6-11.3-5.1-16.8c-3.9,2.7-0.5,7.3-1.9,10.8c-0.1,0.2-0.4,0.4-0.7,0.2c-3.7-2.6-2-9.8-0.8-13.4
				C228.9,366.6,230.9,363.5,231.4,360.6z"/>
			<path class="st10" d="M227.1,363.9c-2.8-95.9,30-122,30-122c6.8,6.9,5.8,38.6,5.8,38.6c-9.8,13.3-15.6,64.4-17.4,83.3H227.1z"/>
		</g>
	</g>
</g>
</svg>
