<svg aria-hidden="true" focusable="false" role="img" xmlns="http://www.w3.org/2000/svg" viewBox="0 0 512 512">
<style type="text/css">
	.st0{fill:#EBE6E2;}
	.st1{fill:#D8826C;}
	.st2{fill:#FFFFFF;}
	.st3{fill:#F5F0EB;}
	.st4{fill:#F5AE94;}
	.st5{fill:#DD876C;}
	.st6{fill:#0D0D0C;}
	.st7{fill:#5C8696;}
	.st8{fill:#242422;}
	.st9{fill:#F0A98F;}
	.st10{opacity:0.4;fill:#EAECED;}
	.st11{fill:#5C311E;}
	.st12{fill:#D5503B;}
	.st13{fill:#22272E;}
	.st14{fill:#617085;}
	.st15{fill:#515D6E;stroke:#515D6E;stroke-miterlimit:10;}
	.st16{fill:#515D6E;}
	.st17{fill:#8C4C09;}
	.st18{fill:#C28C4B;}
</style>
<g>
	<g>
		<path class="st0" d="M204.6,133.2c0,0,52.6-9.9,102.7-1.3c0,0-11.2,95.4-15.1,115.8c0,0-39.5,9.9-73.7-0.7
			C218.4,247,204,151.6,204.6,133.2z"/>
		<path class="st1" d="M269,127.1c0,8.8-5.3,15.9-14.1,15.9l0,0c-8.7,0-14.1-7.1-14.1-15.9V107c0-8.8,5.3-15.9,14.1-15.9l0,0
			c8.7,0,14.1,7.1,14.1,15.9V127.1z"/>
		<g>
			<path class="st2" d="M257,155.6c0,1.2-1,2.3-2.3,2.3c-1.3,0-2.3-1-2.3-2.3c0-1.3,1-2.3,2.3-2.3C256,153.3,257,154.3,257,155.6z"
				/>
			<path class="st2" d="M257,179.1c0,1.3-1,2.3-2.3,2.3c-1.3,0-2.3-1-2.3-2.3c0-1.2,1-2.3,2.3-2.3C256,176.9,257,177.9,257,179.1z"
				/>
			<path class="st2" d="M256.9,226.3c0,1.3-1,2.3-2.3,2.3c-1.3,0-2.3-1-2.3-2.3c0-1.3,1-2.3,2.3-2.3
				C255.9,224.1,256.9,225.1,256.9,226.3z"/>
			<path class="st2" d="M257,202.6c0,1.3-1,2.3-2.3,2.3c-1.3,0-2.3-1-2.3-2.3c0-1.3,1-2.3,2.3-2.3C256,200.4,257,201.4,257,202.6z"
				/>
		</g>
		<g>
			<path class="st3" d="M238.8,117.4l-12.5,13.2l10.5,27.6l17.8-15.1C254.6,143.1,240.8,128.6,238.8,117.4z"/>
			<path class="st3" d="M270.4,117.4l12.5,13.2l-10.5,27.6l-17.8-15.1C254.6,143.1,268.4,128.6,270.4,117.4z"/>
		</g>
	</g>
	<g>
		<g>
			<path class="st4" d="M292.7,88.2c0.1,12.5-13.3,22.7-22.1,27.4c-8.9,4.8-16.6,3.2-16.6,3.2c-35.2-8-32.8-24.8-34.7-38.7
				c-1-6.8-1.9-19.6,1.1-35.4c0.4-2.1,1.1-4.1,1.9-5.9c5.5-11.4,18.4-15.8,18.4-15.8c7.7-2.7,16.5-3.3,24.5-1.8
				c11.6,2.1,20.6,8.1,23.6,19.9c0.9,3.8,1.5,7.7,1.9,11.6c1,8,1.5,16.1,1.8,24.2C292.6,80.7,292.7,84.4,292.7,88.2z"/>
		</g>
		<path class="st5" d="M255.7,53.2c0,0-2.7-2.4-2.6,6.8c0.1,9.2,1.3,18.8,1.3,18.8s-6.3-3.1-4,1.8c1.3,2.7,4,3.9,6.7,4.4
			c2.4,0.5,4.1-0.4,5.6-2.1c0.7-0.7,4.2-4.8,2.9-5.9c-0.6-0.5-3.8,1.1-4.6,1.3C260.9,78.3,260.1,50.8,255.7,53.2z"/>
		<path class="st6" d="M266.2,46.7c0,0,16-3.2,21,8.5c0,0-17.8-5.4-21.2-2.7L266.2,46.7z"/>
		<path class="st6" d="M247,48c0,0-15.7-4.2-21.5,7.2c0,0,18.1-4.2,21.4-1.4L247,48z"/>
		<g>
			<path class="st2" d="M281.6,73.1c-1.5,1.4-3.5,2.3-5.7,2.4c-1,0.1-2,0-2.9-0.3c-3.7-0.9-6.6-4.1-6.9-8c-0.3-4.9,3.5-9.2,8.6-9.5
				c5.1-0.3,9.4,3.3,9.8,8.2C284.7,68.8,283.6,71.4,281.6,73.1z"/>
			<g>
				<path class="st7" d="M282.5,70c-0.1,1.1-0.4,2.2-0.8,3.2c-1.5,1.4-3.5,2.3-5.7,2.4c-1,0.1-2,0-2.9-0.3c-1.4-1.4-2.2-3.7-2-6.2
					c0.3-4.1,3.1-7.2,6.3-6.9c1.1,0.1,2.1,0.6,2.9,1.3c0.5,0.4,0.9,1,1.2,1.6C282.2,66.4,282.6,68.1,282.5,70z"/>
				<path class="st6" d="M280.8,69.8c-0.2,2.9-2.2,5.1-4.5,4.9c-2.3-0.2-3.9-2.7-3.7-5.6c0.2-2.9,2.2-5.1,4.5-4.9
					C279.4,64.5,281,66.9,280.8,69.8z"/>
				<path class="st2" d="M281.5,64.9c-0.1,0.8-1.1,1.4-2.2,1.3c-1.2-0.1-2-0.8-2-1.6c0.1-0.8,1-1.3,2.2-1.3
					C280.6,63.4,281.5,64.1,281.5,64.9z"/>
			</g>
		</g>
		<g>
			<path class="st2" d="M245.3,73.1c-1.5,1.4-3.5,2.3-5.7,2.4c-1,0.1-2,0-2.9-0.3c-3.7-0.9-6.6-4.1-6.9-8c-0.3-4.9,3.5-9.2,8.6-9.5
				c5.1-0.3,9.4,3.3,9.8,8.2C248.3,68.8,247.2,71.4,245.3,73.1z"/>
			<g>
				<path class="st7" d="M246.1,70c-0.1,1.1-0.4,2.2-0.8,3.2c-1.5,1.4-3.5,2.3-5.7,2.4c-1,0.1-2,0-2.9-0.3c-1.4-1.4-2.2-3.7-2-6.2
					c0.3-4.1,3.1-7.2,6.3-6.9c1.1,0.1,2.1,0.6,2.9,1.3c0.5,0.4,0.9,1,1.2,1.6C245.8,66.4,246.2,68.1,246.1,70z"/>
				<path class="st6" d="M244.4,69.8c-0.2,2.9-2.2,5.1-4.5,4.9c-2.2-0.2-3.9-2.7-3.7-5.6c0.2-2.9,2.2-5.1,4.5-4.9
					C243,64.5,244.7,66.9,244.4,69.8z"/>
				<path class="st2" d="M245.1,64.9c-0.1,0.8-1,1.4-2.2,1.3c-1.2-0.1-2-0.8-2-1.6c0.1-0.8,1.1-1.3,2.2-1.3
					C244.2,63.4,245.1,64.1,245.1,64.9z"/>
			</g>
		</g>
		<path class="st8" d="M304.2,17.6c-2.1,2.9-5.5,5.7-9.1,6.5c3-3.2,5.9-7.5,5.4-11.9c0-0.2-0.3-0.4-0.5-0.3
			c-0.6,0.3-1.1,0.8-1.6,1.3c-2.7,2.5-7.2,2.4-10.5,1.2c-5.8-2.1-10.5-6.1-15.7-9.2c-5.7-3.4-12-5.4-18.7-5.1
			c-3.6,0.2-7.1,0.9-10.5,2.1c-8.3,3-18.1,8.9-20.3,18.1c-0.3,1.3-0.4,2.6-0.4,3.9c0,0.8,0.7,3.3,0.4,3.9c-0.2,0.3,0.2,0.7,0.4,0.5
			c0.1,0,0.3-0.1,0.3-0.2c0.1-0.2,0.1-0.2,0.1-0.3c3.9-3.2,10.4,9.2,12.8,11.2c9.1,7.6,22.1,8.7,32.9,5.7
			c12.1-3.3,25.5-11.7,32.5-21.8c1.2-1.7,2.3-3.3,3.1-5.2C304.9,17.5,304.4,17.3,304.2,17.6z"/>
		<g>
			<g>
				<path class="st9" d="M291.2,62c0,0,7.7-17.4,14.1-3.7c5.1,10.9-3.4,21.6-10.2,20.9C288.3,78.4,291.2,62,291.2,62z"/>
				<path class="st1" d="M291.7,64.7c0,0,5.7-11.2,8.7-7.2c3,4,2.9,9.5,2.9,9.5s-2.1-5.8-6.3-2c0,0,5.5,9.1-3.7,7.2
					C293.3,72.3,289.3,69.7,291.7,64.7z"/>
			</g>
		</g>
		<path class="st8" d="M231.7,25.2c0,0,0.9,14.3-5,21.2c-5.9,6.9-6.5,21-6.5,21s-21.7-27.7,3-43.8C223.1,23.5,228.1,21.6,231.7,25.2
			z"/>
		<path class="st8" d="M279.4,30.8c0,0,10,13.4,12.2,32.6c0,0,14.1-21.1,0.7-38.8C292.2,24.5,277.4,18.3,279.4,30.8z"/>
		<g>
			<g>
				<path class="st9" d="M220.6,64.6c0,0-7.7-17.4-14.1-3.7c-5.1,10.9,3.4,21.6,10.2,20.9C223.6,81.1,220.6,64.6,220.6,64.6z"/>
				<path class="st1" d="M220.2,67.3c0,0-5.7-11.2-8.7-7.2c-3,4-2.9,9.5-2.9,9.5s2.1-5.8,6.3-2c0,0-5.5,9.1,3.7,7.2
					C218.5,74.9,222.6,72.4,220.2,67.3z"/>
			</g>
		</g>
		<g>
			<g>
				<path class="st10" d="M243.1,60.2c-3.2-0.5-6.4-0.6-9.4-0.5c-1.9,3.2-3.7,6.5-5.1,10c-1,2.5-2,5.2-2.5,7.9
					c3,2.7,6.9,3.6,10.8,3.6C238.2,74,239.2,66.1,243.1,60.2z"/>
				<path class="st10" d="M283.3,59.4c-3.3-0.2-6.5,0-9.4,0.4c-1.6,3.4-3.1,6.9-4.2,10.4c-0.8,2.6-1.5,5.3-1.8,8.1
					c3.2,2.4,7.2,2.9,11.1,2.5C279.8,73.7,280,65.7,283.3,59.4z"/>
			</g>
			<path class="st11" d="M291.1,71.8c3.1-9.2,2.2-13.1,2.1-13.6l-0.2-0.7l-0.7-0.3c-0.6-0.2-14-5.4-28.4,1.1c-1.6,0.7-3,1.5-4.4,2.5
				l0-0.3l-5.3,0.2l-0.1-0.2l-0.7-0.4c-1.5-0.9-3.2-1.6-4.8-2.2c-14.8-5.6-28,0.5-28.5,0.8l-0.7,0.3l-0.2,0.8
				c-0.1,0.4-0.7,4.4,3,13.4c1.3,3.2,3.9,5.6,7.5,7c4.4,1.7,8.9,1.3,9.1,1.2c10.5-1.1,12.3-6.2,13.5-9.5c0.1-0.2,0.1-0.4,0.2-0.5
				c0.9-2.3,1.3-4.3,1.5-6c1-0.4,2.6-0.6,4.7,0.1c0.3,1.7,0.9,4,2,6.5c0.1,0.2,0.2,0.3,0.2,0.5c1.4,3.3,3.6,8.2,14.1,8.6
				c0.2,0,4.7,0.1,9-1.8C287.6,77.6,290,75.1,291.1,71.8z M238.4,78.1c0,0-4,0.3-7.7-1.1c-2.8-1-4.7-2.8-5.7-5.2
				c-2.5-6-2.8-9.4-2.8-10.8c3-1.2,13.7-4.7,25.3-0.3c1.2,0.5,2.5,1,3.6,1.6c0,1.3-0.2,4.1-1.5,7.7c-0.1,0.2-0.1,0.4-0.2,0.6
				C248.2,73.7,247,77.2,238.4,78.1z M282.8,76.3c-3.6,1.6-7.6,1.5-7.6,1.5c-8.6-0.4-10.1-3.8-11.4-6.8c-0.1-0.2-0.2-0.4-0.3-0.6
				c-1.6-3.5-1.9-6.3-2-7.6c1.1-0.7,2.3-1.3,3.5-1.9c11.3-5.1,22.2-2.3,25.2-1.3c0.1,1.4-0.1,4.9-2.1,11
				C287.4,73.2,285.6,75.1,282.8,76.3z"/>
		</g>
		<path class="st12" d="M246.7,91.4c0,0,16.1,22.2,25.2-2.3C271.9,89,265,103.1,246.7,91.4z"/>
	</g>
	<g>
		<g>
			<g>
				<g>
					<g>
						<path class="st13" d="M303.1,503.6l-34.9-4c1.7-2.7,2.5-8.9,2.9-14.8c0.6-8.2,0.4-16.8,0.4-16.8s23-5.6,23,0
							c0,2.8,1.3,10.7,2.9,16.8C300,494.3,303.1,503.6,303.1,503.6z"/>
						<path class="st13" d="M303.8,506.1c0,0.2,0-0.5,0-0.3c-0.1,1.9-0.6,1.7-1.4,4.6h-36.6c-0.9-2.8-1.3-2.7-1.4-4.6
							c0-0.2,0,0.1,0-0.1c0-8.7,8.8-15.6,19.7-15.6C295,490.1,303.8,497.4,303.8,506.1z"/>
					</g>
					<path class="st14" d="M271.2,487.8c0.6-11.3,0.4-19.7,0.4-19.7s23-5.6,23,0c0,2.8,1.3,8.4,2.9,19.7H271.2z"/>
				</g>
				<path class="st15" d="M303.8,503.3c-0.1,0-0.6,2.8-1.4,5.6h-36.6c-0.9-2.8-1.3-5.6-1.4-5.6H303.8z"/>
			</g>
			<path class="st16" d="M290.7,493c-2.7-3.8-9.2-2.5-12.3,0.1c-0.5,0.4,0,1,0.5,0.9c1.9-0.3,3.4-1.3,5.4-1.4
				c2.1-0.1,3.8,1.2,5.8,1.3C290.6,493.9,290.9,493.3,290.7,493z"/>
			<path class="st16" d="M289.5,496.9c-3-2.1-9-2.8-11.7,0.3c-0.4,0.4,0,1.1,0.6,1c1.8-0.5,3.9-0.7,5.7-0.7c1.9,0,3.4,1.3,5.2,0.9
				C290.1,498.1,290.1,497.2,289.5,496.9z"/>
		</g>
		<g>
			<g>
				<g>
					<path class="st13" d="M244.1,505.7c-0.2,2.1-0.6,3.8-1,5c0,0-55.6,2.4-59.5,0.6c-0.6-0.3-0.4-0.9,0.3-1.6
						c0.2-0.6,0.4-1.3,0.7-2.1c1.9-4.7,7.3-12.1,22.3-11.2c2.6-1.3,4.8-2.4,6.1-3.1c1.9-1,3.3-3.6,4.3-6.8
						c2.2-6.9,2.6-16.7,2.2-18.7l23.6,0.3c0,0,0.8,8.7,1.2,18.4C244.6,493.3,244.6,500.6,244.1,505.7z"/>
					<path class="st14" d="M217.2,487.8c2.2-11.3,2.6-17.3,2.2-19.3l23.6,0.6c0,0,0.8,7.5,1.2,18.7H217.2z"/>
				</g>
				<path class="st15" d="M244.1,505.7c-0.2,2.1-0.6,3.8-1,5c0,0-55.6,2.4-59.5,0.6c-0.6-0.3-0.4-0.9,0.3-1.6
					c0.2-0.6,0.4-1.3,0.7-2.1C194.2,507.7,229.1,507.7,244.1,505.7z"/>
			</g>
			<path class="st16" d="M212.7,497.7c-0.9-2.7-5.2-3.7-7.6-2.1c-0.2,0.2-0.3,0.5,0,0.6c1,0.6,2.3,0.3,3.4,0.5
				c1.2,0.2,1.7,1.2,2.6,1.8C211.8,499.1,213,498.6,212.7,497.7z"/>
			<path class="st16" d="M220.8,494.3c-0.7-1.8-2.9-3.2-5-3.4c-1.5-0.1-4.7,0.4-4.3,2.3c0,0.2,0.2,0.3,0.4,0.3
				c1,0.1,1.8-0.5,2.8-0.5c1.1,0,2.3,0.7,3,1.4c0.7,0.7,1,1.4,2.1,1.6C220.7,496,221,494.8,220.8,494.3z"/>
		</g>
		<g>
			<path class="st13" d="M215.6,482.6h30.5l8.7-187.1c1,0.1,2,0.2,3,0.2l10.9,185.6h30.4c0.2-23.4,1.4-200.2-6.6-240.9l-73.7-0.7
				C219.6,241.7,215.1,409.4,215.6,482.6z"/>
			<path class="st17" d="M284.8,251.1l8.5-0.1l-0.7-10.5l-8.5-0.1C284.4,243.9,284.7,247.5,284.8,251.1z"/>
			<path class="st17" d="M276.5,240.3l-37.6-0.3c0.1,4,0.3,8,0.4,12l37.9-0.7C276.4,247.8,276.4,244,276.5,240.3z"/>
			<path class="st17" d="M229.7,239.8l-10.8-0.1v12.5l11.9-0.2C229.7,248.4,229.6,243.9,229.7,239.8z"/>
			<rect x="248.2" y="237.4" class="st18" width="14.1" height="16.9"/>
		</g>
	</g>
	<g>
		<path class="st9" d="M343.9,301.1c-0.2-1.1-0.3-2.3-0.4-3.4l-12.6-2c-0.2,1.8-0.3,3.7-0.5,5.5c-2.6,1.7-6.3,5.5-6.4,10.6
			c-0.1,4.9-6.2,9.5-6.6,11.2c4,2.8,6.9-1.2,9.5-5.6c1.2-2,2.1-2.3,2.8-2.1c0,1.1,0,1.8,0,1.9c0,0.2,0,0.4-0.1,0.6
			c-1,3.7-1.7,7.5-2.4,11.3c-0.3,1.9-0.7,3.7,0.3,5.5c0.2,0.3,0.6,0.4,0.9,0.2c2.5-1.3,3.2-4.2,3.8-6.7c0.4-1.5,0.8-3,1.2-4.4
			c-0.1,2.8-0.5,5.6-1.1,8.3c-0.5,2.5-1.3,5.5-0.2,8c1.1,2.4,2.3,1.3,3.3-0.3c0,0.3,0,0.6,0,0.9c0,0.7,0.8,1,1.4,0.7
			c7.6-3.8,8.5-16.1,7.3-24c5.6,3.9,0.7,10.5,2.7,15.3c0.1,0.3,0.6,0.6,1,0.3c5.3-3.8,2.8-14,1.2-19.2
			C347.5,309.7,344.6,305.3,343.9,301.1z"/>
		<path class="st0" d="M350.1,305.9c4-136.9-42.8-174-42.8-174c-9.7,9.8-8.3,55.1-8.3,55.1c13.9,19,22.2,91.9,24.9,118.9H350.1z"/>
	</g>
	<g>
		<path class="st9" d="M168.1,301.9c0.2-1.1,0.3-2.3,0.4-3.4l12.6-2c0.2,1.8,0.3,3.7,0.5,5.5c2.6,1.7,6.3,5.5,6.4,10.6
			c0.1,4.9,6.2,9.5,6.6,11.2c-4,2.8-6.9-1.2-9.5-5.6c-1.2-2-2.1-2.3-2.8-2.1c0,1.1,0,1.8,0,1.9c0,0.2,0,0.4,0.1,0.6
			c1,3.7,1.7,7.5,2.4,11.3c0.3,1.9,0.7,3.7-0.3,5.5c-0.2,0.3-0.6,0.4-0.9,0.2c-2.5-1.3-3.2-4.2-3.8-6.7c-0.4-1.5-0.8-3-1.2-4.4
			c0.1,2.8,0.5,5.6,1.1,8.3c0.5,2.5,1.3,5.5,0.2,8c-1.1,2.4-2.3,1.3-3.3-0.3c0,0.3,0,0.6,0,0.9c0,0.7-0.8,1-1.4,0.7
			c-7.6-3.8-8.5-16.1-7.3-24c-5.6,3.9-0.7,10.5-2.7,15.3c-0.1,0.3-0.6,0.6-1,0.3c-5.3-3.8-2.8-14-1.2-19.2
			C164.5,310.6,167.4,306.1,168.1,301.9z"/>
		<path class="st0" d="M161.9,306.7c-4-136.9,42.8-174,42.8-174c9.7,9.8,8.3,55.1,8.3,55.1c-13.9,19-22.2,91.9-24.9,118.9H161.9z"/>
	</g>
</g>
</svg>
