<svg aria-hidden="true" focusable="false" role="img" xmlns="http://www.w3.org/2000/svg" viewBox="0 0 512 512">
<style type="text/css">
	.st0{fill-rule:evenodd;clip-rule:evenodd;fill:#614830;}
	.st1{fill-rule:evenodd;clip-rule:evenodd;fill:#76593C;}
	.st2{fill-rule:evenodd;clip-rule:evenodd;fill:#402020;}
	.st3{fill:#BAA466;stroke:#76593C;stroke-miterlimit:10;}
	.st4{fill:#EBE6E2;}
	.st5{fill:#D8826C;}
	.st6{fill:#FFFFFF;}
	.st7{fill:#F5F0EB;}
	.st8{fill:#F5AE94;}
	.st9{fill:#DD876C;}
	.st10{fill:#0D0D0C;}
	.st11{fill:#5C8696;}
	.st12{fill:#242422;}
	.st13{fill:#F0A98F;}
	.st14{opacity:0.4;fill:#EAECED;}
	.st15{fill:#5C311E;}
	.st16{fill:#D5503B;}
	.st17{fill:#22272E;}
	.st18{fill:#617085;}
	.st19{fill:#515D6E;stroke:#515D6E;stroke-miterlimit:10;}
	.st20{fill:#515D6E;}
	.st21{fill:#8C4C09;}
	.st22{fill:#C28C4B;}
</style>
<g>
	<g>
		<g>
			<rect x="173.9" y="38" class="st0" width="180.3" height="31.2"/>
			<rect x="145.9" y="0" class="st0" width="28.6" height="498.2"/>
			<rect x="173.9" y="29.8" class="st1" width="180.3" height="31.2"/>
			<rect x="156" y="0" class="st1" width="28.6" height="498.2"/>
			<path class="st2" d="M170.3,40.6c2.7,0,4.9,2.2,4.9,4.9c0,2.7-2.2,4.9-4.9,4.9c-2.7,0-4.9-2.2-4.9-4.9
				C165.4,42.8,167.6,40.6,170.3,40.6"/>
			
				<rect x="155.1" y="72.3" transform="matrix(0.7071 -0.7071 0.7071 0.7071 0.4512 176.9608)" class="st1" width="117.4" height="31.2"/>
			<path class="st2" d="M244.1,40.6c2.7,0,4.9,2.2,4.9,4.9c0,2.7-2.2,4.9-4.9,4.9c-2.7,0-4.9-2.2-4.9-4.9
				C239.2,42.8,241.4,40.6,244.1,40.6"/>
			<path class="st2" d="M170.3,119.7c2.7,0,4.9,2.2,4.9,4.9c0,2.7-2.2,4.9-4.9,4.9c-2.7,0-4.9-2.2-4.9-4.9
				C165.4,121.9,167.6,119.7,170.3,119.7"/>
		</g>
		<g>
			<path class="st3" d="M293,72.1c0-3,2.5-5.5,5.5-5.5c3,0,5.5,2.5,5.5,5.5v89.7c0,3-2.5,5.5-5.5,5.5c-3,0-5.5-2.5-5.5-5.5V72.1z"/>
			<g>
				<path class="st3" d="M303.6,121.9c3.1-1.5,6.9-0.2,8.4,2.9c1.5,3.1,0.2,6.9-3,8.4l-14.6,7c-3.1,1.5-6.9,0.2-8.4-2.9
					c-1.5-3.1-0.2-6.9,3-8.4L303.6,121.9z"/>
				<path class="st3" d="M303,132.8c2.7-1.3,6-0.1,7.3,2.6c1.3,2.7,0.1,6-2.6,7.3l-12.7,6.1c-2.7,1.3-6,0.1-7.3-2.6
					c-1.3-2.7-0.2-6,2.6-7.3L303,132.8z"/>
				<path class="st3" d="M303,143.9c2.7-1.3,6-0.2,7.3,2.6c1.3,2.7,0.1,6-2.6,7.3l-12.7,6.1c-2.7,1.3-6,0.1-7.3-2.6
					c-1.3-2.7-0.2-6,2.6-7.3L303,143.9z"/>
				<path class="st3" d="M303,153.8c2.7-1.3,6-0.2,7.3,2.6c1.3,2.7,0.1,6-2.6,7.3l-12.7,6.1c-2.7,1.3-6,0.1-7.3-2.6
					c-1.3-2.7-0.2-6,2.6-7.3L303,153.8z"/>
			</g>
			<g>
				<path class="st3" d="M282.3,27.9c0.4-3,3.1-5.2,6.1-4.8c3,0.4,5.2,3.1,4.8,6.1l-5.4,43.6c-0.4,3-3.1,5.2-6.1,4.8
					c-3-0.4-5.2-3.1-4.8-6.1L282.3,27.9z"/>
				<path class="st3" d="M292,27.9c0.4-3,3.1-5.2,6.1-4.8c3,0.4,5.2,3.1,4.8,6.1l-5.4,43.6c-0.4,3-3.1,5.2-6.1,4.8
					c-3-0.4-5.2-3.1-4.8-6.1L292,27.9z"/>
				<path class="st3" d="M301.8,27.9c0.4-3,3.1-5.2,6.1-4.8c3,0.4,5.2,3.1,4.8,6.1l-5.4,43.6c-0.4,3-3.1,5.2-6.1,4.8
					c-3-0.4-5.2-3.1-4.8-6.1L301.8,27.9z"/>
				<path class="st3" d="M311.6,27.9c0.4-3,3.1-5.2,6.1-4.8c3,0.4,5.2,3.1,4.8,6.1l-5.4,43.6c-0.4,3-3.1,5.2-6.1,4.8
					c-3-0.4-5.2-3.1-4.8-6.1L311.6,27.9z"/>
			</g>
		</g>
	</g>
	<g>
		<g>
			<path class="st4" d="M261.9,242c0,0,37.5-7,73.2-0.9c0,0-8,68-10.8,82.5c0,0-28.1,7-52.5-0.5C271.7,323.2,261.4,255.2,261.9,242z
				"/>
			<path class="st5" d="M307.8,237.7c0,6.3-3.8,11.4-10,11.4l0,0c-6.2,0-10-5.1-10-11.4v-14.3c0-6.3,3.8-11.3,10-11.3l0,0
				c6.2,0,10,5.1,10,11.3V237.7z"/>
			<g>
				<path class="st6" d="M299.3,258c0,0.9-0.7,1.6-1.6,1.6c-0.9,0-1.6-0.7-1.6-1.6c0-0.9,0.7-1.6,1.6-1.6
					C298.5,256.4,299.3,257.1,299.3,258z"/>
				<path class="st6" d="M299.3,274.8c0,0.9-0.7,1.6-1.6,1.6c-0.9,0-1.6-0.7-1.6-1.6c0-0.9,0.7-1.6,1.6-1.6
					C298.5,273.2,299.3,273.9,299.3,274.8z"/>
				<path class="st6" d="M299.1,308.4c0,0.9-0.7,1.6-1.6,1.6c-0.9,0-1.6-0.7-1.6-1.6c0-0.9,0.7-1.6,1.6-1.6
					C298.4,306.8,299.1,307.5,299.1,308.4z"/>
				<path class="st6" d="M299.3,291.5c0,0.9-0.7,1.6-1.6,1.6c-0.9,0-1.6-0.7-1.6-1.6c0-0.9,0.7-1.6,1.6-1.6
					C298.5,289.9,299.3,290.7,299.3,291.5z"/>
			</g>
			<g>
				<path class="st7" d="M286.3,230.8l-8.9,9.4l7.5,19.7l12.7-10.8C297.5,249.1,287.7,238.8,286.3,230.8z"/>
				<path class="st7" d="M308.8,230.8l8.9,9.4l-7.5,19.7l-12.7-10.8C297.5,249.1,307.4,238.8,308.8,230.8z"/>
			</g>
			<path class="st3" d="M312.7,181.9c-4-5.8-9-9.9-14.2-9.9c-5.2,0-10.2,4.1-14.2,9.9c-5,7.3-8.1,16.9-8.1,24.7
				c0,6.9,2.5,13.1,6.7,17.6c4,4.4,9.6,7.1,15.7,7.1c6.1,0,11.6-2.7,15.7-7.1c4.1-4.5,6.7-10.7,6.7-17.6
				C320.8,198.8,317.7,189.2,312.7,181.9 M298.5,163c8.5,0,16.1,5.8,21.6,13.8c6,8.7,9.7,20.3,9.7,29.7c0,9.2-3.5,17.6-9,23.7
				c-5.7,6.2-13.6,10-22.3,10c-8.7,0-16.6-3.8-22.3-10c-5.6-6.1-9-14.5-9-23.7c0-9.5,3.8-21,9.7-29.7C282.4,168.8,290,163,298.5,163
				z"/>
		</g>
		<g>
			<g>
				<path class="st8" d="M324.7,210c0.1,8.9-9.5,16.2-15.8,19.5c-6.3,3.4-11.8,2.3-11.8,2.3c-25.1-5.7-23.3-17.7-24.8-27.6
					c-0.7-4.9-1.3-14,0.8-25.2c0.3-1.5,0.8-2.9,1.4-4.2c3.9-8.1,13.1-11.3,13.1-11.3c5.5-1.9,11.8-2.3,17.5-1.3
					c8.2,1.5,14.7,5.8,16.8,14.2c0.7,2.7,1,5.5,1.4,8.3c0.7,5.7,1.1,11.5,1.3,17.2C324.6,204.7,324.6,207.3,324.7,210z"/>
			</g>
			<path class="st9" d="M298.3,185c0,0-1.9-1.7-1.9,4.9c0.1,6.5,0.9,13.4,0.9,13.4s-4.5-2.2-2.8,1.3c0.9,1.9,2.8,2.8,4.8,3.2
				c1.7,0.3,2.9-0.3,4-1.5c0.5-0.5,3-3.4,2.1-4.2c-0.4-0.4-2.7,0.8-3.3,0.9C302,203,301.4,183.4,298.3,185z"/>
			<path class="st10" d="M305.8,180.4c0,0,11.4-2.3,15,6.1c0,0-12.7-3.8-15.1-1.9L305.8,180.4z"/>
			<path class="st10" d="M292.1,181.4c0,0-11.2-3-15.3,5.1c0,0,12.9-3,15.2-1L292.1,181.4z"/>
			<g>
				<path class="st6" d="M306.3,192.4c0.6-1.3,1.6-2.5,3-3.3c0.6-0.4,1.3-0.6,2-0.7c2.7-0.5,5.5,0.6,6.8,3.1c1.7,3.1,0.5,7-2.7,8.7
					c-3.2,1.7-7.1,0.7-8.8-2.4C305.6,196.1,305.6,194.1,306.3,192.4z"/>
				<g>
					<path class="st11" d="M306.7,194.7c-0.3-0.8-0.4-1.5-0.4-2.3c0.6-1.3,1.6-2.5,3-3.3c0.6-0.4,1.3-0.6,2-0.7
						c1.3,0.5,2.5,1.7,3.2,3.4c1,2.7,0.1,5.6-2,6.4c-0.7,0.3-1.5,0.3-2.3,0c-0.4-0.1-0.9-0.4-1.3-0.6
						C307.9,196.9,307.2,195.9,306.7,194.7z"/>
					<path class="st10" d="M307.8,194.3c-0.7-1.9-0.1-4,1.4-4.5c1.5-0.6,3.3,0.6,4,2.5c0.7,1.9,0.1,4-1.4,4.5
						C310.3,197.3,308.5,196.2,307.8,194.3z"/>
					<path class="st6" d="M308.9,197.7c-0.2-0.5,0.3-1.2,1.1-1.5c0.8-0.3,1.6-0.1,1.8,0.4c0.2,0.5-0.3,1.2-1,1.5
						C309.9,198.4,309.1,198.2,308.9,197.7z"/>
				</g>
			</g>
			<g>
				<path class="st6" d="M280.5,192.1c0.6-1.3,1.7-2.4,3.1-3.1c0.6-0.3,1.3-0.5,2-0.6c2.7-0.4,5.4,0.9,6.7,3.4
					c1.5,3.2,0.1,7-3.1,8.6c-3.3,1.6-7.1,0.3-8.7-2.8C279.6,195.8,279.7,193.8,280.5,192.1z"/>
				<g>
					<path class="st11" d="M280.8,194.4c-0.2-0.8-0.3-1.6-0.3-2.3c0.6-1.3,1.7-2.4,3.1-3.1c0.6-0.3,1.3-0.5,2-0.6
						c1.3,0.6,2.5,1.9,3,3.6c0.9,2.8-0.2,5.6-2.3,6.3c-0.7,0.2-1.5,0.2-2.3-0.1c-0.4-0.2-0.8-0.4-1.2-0.7
						C281.9,196.7,281.2,195.7,280.8,194.4z"/>
					<path class="st10" d="M281.9,194.1c-0.6-2,0.1-4,1.6-4.4c1.5-0.5,3.3,0.7,3.9,2.7c0.6,2-0.1,4-1.6,4.4
						C284.3,197.2,282.5,196,281.9,194.1z"/>
					<path class="st6" d="M282.8,197.5c-0.2-0.5,0.3-1.2,1.1-1.4c0.8-0.3,1.6,0,1.7,0.5c0.2,0.5-0.3,1.2-1.1,1.4
						C283.7,198.2,283,198,282.8,197.5z"/>
				</g>
			</g>
			<path class="st12" d="M332.9,159.6c-1.5,2.1-3.9,4.1-6.5,4.6c2.1-2.3,4.2-5.3,3.8-8.5c0-0.1-0.2-0.3-0.3-0.2
				c-0.4,0.2-0.8,0.6-1.1,0.9c-2,1.8-5.1,1.7-7.5,0.9c-4.1-1.5-7.5-4.3-11.2-6.6c-4-2.4-8.5-3.9-13.3-3.6c-2.6,0.1-5.1,0.6-7.5,1.5
				c-5.9,2.2-12.9,6.3-14.5,12.9c-0.2,0.9-0.3,1.8-0.3,2.8c0,0.6,0.5,2.3,0.3,2.8c-0.1,0.2,0.1,0.5,0.3,0.3c0.1,0,0.2,0,0.2-0.1
				c0-0.1,0.1-0.2,0.1-0.2c2.8-2.2,7.4,6.5,9.1,8c6.5,5.4,15.8,6.2,23.5,4.1c8.6-2.4,18.2-8.3,23.1-15.5c0.8-1.2,1.6-2.4,2.2-3.7
				C333.4,159.6,333,159.4,332.9,159.6z"/>
			<g>
				<g>
					<path class="st13" d="M323.6,191.3c0,0,5.5-12.4,10-2.6c3.6,7.8-2.4,15.4-7.3,14.9C321.5,203,323.6,191.3,323.6,191.3z"/>
					<path class="st5" d="M324,193.2c0,0,4.1-8,6.2-5.1c2.1,2.9,2.1,6.8,2.1,6.8s-1.5-4.1-4.5-1.4c0,0,4,6.5-2.6,5.1
						C325.1,198.7,322.3,196.8,324,193.2z"/>
				</g>
			</g>
			<path class="st12" d="M281.2,165.1c0,0,0.6,10.2-3.6,15.1c-4.2,4.9-4.6,15-4.6,15s-15.5-19.7,2.1-31.2
				C275.1,163.9,278.6,162.5,281.2,165.1z"/>
			<path class="st12" d="M315.2,169.1c0,0,7.1,9.5,8.7,23.2c0,0,10.1-15,0.5-27.7C324.4,164.6,313.8,160.2,315.2,169.1z"/>
			<g>
				<g>
					<path class="st13" d="M273.3,193.2c0,0-5.5-12.4-10-2.6c-3.6,7.8,2.4,15.4,7.3,14.9C275.4,204.9,273.3,193.2,273.3,193.2z"/>
					<path class="st5" d="M273,195.1c0,0-4.1-8-6.2-5.1c-2.1,2.9-2.1,6.8-2.1,6.8s1.5-4.1,4.5-1.4c0,0-3.9,6.5,2.6,5.1
						C271.8,200.5,274.7,198.7,273,195.1z"/>
				</g>
			</g>
			<g>
				<g>
					<path class="st14" d="M289.3,190c-2.3-0.4-4.6-0.4-6.7-0.4c-1.4,2.3-2.6,4.7-3.7,7.1c-0.7,1.8-1.4,3.7-1.8,5.6
						c2.1,1.9,4.9,2.5,7.7,2.6C285.9,199.9,286.6,194.3,289.3,190z"/>
					<path class="st14" d="M318,189.5c-2.3-0.1-4.6,0-6.7,0.3c-1.1,2.4-2.2,4.9-3,7.4c-0.6,1.8-1.1,3.8-1.3,5.8
						c2.3,1.7,5.1,2.1,7.9,1.8C315.5,199.6,315.6,194,318,189.5z"/>
				</g>
				<path class="st15" d="M323.6,198.3c2.2-6.6,1.6-9.4,1.5-9.7l-0.1-0.5l-0.5-0.2c-0.4-0.2-9.9-3.9-20.2,0.8
					c-1.1,0.5-2.2,1.1-3.2,1.8l0-0.2l-3.8,0.1l-0.1-0.2l-0.5-0.3c-1.1-0.6-2.3-1.1-3.4-1.6c-10.6-4-19.9,0.4-20.3,0.5l-0.5,0.2
					l-0.1,0.5c-0.1,0.3-0.5,3.1,2.1,9.5c1,2.3,2.8,4,5.3,5c3.1,1.2,6.3,0.9,6.5,0.9c7.5-0.8,8.8-4.4,9.6-6.8c0-0.1,0.1-0.3,0.1-0.4
					c0.6-1.6,0.9-3.1,1.1-4.2c0.7-0.3,1.8-0.5,3.4,0.1c0.2,1.2,0.6,2.8,1.4,4.7c0.1,0.1,0.1,0.2,0.2,0.4c1,2.3,2.6,5.8,10.1,6.2
					c0.2,0,3.4,0.1,6.4-1.3C321.1,202.4,322.8,200.6,323.6,198.3z M286,202.8c0,0-2.8,0.2-5.5-0.7c-2-0.7-3.4-2-4.1-3.7
					c-1.8-4.2-2-6.7-2-7.7c2.1-0.8,9.7-3.3,18-0.2c0.9,0.3,1.8,0.7,2.6,1.2c0,0.9-0.1,2.9-1.1,5.5c0,0.1-0.1,0.3-0.2,0.4
					C293,199.7,292.1,202.1,286,202.8z M317.6,201.5c-2.6,1.2-5.4,1.1-5.4,1.1c-6.1-0.3-7.2-2.7-8.1-4.8c-0.1-0.1-0.1-0.3-0.2-0.4
					c-1.1-2.5-1.4-4.5-1.4-5.4c0.8-0.5,1.7-0.9,2.5-1.3c8-3.6,15.8-1.6,18-0.9c0,1,0,3.5-1.5,7.8
					C320.9,199.3,319.6,200.7,317.6,201.5z"/>
			</g>
			<path class="st16" d="M309.8,217.2c0,0-11.5-15.9-18,1.7C291.9,218.8,296.8,208.8,309.8,217.2z"/>
		</g>
		<g>
			<g>
				<g>
					<g>
						<g>
							<path class="st17" d="M332.1,506l-24.9-2.8c1.2-1.9,1.8-6.3,2.1-10.5c0.4-5.8,0.3-12,0.3-12s16.4-4,16.4,0
								c0,2,0.9,7.6,2.1,12C329.9,499.4,332.1,506,332.1,506z"/>
							<path class="st17" d="M332.6,507.8c0,0.1,0-0.3,0-0.2c-0.1,1.4-0.4,1.2-1,3.3h-26.1c-0.6-2-1-1.9-1-3.3c0-0.1,0,0,0-0.1
								c0-6.2,6.3-11.1,14.1-11.1C326.3,496.4,332.6,501.6,332.6,507.8z"/>
						</g>
						<path class="st18" d="M309.3,494.8c0.4-8,0.3-14,0.3-14s16.4-4,16.4,0c0,2,0.9,6,2.1,14H309.3z"/>
					</g>
					<path class="st19" d="M332.6,505.8c-0.1,0-0.4,2-1,4h-26.1c-0.6-2-1-4-1-4H332.6z"/>
				</g>
				<path class="st20" d="M323.2,498.4c-1.9-2.7-6.6-1.7-8.7,0.1c-0.3,0.3,0,0.7,0.4,0.6c1.4-0.2,2.5-0.9,3.9-1
					c1.5-0.1,2.7,0.8,4.1,1C323.2,499.1,323.4,498.7,323.2,498.4z"/>
				<path class="st20" d="M322.4,501.2c-2.2-1.5-6.4-2-8.3,0.2c-0.3,0.3,0,0.8,0.4,0.7c1.3-0.4,2.7-0.5,4-0.5c1.3,0,2.4,1,3.7,0.6
					C322.8,502.1,322.8,501.5,322.4,501.2z"/>
			</g>
			<g>
				<g>
					<g>
						<path class="st17" d="M290,507.5c-0.2,1.5-0.4,2.7-0.7,3.6c0,0-39.6,1.7-42.4,0.5c-0.4-0.2-0.3-0.6,0.2-1.2
							c0.1-0.4,0.3-0.9,0.5-1.5c1.4-3.4,5.2-8.6,15.9-8c1.9-0.9,3.4-1.7,4.3-2.2c1.3-0.7,2.3-2.6,3.1-4.8c1.6-4.9,1.9-11.9,1.6-13.3
							l16.8,0.2c0,0,0.6,6.2,0.9,13.1C290.4,498.7,290.4,503.8,290,507.5z"/>
						<path class="st18" d="M270.9,494.8c1.6-8,1.9-12.3,1.6-13.8l16.8,0.4c0,0,0.6,5.3,0.9,13.3H270.9z"/>
					</g>
					<path class="st19" d="M290,507.5c-0.2,1.5-0.4,2.7-0.7,3.6c0,0-39.6,1.7-42.4,0.5c-0.4-0.2-0.3-0.6,0.2-1.2
						c0.1-0.4,0.3-0.9,0.5-1.5C254.5,508.9,279.4,508.9,290,507.5z"/>
				</g>
				<path class="st20" d="M267.7,501.8c-0.6-1.9-3.7-2.7-5.4-1.5c-0.2,0.1-0.2,0.3,0,0.5c0.7,0.4,1.6,0.2,2.4,0.3
					c0.9,0.2,1.2,0.9,1.9,1.3C267,502.8,267.9,502.4,267.7,501.8z"/>
				<path class="st20" d="M273.5,499.4c-0.5-1.3-2.1-2.3-3.6-2.4c-1.1-0.1-3.3,0.3-3,1.6c0,0.1,0.2,0.2,0.3,0.2c0.7,0,1.3-0.4,2-0.4
					c0.8,0,1.6,0.5,2.2,1c0.5,0.5,0.7,1,1.5,1.1C273.4,500.6,273.6,499.7,273.5,499.4z"/>
			</g>
			<g>
				<path class="st17" d="M269.7,491h21.8l6.2-133.4c0.7,0.1,1.4,0.1,2.2,0.2l7.8,132.3h21.7c0.1-16.7,1-142.7-4.7-171.6l-52.5-0.5
					C272.5,319.4,269.4,438.9,269.7,491z"/>
				<path class="st21" d="M319,326.1l6.1-0.1l-0.5-7.5l-6-0.1C318.8,321,318.9,323.5,319,326.1z"/>
				<path class="st21" d="M313.1,318.4l-26.8-0.2c0.1,2.8,0.2,5.7,0.3,8.5l27-0.5C313,323.7,313.1,321,313.1,318.4z"/>
				<path class="st21" d="M279.8,318.1l-7.7-0.1v8.9l8.5-0.1C279.8,324.1,279.7,321,279.8,318.1z"/>
				<rect x="292.9" y="316.3" class="st22" width="10" height="12"/>
			</g>
		</g>
		<g>
			<path class="st13" d="M361.1,361.7c-0.2-0.8-0.2-1.6-0.3-2.4l-9-1.4c-0.1,1.3-0.2,2.6-0.3,3.9c-1.8,1.2-4.5,3.9-4.6,7.6
				c-0.1,3.5-4.4,6.8-4.7,8c2.8,2,4.9-0.9,6.7-4c0.8-1.4,1.5-1.7,2-1.5c0,0.8,0,1.3,0,1.3c0,0.1,0,0.3-0.1,0.4
				c-0.7,2.7-1.2,5.3-1.7,8c-0.2,1.3-0.5,2.6,0.2,3.9c0.1,0.2,0.5,0.3,0.7,0.2c1.8-0.9,2.3-3,2.7-4.7c0.3-1.1,0.6-2.1,0.8-3.1
				c-0.1,2-0.4,4-0.8,5.9c-0.4,1.8-0.9,3.9-0.1,5.7c0.8,1.7,1.7,0.9,2.3-0.2c0,0.2,0,0.4,0,0.6c0,0.5,0.6,0.7,1,0.5
				c5.4-2.7,6.1-11.5,5.2-17.1c4,2.8,0.5,7.5,1.9,10.9c0.1,0.2,0.4,0.4,0.7,0.2c3.8-2.7,2-10,0.9-13.7
				C363.8,367.9,361.7,364.7,361.1,361.7z"/>
			<path class="st4" d="M365.5,365.1c2.8-97.5-30.5-124-30.5-124c-6.9,7-5.9,39.3-5.9,39.3c9.9,13.5,15.8,65.5,17.7,84.7H365.5z"/>
		</g>
		<g>
			<path class="st13" d="M235.9,362.3c0.2-0.8,0.2-1.6,0.3-2.4l9-1.4c0.1,1.3,0.2,2.6,0.3,3.9c1.8,1.2,4.5,3.9,4.6,7.6
				c0.1,3.5,4.4,6.8,4.7,8c-2.8,2-4.9-0.9-6.7-4c-0.8-1.4-1.5-1.7-2-1.5c0,0.8,0,1.3,0,1.3c0,0.1,0,0.3,0.1,0.4
				c0.7,2.7,1.2,5.3,1.7,8c0.2,1.3,0.5,2.6-0.2,3.9c-0.1,0.2-0.5,0.3-0.7,0.2c-1.8-0.9-2.3-3-2.7-4.7c-0.3-1.1-0.6-2.1-0.8-3.1
				c0.1,2,0.4,4,0.8,5.9c0.4,1.8,0.9,3.9,0.1,5.7c-0.8,1.7-1.7,0.9-2.3-0.2c0,0.2,0,0.4,0,0.6c0,0.5-0.6,0.7-1,0.5
				c-5.4-2.7-6.1-11.5-5.2-17.1c-4,2.8-0.5,7.5-1.9,10.9c-0.1,0.2-0.4,0.4-0.7,0.2c-3.8-2.7-2-10-0.9-13.7
				C233.3,368.4,235.4,365.3,235.9,362.3z"/>
			<path class="st4" d="M231.5,365.7c-2.8-97.5,30.5-124,30.5-124c6.9,7,5.9,39.3,5.9,39.3c-9.9,13.5-15.8,65.5-17.7,84.7H231.5z"/>
		</g>
	</g>
</g>
</svg>
