<svg aria-hidden="true" focusable="false" role="img" xmlns="http://www.w3.org/2000/svg" viewBox="0 0 512 512">
<style type="text/css">
	.st0{fill-rule:evenodd;clip-rule:evenodd;fill:#614830;}
	.st1{fill-rule:evenodd;clip-rule:evenodd;fill:#76593C;}
	.st2{fill-rule:evenodd;clip-rule:evenodd;fill:#402020;}
	.st3{fill:#BAA466;stroke:#76593C;stroke-miterlimit:10;}
	.st4{fill:#EBE6E2;}
	.st5{fill:#D8826C;}
	.st6{fill:#FFFFFF;}
	.st7{fill:#F5F0EB;}
	.st8{fill:#F5AE94;}
	.st9{fill:#DD876C;}
	.st10{fill:#0D0D0C;}
	.st11{fill:#5C8696;}
	.st12{fill:#242422;}
	.st13{fill:#F0A98F;}
	.st14{opacity:0.4;fill:#EAECED;}
	.st15{fill:#5C311E;}
	.st16{fill:#D5503B;}
	.st17{fill:#22272E;}
	.st18{fill:#617085;}
	.st19{fill:#515D6E;stroke:#515D6E;stroke-miterlimit:10;}
	.st20{fill:#515D6E;}
	.st21{fill:#8C4C09;}
	.st22{fill:#C28C4B;}
</style>
<g>
	<g>
		<g>
			<rect x="174.5" y="37.3" class="st0" width="177.2" height="30.7"/>
			<rect x="147" class="st0" width="28.1" height="489.6"/>
			<rect x="174.5" y="29.3" class="st1" width="177.2" height="30.7"/>
			<rect x="156.9" class="st1" width="28.1" height="489.6"/>
			<path class="st2" d="M170.9,39.9c2.6,0,4.8,2.1,4.8,4.8s-2.1,4.8-4.8,4.8c-2.7,0-4.8-2.1-4.8-4.8S168.3,39.9,170.9,39.9"/>
			
				<rect x="156.1" y="71.1" transform="matrix(0.7071 -0.7071 0.7071 0.7071 1.4951 176.4551)" class="st1" width="115.4" height="30.7"/>
			<path class="st2" d="M243.5,39.9c2.6,0,4.8,2.1,4.8,4.8s-2.1,4.8-4.8,4.8s-4.8-2.1-4.8-4.8S240.8,39.9,243.5,39.9"/>
			<path class="st2" d="M170.9,117.6c2.6,0,4.8,2.1,4.8,4.8c0,2.6-2.1,4.8-4.8,4.8c-2.7,0-4.8-2.1-4.8-4.8
				C166.1,119.8,168.3,117.6,170.9,117.6"/>
		</g>
		<g>
			<path class="st3" d="M291.5,70.9c0-3,2.4-5.4,5.4-5.4c3,0,5.4,2.4,5.4,5.4V159c0,3-2.4,5.4-5.4,5.4c-3,0-5.4-2.4-5.4-5.4V70.9z"
				/>
			<g>
				<path class="st3" d="M301.9,119.8c3.1-1.5,6.7-0.2,8.2,2.9c1.5,3.1,0.2,6.7-2.9,8.2l-14.3,6.9c-3.1,1.5-6.7,0.2-8.2-2.9
					c-1.5-3.1-0.2-6.7,2.9-8.2L301.9,119.8z"/>
				<path class="st3" d="M301.4,130.6c2.7-1.3,5.9-0.1,7.2,2.5c1.3,2.7,0.1,5.9-2.5,7.2l-12.5,6c-2.7,1.3-5.9,0.1-7.2-2.5
					c-1.3-2.7-0.1-5.9,2.5-7.2L301.4,130.6z"/>
				<path class="st3" d="M301.4,141.4c2.7-1.3,5.9-0.1,7.2,2.5c1.3,2.7,0.1,5.9-2.5,7.2l-12.5,6c-2.7,1.3-5.9,0.1-7.2-2.5
					c-1.3-2.7-0.1-5.9,2.5-7.2L301.4,141.4z"/>
				<path class="st3" d="M301.4,151.1c2.7-1.3,5.9-0.1,7.2,2.5c1.3,2.7,0.1,5.9-2.5,7.2l-12.5,6c-2.7,1.3-5.9,0.1-7.2-2.5
					c-1.3-2.7-0.1-5.9,2.5-7.2L301.4,151.1z"/>
			</g>
			<g>
				<path class="st3" d="M281,27.4c0.4-3,3.1-5.1,6-4.7c3,0.4,5.1,3.1,4.7,6l-5.3,42.8c-0.4,3-3.1,5.1-6,4.7c-3-0.4-5.1-3.1-4.7-6
					L281,27.4z"/>
				<path class="st3" d="M290.5,27.4c0.4-3,3.1-5.1,6-4.7c3,0.4,5.1,3.1,4.7,6L296,71.5c-0.4,3-3.1,5.1-6,4.7c-3-0.4-5.1-3.1-4.7-6
					L290.5,27.4z"/>
				<path class="st3" d="M300.2,27.4c0.4-3,3.1-5.1,6-4.7c3,0.4,5.1,3.1,4.7,6l-5.3,42.8c-0.4,3-3.1,5.1-6,4.7c-3-0.4-5.1-3.1-4.7-6
					L300.2,27.4z"/>
				<path class="st3" d="M309.8,27.4c0.4-3,3.1-5.1,6-4.7c3,0.4,5.1,3.1,4.7,6l-5.3,42.8c-0.4,3-3.1,5.1-6,4.7c-3-0.4-5.1-3.1-4.7-6
					L309.8,27.4z"/>
			</g>
		</g>
	</g>
	<g>
		<g>
			<path class="st4" d="M262.6,238.5c0,0,36.9-6.9,71.9-0.9c0,0-7.8,66.8-10.6,81.1c0,0-27.7,6.9-51.6-0.5
				C272.3,318.2,262.2,251.4,262.6,238.5z"/>
			<path class="st5" d="M307.7,234.2c0,6.2-3.7,11.2-9.9,11.2l0,0c-6.1,0-9.8-5-9.8-11.2v-14.1c0-6.2,3.7-11.2,9.8-11.2l0,0
				c6.1,0,9.9,5,9.9,11.2V234.2z"/>
			<g>
				<path class="st6" d="M299.3,254.1c0,0.9-0.7,1.6-1.6,1.6c-0.9,0-1.6-0.7-1.6-1.6c0-0.9,0.7-1.6,1.6-1.6
					C298.6,252.5,299.3,253.3,299.3,254.1z"/>
				<path class="st6" d="M299.3,270.7c0,0.9-0.7,1.6-1.6,1.6c-0.9,0-1.6-0.7-1.6-1.6c0-0.9,0.7-1.6,1.6-1.6
					C298.6,269.1,299.3,269.8,299.3,270.7z"/>
				<path class="st6" d="M299.2,303.7c0,0.9-0.7,1.6-1.6,1.6c-0.9,0-1.6-0.7-1.6-1.6c0-0.9,0.7-1.6,1.6-1.6
					C298.5,302.1,299.2,302.8,299.2,303.7z"/>
				<path class="st6" d="M299.3,287.1c0,0.9-0.7,1.6-1.6,1.6c-0.9,0-1.6-0.7-1.6-1.6c0-0.9,0.7-1.6,1.6-1.6
					C298.6,285.5,299.3,286.2,299.3,287.1z"/>
			</g>
			<g>
				<path class="st7" d="M286.6,227.4l-8.8,9.2l7.4,19.4l12.4-10.6C297.6,245.4,288,235.2,286.6,227.4z"/>
				<path class="st7" d="M308.7,227.4l8.8,9.2l-7.4,19.4l-12.4-10.6C297.6,245.4,307.3,235.2,308.7,227.4z"/>
			</g>
			<path class="st3" d="M310.9,178.8c-3.9-5.7-8.8-9.7-13.9-9.7c-5.1,0-10.1,4.1-14,9.7c-4.9,7.1-8,16.6-8,24.2
				c0,6.8,2.5,12.9,6.5,17.3c4,4.3,9.4,7,15.4,7c6,0,11.4-2.7,15.4-7c4-4.4,6.5-10.5,6.5-17.3C318.9,195.3,315.8,185.9,310.9,178.8
				 M296.9,160.2c8.4,0,15.8,5.7,21.2,13.6c5.9,8.5,9.5,19.9,9.5,29.2c0,9.1-3.4,17.3-8.9,23.3c-5.6,6.1-13.3,9.8-21.9,9.8
				c-8.6,0-16.3-3.8-21.9-9.8c-5.5-6-8.9-14.2-8.9-23.3c0-9.3,3.7-20.7,9.5-29.2C281.2,165.9,288.6,160.2,296.9,160.2z"/>
		</g>
		<g>
			<g>
				<path class="st8" d="M323.4,208.5c0.1,8.8-9.3,15.9-15.5,19.2c-6.2,3.3-11.6,2.2-11.6,2.2c-24.7-5.6-22.9-17.3-24.3-27.1
					c-0.7-4.8-1.3-13.7,0.8-24.8c0.3-1.5,0.8-2.9,1.3-4.1c3.8-8,12.9-11.1,12.9-11.1c5.4-1.9,11.6-2.3,17.2-1.3
					c8.1,1.5,14.5,5.7,16.5,14c0.7,2.7,1,5.4,1.4,8.1c0.7,5.6,1.1,11.3,1.3,16.9C323.3,203.3,323.3,205.9,323.4,208.5z"/>
			</g>
			<path class="st9" d="M297.4,184c0,0-1.9-1.7-1.8,4.8c0.1,6.4,0.9,13.2,0.9,13.2s-4.4-2.2-2.8,1.3c0.9,1.9,2.8,2.7,4.7,3.1
				c1.7,0.3,2.9-0.3,3.9-1.4c0.5-0.5,2.9-3.4,2-4.2c-0.4-0.4-2.7,0.7-3.3,0.9C301.1,201.7,300.5,182.4,297.4,184z"/>
			<path class="st10" d="M304.8,179.5c0,0,11.2-2.2,14.7,6c0,0-12.5-3.8-14.9-1.9L304.8,179.5z"/>
			<path class="st10" d="M291.4,180.4c0,0-11-2.9-15,5.1c0,0,12.7-3,15-1L291.4,180.4z"/>
			<g>
				<path class="st6" d="M315.6,198c-1.1,1-2.4,1.6-4,1.7c-0.7,0.1-1.4,0-2-0.2c-2.6-0.6-4.6-2.9-4.8-5.6c-0.2-3.4,2.5-6.4,6-6.6
					c3.5-0.2,6.6,2.3,6.8,5.8C317.8,195,317,196.8,315.6,198z"/>
				<g>
					<path class="st11" d="M316.2,195.8c-0.1,0.8-0.3,1.6-0.6,2.2c-1.1,1-2.4,1.6-4,1.7c-0.7,0.1-1.4,0-2-0.2c-1-1-1.5-2.6-1.4-4.4
						c0.2-2.8,2.2-5,4.4-4.8c0.8,0.1,1.5,0.4,2,0.9c0.3,0.3,0.6,0.7,0.8,1.1C316,193.3,316.3,194.5,316.2,195.8z"/>
					<path class="st10" d="M315,195.7c-0.2,2-1.6,3.6-3.1,3.4c-1.6-0.1-2.7-1.9-2.6-3.9c0.2-2,1.6-3.6,3.1-3.4
						C314.1,191.9,315.2,193.7,315,195.7z"/>
					<path class="st6" d="M315.5,192.2c0,0.5-0.7,0.9-1.6,0.9c-0.8-0.1-1.4-0.6-1.4-1.1c0-0.6,0.7-0.9,1.5-0.9
						C314.9,191.2,315.5,191.7,315.5,192.2z"/>
				</g>
			</g>
			<g>
				<path class="st6" d="M290.1,198c-1,1-2.4,1.6-4,1.7c-0.7,0.1-1.4,0-2-0.2c-2.6-0.6-4.6-2.9-4.8-5.6c-0.2-3.4,2.5-6.4,6-6.6
					c3.6-0.2,6.6,2.3,6.8,5.8C292.3,195,291.5,196.8,290.1,198z"/>
				<g>
					<path class="st11" d="M290.7,195.8c-0.1,0.8-0.3,1.6-0.6,2.2c-1,1-2.4,1.6-4,1.7c-0.7,0.1-1.4,0-2-0.2c-1-1-1.5-2.6-1.4-4.4
						c0.2-2.8,2.2-5,4.4-4.8c0.8,0.1,1.5,0.4,2,0.9c0.3,0.3,0.6,0.7,0.8,1.1C290.6,193.3,290.8,194.5,290.7,195.8z"/>
					<path class="st10" d="M289.6,195.7c-0.2,2-1.6,3.6-3.1,3.4c-1.6-0.1-2.7-1.9-2.6-3.9c0.2-2,1.6-3.6,3.1-3.4
						C288.6,191.9,289.7,193.7,289.6,195.7z"/>
					<path class="st6" d="M290,192.2c0,0.5-0.7,0.9-1.5,0.9c-0.8-0.1-1.4-0.6-1.4-1.1c0-0.6,0.7-0.9,1.5-0.9
						C289.4,191.2,290.1,191.7,290,192.2z"/>
				</g>
			</g>
			<path class="st12" d="M331.4,159.1c-1.5,2-3.9,4-6.4,4.5c2.1-2.2,4.1-5.2,3.8-8.4c0-0.1-0.2-0.3-0.3-0.2
				c-0.4,0.2-0.8,0.6-1.1,0.9c-1.9,1.8-5.1,1.7-7.4,0.9c-4-1.4-7.4-4.3-11-6.5c-4-2.4-8.4-3.8-13.1-3.6c-2.5,0.1-5,0.6-7.4,1.5
				c-5.8,2.1-12.7,6.2-14.2,12.7c-0.2,0.9-0.3,1.8-0.3,2.7c0,0.6,0.5,2.3,0.3,2.7c-0.1,0.2,0.1,0.5,0.3,0.3c0.1,0,0.2,0,0.2-0.1
				c0-0.1,0.1-0.2,0.1-0.2c2.7-2.2,7.3,6.4,8.9,7.8c6.4,5.3,15.5,6.1,23,4c8.5-2.3,17.8-8.2,22.7-15.3c0.8-1.2,1.6-2.3,2.2-3.6
				C331.9,159.1,331.6,158.9,331.4,159.1z"/>
			<g>
				<g>
					<path class="st13" d="M322.3,190.2c0,0,5.4-12.2,9.8-2.6c3.5,7.7-2.4,15.2-7.1,14.6C320.3,201.7,322.3,190.2,322.3,190.2z"/>
					<path class="st5" d="M322.7,192.1c0,0,4-7.8,6.1-5c2.1,2.8,2.1,6.7,2.1,6.7s-1.5-4.1-4.4-1.4c0,0,3.9,6.4-2.6,5.1
						C323.8,197.4,321,195.6,322.7,192.1z"/>
				</g>
			</g>
			<path class="st12" d="M280.6,164.4c0,0,0.6,10-3.5,14.8c-4.1,4.8-4.5,14.7-4.5,14.7s-15.2-19.4,2.1-30.7
				C274.7,163.3,278.1,161.9,280.6,164.4z"/>
			<path class="st12" d="M314.1,168.3c0,0,7,9.4,8.5,22.8c0,0,9.9-14.7,0.5-27.2C323.1,164,312.7,159.6,314.1,168.3z"/>
			<g>
				<g>
					<path class="st13" d="M272.9,192.1c0,0-5.4-12.2-9.8-2.6c-3.5,7.7,2.4,15.2,7.1,14.6C275,203.6,272.9,192.1,272.9,192.1z"/>
					<path class="st5" d="M272.6,194c0,0-4-7.8-6.1-5c-2.1,2.8-2.1,6.7-2.1,6.7s1.5-4.1,4.4-1.4c0,0-3.9,6.4,2.6,5.1
						C271.4,199.3,274.2,197.5,272.6,194z"/>
				</g>
			</g>
			<g>
				<g>
					<path class="st14" d="M288.6,188.9c-2.3-0.3-4.5-0.4-6.6-0.4c-1.4,2.3-2.6,4.6-3.6,7c-0.7,1.7-1.4,3.6-1.8,5.5
						c2.1,1.9,4.8,2.5,7.5,2.5C285.2,198.6,285.9,193.1,288.6,188.9z"/>
					<path class="st14" d="M316.8,188.4c-2.3-0.1-4.5,0-6.6,0.3c-1.1,2.4-2.1,4.8-2.9,7.3c-0.6,1.8-1.1,3.7-1.2,5.7
						c2.2,1.7,5,2,7.7,1.8C314.3,198.4,314.5,192.8,316.8,188.4z"/>
				</g>
				<path class="st15" d="M322.3,197c2.2-6.5,1.6-9.2,1.5-9.5l-0.1-0.5l-0.5-0.2c-0.4-0.2-9.8-3.8-19.9,0.8
					c-1.1,0.5-2.1,1.1-3.1,1.7l0-0.2l-3.7,0.1l-0.1-0.2l-0.5-0.3c-1.1-0.6-2.2-1.1-3.4-1.6c-10.4-3.9-19.6,0.3-20,0.5L272,188
					l-0.1,0.5c-0.1,0.3-0.5,3.1,2.1,9.4c0.9,2.3,2.7,3.9,5.2,4.9c3.1,1.2,6.2,0.9,6.4,0.9c7.3-0.8,8.6-4.3,9.5-6.7
					c0-0.1,0.1-0.3,0.1-0.4c0.6-1.6,0.9-3,1.1-4.2c0.7-0.3,1.8-0.5,3.3,0.1c0.2,1.2,0.6,2.8,1.4,4.6c0.1,0.1,0.1,0.2,0.2,0.4
					c1,2.3,2.5,5.7,9.9,6.1c0.1,0,3.3,0.1,6.3-1.3C319.8,201.1,321.5,199.4,322.3,197z M285.4,201.5c0,0-2.8,0.2-5.4-0.7
					c-2-0.7-3.3-2-4-3.7c-1.7-4.2-2-6.6-2-7.6c2.1-0.8,9.6-3.3,17.7-0.2c0.9,0.3,1.7,0.7,2.6,1.1c0,0.9-0.1,2.9-1.1,5.4
					c0,0.1-0.1,0.3-0.1,0.4C292.2,198.4,291.3,200.9,285.4,201.5z M316.5,200.3c-2.5,1.1-5.3,1.1-5.3,1.1c-6-0.3-7-2.7-8-4.8
					c-0.1-0.1-0.1-0.3-0.2-0.4c-1.1-2.5-1.4-4.4-1.4-5.3c0.8-0.5,1.6-0.9,2.5-1.3c7.9-3.6,15.5-1.6,17.7-0.9c0,1,0,3.4-1.5,7.7
					C319.6,198.1,318.4,199.4,316.5,200.3z"/>
			</g>
			<path class="st16" d="M308.8,215.7c0,0-11.1-15.7-17.7,1.4C291.1,217.1,296.1,207.3,308.8,215.7z"/>
		</g>
		<g>
			<g>
				<g>
					<g>
						<path class="st17" d="M290.2,499.4c-0.2,1.5-0.4,2.7-0.7,3.5c0,0-38.9,1.7-41.7,0.4c-0.4-0.2-0.3-0.6,0.2-1.1
							c0.1-0.4,0.3-0.9,0.5-1.5c1.4-3.3,5.1-8.5,15.6-7.8c1.8-0.9,3.4-1.7,4.3-2.2c1.3-0.7,2.3-2.5,3-4.8c1.6-4.9,1.8-11.7,1.6-13.1
							l16.5,0.2c0,0,0.6,6.1,0.9,12.9C290.6,490.7,290.6,495.8,290.2,499.4z"/>
						<path class="st18" d="M271.4,486.8c1.6-7.9,1.8-12.1,1.6-13.5l16.5,0.4c0,0,0.6,5.2,0.9,13.1H271.4z"/>
					</g>
					<path class="st19" d="M290.2,499.4c-0.2,1.5-0.4,2.7-0.7,3.5c0,0-38.9,1.7-41.7,0.4c-0.4-0.2-0.3-0.6,0.2-1.1
						c0.1-0.4,0.3-0.9,0.5-1.5C255.4,500.7,279.8,500.8,290.2,499.4z"/>
				</g>
				<path class="st20" d="M268.3,493.8c-0.6-1.9-3.6-2.6-5.3-1.5c-0.2,0.1-0.2,0.3,0,0.4c0.7,0.4,1.6,0.2,2.4,0.3
					c0.9,0.2,1.2,0.8,1.8,1.3C267.6,494.7,268.5,494.4,268.3,493.8z"/>
				<path class="st20" d="M274,491.4c-0.5-1.3-2-2.2-3.5-2.4c-1-0.1-3.3,0.3-3,1.6c0,0.1,0.2,0.2,0.3,0.2c0.7,0,1.3-0.4,2-0.4
					c0.8,0,1.6,0.5,2.1,1c0.5,0.5,0.7,1,1.5,1.1C273.9,492.6,274.1,491.7,274,491.4z"/>
			</g>
			<g>
				<g>
					<g>
						<path class="st17" d="M330.5,498.1c0.2,1.5,0.3,2.7,0.1,3.6c0,0-37.4,10.8-40.4,10.3c-0.5-0.1-0.4-0.5-0.1-1.2
							c0-0.4,0-1,0.1-1.6c0.5-3.5,3-9.5,13.3-11.3c1.6-1.3,2.9-2.5,3.6-3.1c1.1-1,1.6-3,1.8-5.3c0.4-5.1-1-11.8-1.6-13.1l16.1-3.7
							c0,0,2,5.8,3.9,12.3C328.7,489.6,330,494.5,330.5,498.1z"/>
						<path class="st18" d="M309,489.4c0.3-5.2-1-11.7-1.6-13l16.1-3.7c0,0,2,6,3.9,12.3L309,489.4z"/>
					</g>
					<path class="st19" d="M330.5,498.1c0.2,1.5,0.3,2.7,0.1,3.6c0,0-37.4,10.8-40.4,10.3c-0.5-0.1-0.4-0.5-0.1-1.2
						c0-0.4,0-1,0.1-1.6C296.9,507.7,320.6,501.9,330.5,498.1z"/>
				</g>
				<path class="st20" d="M312.4,498.5c-1.5-1.3-4.4-0.5-5.4,1.3c-0.1,0.2,0,0.4,0.2,0.4c0.8,0,1.5-0.6,2.2-0.9
					c0.8-0.3,1.4,0.2,2.2,0.2C312.3,499.7,312.9,499,312.4,498.5z"/>
				<path class="st20" d="M316.2,493.7c-1-0.8-2.9-1-4.2-0.4c-1,0.4-2.7,1.8-1.8,2.9c0.1,0.1,0.2,0.1,0.3,0c0.6-0.3,0.9-0.9,1.5-1.3
					c0.7-0.4,1.6-0.4,2.3-0.2c0.7,0.2,1.1,0.5,1.8,0.2C316.7,494.7,316.5,493.9,316.2,493.7z"/>
			</g>
			<g>
				<path class="st17" d="M270.3,483.2h21.4l6.1-131.1c0.7,0.1,1.4,0.1,2.1,0.2l7.6,130h21.3c0.1-16.4,1-140.2-4.6-168.7l-51.6-0.5
					C273.1,314.5,270,432,270.3,483.2z"/>
				<path class="st21" d="M318.7,321l6-0.1l-0.5-7.4l-5.9-0.1C318.5,316,318.7,318.5,318.7,321z"/>
				<path class="st21" d="M312.9,313.5l-26.3-0.2c0.1,2.8,0.2,5.6,0.2,8.4l26.6-0.5C312.9,318.8,312.9,316,312.9,313.5z"/>
				<path class="st21" d="M280.2,313.2l-7.6-0.1v8.8l8.3-0.1C280.2,319.2,280.1,316,280.2,313.2z"/>
				<rect x="293.1" y="311.5" class="st22" width="9.9" height="11.8"/>
			</g>
		</g>
		<g>
			<path class="st13" d="M360.1,356.1c-0.1-0.8-0.2-1.6-0.3-2.4l-8.8-1.4c-0.1,1.3-0.2,2.6-0.3,3.8c-1.8,1.2-4.4,3.9-4.5,7.4
				c-0.1,3.4-4.4,6.6-4.6,7.8c2.8,2,4.8-0.9,6.6-3.9c0.8-1.4,1.5-1.6,1.9-1.5c0,0.8,0,1.2,0,1.3c0,0.1,0,0.3-0.1,0.4
				c-0.7,2.6-1.2,5.2-1.7,7.9c-0.2,1.3-0.5,2.6,0.2,3.8c0.1,0.2,0.5,0.3,0.7,0.1c1.8-0.9,2.2-2.9,2.7-4.7c0.3-1.1,0.6-2.1,0.8-3.1
				c-0.1,2-0.4,3.9-0.7,5.8c-0.4,1.8-0.9,3.9-0.1,5.6c0.8,1.7,1.6,0.9,2.3-0.2c0,0.2,0,0.4,0,0.6c0,0.5,0.6,0.7,0.9,0.5
				c5.3-2.7,6-11.3,5.1-16.8c3.9,2.7,0.5,7.3,1.9,10.7c0.1,0.2,0.4,0.4,0.7,0.2c3.7-2.6,2-9.8,0.8-13.4
				C362.7,362.1,360.7,359,360.1,356.1z"/>
			<path class="st4" d="M364.5,359.4c2.8-95.9-30-121.9-30-121.9c-6.8,6.9-5.8,38.6-5.8,38.6c9.8,13.3,15.6,64.4,17.4,83.3H364.5z"
				/>
		</g>
		<g>
			<path class="st13" d="M237.1,356.7c0.1-0.8,0.2-1.6,0.3-2.4l8.8-1.4c0.1,1.3,0.2,2.6,0.3,3.8c1.8,1.2,4.4,3.9,4.5,7.4
				c0.1,3.4,4.4,6.6,4.6,7.8c-2.8,2-4.8-0.9-6.6-3.9c-0.8-1.4-1.5-1.6-1.9-1.5c0,0.8,0,1.2,0,1.3c0,0.1,0,0.3,0.1,0.4
				c0.7,2.6,1.2,5.2,1.7,7.9c0.2,1.3,0.5,2.6-0.2,3.8c-0.1,0.2-0.5,0.3-0.7,0.1c-1.8-0.9-2.2-2.9-2.7-4.7c-0.3-1.1-0.6-2.1-0.8-3.1
				c0.1,2,0.4,3.9,0.7,5.8c0.4,1.8,0.9,3.9,0.1,5.6c-0.8,1.7-1.6,0.9-2.3-0.2c0,0.2,0,0.4,0,0.6c0,0.5-0.6,0.7-0.9,0.5
				c-5.3-2.7-6-11.3-5.1-16.8c-3.9,2.7-0.5,7.3-1.9,10.7c-0.1,0.2-0.4,0.4-0.7,0.2c-3.7-2.6-2-9.8-0.8-13.4
				C234.5,362.7,236.5,359.6,237.1,356.7z"/>
			<path class="st4" d="M232.7,360c-2.8-95.9,30-121.9,30-121.9c6.8,6.9,5.8,38.6,5.8,38.6c-9.8,13.3-15.6,64.4-17.4,83.3H232.7z"/>
		</g>
	</g>
</g>
</svg>
