<svg aria-hidden="true" focusable="false" role="img" xmlns="http://www.w3.org/2000/svg" viewBox="0 0 512 512">
<style type="text/css">
	.st0{fill-rule:evenodd;clip-rule:evenodd;fill:#614830;}
	.st1{fill-rule:evenodd;clip-rule:evenodd;fill:#76593C;}
	.st2{fill-rule:evenodd;clip-rule:evenodd;fill:#402020;}
	.st3{fill:#BAA466;stroke:#76593C;stroke-miterlimit:10;}
	.st4{fill:#EBE6E2;}
	.st5{fill:#D8826C;}
	.st6{fill:#FFFFFF;}
	.st7{fill:#F5F0EB;}
	.st8{fill:#F5AE94;}
	.st9{fill:#DD876C;}
	.st10{fill:#0D0D0C;}
	.st11{fill:#5C8696;}
	.st12{fill:#242422;}
	.st13{fill:#F0A98F;}
	.st14{opacity:0.4;fill:#EAECED;}
	.st15{fill:#5C311E;}
	.st16{fill:#D5503B;}
	.st17{fill:#22272E;}
	.st18{fill:#617085;}
	.st19{fill:#515D6E;stroke:#515D6E;stroke-miterlimit:10;}
	.st20{fill:#515D6E;}
	.st21{fill:#8C4C09;}
	.st22{fill:#C28C4B;}
</style>
<g>
	<g>
		<g>
			<rect x="175.3" y="36.9" class="st0" width="175.3" height="30.3"/>
			<rect x="148.2" y="0" class="st0" width="27.8" height="484.3"/>
			<rect x="175.3" y="29" class="st1" width="175.3" height="30.3"/>
			<rect x="157.9" y="0" class="st1" width="27.8" height="484.3"/>
			<path class="st2" d="M171.9,39.5c2.6,0,4.7,2.1,4.7,4.7c0,2.6-2.1,4.7-4.7,4.7c-2.6,0-4.7-2.1-4.7-4.7
				C167.1,41.6,169.2,39.5,171.9,39.5"/>
			
				<rect x="157.1" y="70.3" transform="matrix(0.7071 -0.7071 0.7071 0.7071 2.2877 176.5043)" class="st1" width="114.1" height="30.3"/>
			<path class="st2" d="M243.6,39.5c2.6,0,4.7,2.1,4.7,4.7c0,2.6-2.1,4.7-4.7,4.7s-4.7-2.1-4.7-4.7C238.9,41.6,241,39.5,243.6,39.5"
				/>
			<path class="st2" d="M171.9,116.4c2.6,0,4.7,2.1,4.7,4.7c0,2.6-2.1,4.7-4.7,4.7c-2.6,0-4.7-2.1-4.7-4.7
				C167.1,118.5,169.2,116.4,171.9,116.4"/>
		</g>
		<g>
			<path class="st3" d="M291.2,70.1c0-2.9,2.4-5.3,5.3-5.3c3,0,5.3,2.4,5.3,5.3v87.2c0,2.9-2.4,5.3-5.3,5.3c-3,0-5.3-2.4-5.3-5.3
				V70.1z"/>
			<g>
				<path class="st3" d="M301.4,118.5c3-1.4,6.7-0.2,8.1,2.9c1.4,3,0.2,6.7-2.9,8.1l-14.2,6.8c-3,1.5-6.7,0.2-8.1-2.9
					c-1.4-3-0.2-6.7,2.9-8.1L301.4,118.5z"/>
				<path class="st3" d="M300.9,129.2c2.7-1.3,5.8-0.1,7.1,2.5c1.3,2.7,0.1,5.8-2.5,7.1l-12.4,5.9c-2.6,1.3-5.8,0.1-7.1-2.5
					c-1.3-2.7-0.1-5.8,2.5-7.1L300.9,129.2z"/>
				<path class="st3" d="M300.9,139.9c2.7-1.3,5.8-0.1,7.1,2.5c1.3,2.7,0.1,5.8-2.5,7.1l-12.4,5.9c-2.6,1.3-5.8,0.1-7.1-2.5
					c-1.3-2.6-0.1-5.8,2.5-7.1L300.9,139.9z"/>
				<path class="st3" d="M300.9,149.5c2.7-1.3,5.8-0.1,7.1,2.5c1.3,2.7,0.1,5.8-2.5,7.1l-12.4,5.9c-2.6,1.3-5.8,0.1-7.1-2.5
					c-1.3-2.7-0.1-5.8,2.5-7.1L300.9,149.5z"/>
			</g>
			<g>
				<path class="st3" d="M280.8,27.1c0.4-2.9,3-5,6-4.7c2.9,0.4,5,3,4.7,6l-5.2,42.4c-0.4,2.9-3,5-6,4.7c-2.9-0.4-5-3-4.7-6
					L280.8,27.1z"/>
				<path class="st3" d="M290.2,27.1c0.4-2.9,3-5,6-4.7c2.9,0.4,5,3,4.7,6l-5.2,42.4c-0.4,2.9-3,5-6,4.7c-2.9-0.4-5-3-4.7-6
					L290.2,27.1z"/>
				<path class="st3" d="M299.7,27.1c0.4-2.9,3-5,6-4.7c2.9,0.4,5,3,4.7,6l-5.2,42.4c-0.4,2.9-3,5-6,4.7c-2.9-0.4-5-3-4.7-6
					L299.7,27.1z"/>
				<path class="st3" d="M309.2,27.1c0.4-2.9,3-5,5.9-4.7c2.9,0.4,5,3,4.7,6l-5.2,42.4c-0.4,2.9-3,5-5.9,4.7c-2.9-0.4-5-3-4.7-6
					L309.2,27.1z"/>
			</g>
		</g>
	</g>
	<g>
		<g>
			<path class="st4" d="M262.5,235.9c0,0,36.5-6.8,71.1-0.9c0,0-7.8,66.1-10.5,80.2c0,0-27.4,6.8-51.1-0.5
				C272.1,314.8,262.1,248.7,262.5,235.9z"/>
			<path class="st5" d="M307.2,231.7c0,6.1-3.7,11-9.7,11l0,0c-6,0-9.7-4.9-9.7-11v-14c0-6.1,3.7-11,9.7-11l0,0c6,0,9.7,4.9,9.7,11
				V231.7z"/>
			<g>
				<path class="st6" d="M298.9,251.4c0,0.9-0.7,1.6-1.6,1.6c-0.9,0-1.6-0.7-1.6-1.6c0-0.9,0.7-1.6,1.6-1.6
					C298.2,249.8,298.9,250.5,298.9,251.4z"/>
				<path class="st6" d="M298.9,267.7c0,0.9-0.7,1.6-1.6,1.6c-0.9,0-1.6-0.7-1.6-1.6c0-0.9,0.7-1.6,1.6-1.6
					C298.2,266.2,298.9,266.9,298.9,267.7z"/>
				<path class="st6" d="M298.7,300.4c0,0.9-0.7,1.6-1.6,1.6c-0.9,0-1.6-0.7-1.6-1.6c0-0.9,0.7-1.6,1.6-1.6
					C298,298.9,298.7,299.6,298.7,300.4z"/>
				<path class="st6" d="M298.9,284c0,0.9-0.7,1.6-1.6,1.6c-0.9,0-1.6-0.7-1.6-1.6c0-0.9,0.7-1.6,1.6-1.6
					C298.2,282.5,298.9,283.2,298.9,284z"/>
			</g>
			<g>
				<path class="st7" d="M286.3,225l-8.7,9.1l7.3,19.1l12.3-10.5C297.2,242.7,287.6,232.7,286.3,225z"/>
				<path class="st7" d="M308.1,225l8.7,9.1l-7.3,19.1l-12.3-10.5C297.2,242.7,306.8,232.7,308.1,225z"/>
			</g>
			<path class="st3" d="M310.3,176.8c-3.8-5.6-8.7-9.6-13.8-9.6c-5.1,0-10,4-13.8,9.6c-4.8,7.1-7.9,16.4-7.9,24
				c0,6.7,2.5,12.8,6.5,17.1c3.9,4.3,9.3,6.9,15.2,6.9c5.9,0,11.3-2.6,15.2-6.9c4-4.4,6.5-10.4,6.5-17.1
				C318.2,193.2,315.2,183.9,310.3,176.8 M296.5,158.5c8.3,0,15.6,5.6,21,13.4c5.8,8.4,9.4,19.7,9.4,28.9c0,9-3.4,17.1-8.8,23
				c-5.5,6-13.2,9.7-21.6,9.7c-8.5,0-16.1-3.7-21.6-9.7c-5.4-5.9-8.8-14.1-8.8-23c0-9.2,3.6-20.5,9.4-28.9
				C280.9,164.1,288.2,158.5,296.5,158.5z"/>
		</g>
		<g>
			<g>
				<path class="st8" d="M322.6,206.3c0.1,8.7-9.2,15.7-15.3,19c-6.1,3.3-11.5,2.2-11.5,2.2c-24.4-5.6-22.7-17.2-24.1-26.8
					c-0.7-4.7-1.3-13.6,0.8-24.5c0.3-1.5,0.7-2.8,1.3-4.1c3.8-7.9,12.7-10.9,12.7-10.9c5.3-1.9,11.4-2.3,17-1.3
					c8,1.5,14.3,5.6,16.3,13.8c0.7,2.6,1,5.4,1.3,8c0.7,5.6,1.1,11.2,1.3,16.8C322.6,201.1,322.6,203.7,322.6,206.3z"/>
			</g>
			<path class="st9" d="M297,182c0,0-1.9-1.6-1.8,4.7c0.1,6.4,0.9,13,0.9,13s-4.4-2.2-2.7,1.2c0.9,1.8,2.7,2.7,4.7,3.1
				c1.7,0.3,2.8-0.3,3.9-1.4c0.5-0.5,2.9-3.3,2-4.1c-0.4-0.4-2.6,0.7-3.2,0.9C300.6,199.5,300.1,180.4,297,182z"/>
			<path class="st10" d="M304.3,177.6c0,0,11.1-2.2,14.5,5.9c0,0-12.4-3.7-14.7-1.9L304.3,177.6z"/>
			<path class="st10" d="M291,178.5c0,0-10.9-2.9-14.9,5c0,0,12.6-2.9,14.8-0.9L291,178.5z"/>
			<g>
				<path class="st6" d="M315,195.9c-1,1-2.4,1.6-4,1.7c-0.7,0.1-1.4,0-2-0.2c-2.6-0.6-4.6-2.8-4.8-5.5c-0.2-3.4,2.4-6.3,6-6.6
					c3.5-0.2,6.5,2.3,6.8,5.7C317.1,192.9,316.3,194.6,315,195.9z"/>
				<g>
					<path class="st11" d="M315.6,193.7c-0.1,0.8-0.3,1.5-0.6,2.2c-1,1-2.4,1.6-4,1.7c-0.7,0.1-1.4,0-2-0.2c-1-1-1.5-2.6-1.4-4.3
						c0.2-2.8,2.2-5,4.4-4.8c0.8,0.1,1.4,0.4,2,0.9c0.3,0.3,0.6,0.7,0.8,1.1C315.4,191.2,315.7,192.4,315.6,193.7z"/>
					<path class="st10" d="M314.4,193.6c-0.2,2-1.5,3.5-3.1,3.4c-1.6-0.1-2.7-1.8-2.5-3.8c0.2-2,1.5-3.5,3.1-3.4
						C313.4,189.9,314.6,191.6,314.4,193.6z"/>
					<path class="st6" d="M314.9,190.2c0,0.5-0.7,0.9-1.5,0.9c-0.8-0.1-1.4-0.6-1.4-1.1c0-0.5,0.7-0.9,1.5-0.9
						C314.3,189.1,314.9,189.6,314.9,190.2z"/>
				</g>
			</g>
			<g>
				<path class="st6" d="M289.8,195.9c-1,1-2.4,1.6-4,1.7c-0.7,0.1-1.4,0-2-0.2c-2.6-0.6-4.6-2.8-4.8-5.5c-0.2-3.4,2.4-6.3,5.9-6.6
					c3.5-0.2,6.5,2.3,6.8,5.7C291.9,192.9,291.1,194.6,289.8,195.9z"/>
				<g>
					<path class="st11" d="M290.3,193.7c-0.1,0.8-0.3,1.5-0.6,2.2c-1,1-2.4,1.6-4,1.7c-0.7,0.1-1.4,0-2-0.2c-1-1-1.5-2.6-1.4-4.3
						c0.2-2.8,2.2-5,4.4-4.8c0.8,0.1,1.4,0.4,2,0.9c0.3,0.3,0.6,0.7,0.8,1.1C290.2,191.2,290.4,192.4,290.3,193.7z"/>
					<path class="st10" d="M289.2,193.6c-0.2,2-1.5,3.5-3.1,3.4c-1.6-0.1-2.7-1.8-2.5-3.8c0.2-2,1.5-3.5,3.1-3.4
						C288.2,189.9,289.4,191.6,289.2,193.6z"/>
					<path class="st6" d="M289.6,190.2c0,0.5-0.7,0.9-1.5,0.9c-0.8-0.1-1.4-0.6-1.4-1.1c0-0.5,0.7-0.9,1.5-0.9
						C289.1,189.1,289.7,189.6,289.6,190.2z"/>
				</g>
			</g>
			<path class="st12" d="M330.6,157.4c-1.4,2-3.8,4-6.3,4.5c2.1-2.2,4.1-5.2,3.7-8.3c0-0.1-0.2-0.3-0.3-0.2
				c-0.4,0.2-0.8,0.6-1.1,0.9c-1.9,1.7-5,1.7-7.3,0.9c-4-1.4-7.3-4.2-10.9-6.4c-3.9-2.4-8.3-3.7-12.9-3.5c-2.5,0.1-4.9,0.6-7.3,1.5
				c-5.7,2.1-12.6,6.2-14.1,12.5c-0.2,0.9-0.3,1.8-0.3,2.7c0,0.6,0.5,2.3,0.2,2.7c-0.1,0.2,0.1,0.5,0.3,0.3c0.1,0,0.2,0,0.2-0.1
				c0-0.1,0.1-0.2,0.1-0.2c2.7-2.2,7.2,6.4,8.8,7.7c6.3,5.3,15.3,6,22.8,4c8.4-2.3,17.6-8.1,22.5-15.1c0.8-1.2,1.6-2.3,2.2-3.6
				C331.1,157.4,330.8,157.2,330.6,157.4z"/>
			<g>
				<g>
					<path class="st13" d="M321.6,188.2c0,0,5.3-12.1,9.7-2.6c3.5,7.6-2.3,15-7.1,14.5C319.6,199.6,321.6,188.2,321.6,188.2z"/>
					<path class="st5" d="M322,190c0,0,4-7.7,6-5c2.1,2.8,2,6.6,2,6.6s-1.5-4-4.3-1.4c0,0,3.8,6.3-2.6,5
						C323.1,195.3,320.3,193.5,322,190z"/>
				</g>
			</g>
			<path class="st12" d="M280.4,162.7c0,0,0.6,9.9-3.5,14.7c-4.1,4.8-4.5,14.5-4.5,14.5s-15-19.2,2.1-30.4
				C274.5,161.5,277.9,160.1,280.4,162.7z"/>
			<path class="st12" d="M313.4,166.5c0,0,6.9,9.3,8.4,22.6c0,0,9.8-14.6,0.5-26.9C322.3,162.2,312.1,157.9,313.4,166.5z"/>
			<g>
				<g>
					<path class="st13" d="M272.7,190c0,0-5.3-12.1-9.7-2.6c-3.5,7.6,2.3,15,7.1,14.5C274.8,201.4,272.7,190,272.7,190z"/>
					<path class="st5" d="M272.4,191.9c0,0-4-7.8-6-5c-2.1,2.8-2,6.6-2,6.6s1.5-4,4.3-1.4c0,0-3.8,6.3,2.6,5
						C271.3,197.1,274.1,195.4,272.4,191.9z"/>
				</g>
			</g>
			<g>
				<g>
					<path class="st14" d="M288.3,186.9c-2.2-0.3-4.5-0.4-6.5-0.4c-1.3,2.2-2.6,4.5-3.6,6.9c-0.7,1.7-1.4,3.6-1.8,5.5
						c2,1.9,4.8,2.5,7.5,2.5C284.9,196.5,285.6,191,288.3,186.9z"/>
					<path class="st14" d="M316.1,186.4c-2.3-0.1-4.5,0-6.5,0.3c-1.1,2.3-2.1,4.7-2.9,7.2c-0.5,1.8-1,3.7-1.2,5.6
						c2.2,1.7,5,2,7.7,1.8C313.7,196.3,313.9,190.7,316.1,186.4z"/>
				</g>
				<path class="st15" d="M321.6,194.9c2.2-6.4,1.5-9.1,1.5-9.4l-0.1-0.5l-0.5-0.2c-0.4-0.2-9.7-3.8-19.7,0.8
					c-1.1,0.5-2.1,1.1-3.1,1.7l0-0.2l-3.7,0.1l-0.1-0.2l-0.5-0.3c-1.1-0.6-2.2-1.1-3.3-1.5c-10.3-3.9-19.4,0.3-19.8,0.5l-0.5,0.2
					l-0.1,0.5c-0.1,0.3-0.5,3,2.1,9.3c0.9,2.2,2.7,3.9,5.2,4.8c3.1,1.2,6.2,0.9,6.3,0.9c7.2-0.8,8.5-4.3,9.4-6.6
					c0-0.1,0.1-0.3,0.1-0.4c0.6-1.6,0.9-3,1.1-4.1c0.7-0.3,1.8-0.4,3.3,0.1c0.2,1.2,0.6,2.7,1.4,4.5c0.1,0.1,0.1,0.2,0.2,0.4
					c1,2.3,2.5,5.7,9.8,6c0.1,0,3.3,0.1,6.2-1.3C319.1,199,320.8,197.2,321.6,194.9z M285.1,199.3c0,0-2.8,0.2-5.3-0.7
					c-1.9-0.7-3.3-2-4-3.6c-1.7-4.1-2-6.5-2-7.5c2.1-0.8,9.5-3.2,17.5-0.2c0.9,0.3,1.7,0.7,2.5,1.1c0,0.9-0.1,2.8-1.1,5.3
					c0,0.1-0.1,0.3-0.1,0.4C291.8,196.3,291,198.7,285.1,199.3z M315.8,198.1c-2.5,1.1-5.2,1.1-5.3,1.1c-5.9-0.3-7-2.6-7.9-4.7
					c-0.1-0.1-0.1-0.3-0.2-0.4c-1.1-2.4-1.3-4.4-1.4-5.3c0.8-0.5,1.6-0.9,2.4-1.3c7.8-3.5,15.4-1.6,17.5-0.9c0,1,0,3.4-1.5,7.6
					C318.9,195.9,317.7,197.3,315.8,198.1z"/>
			</g>
			<path class="st16" d="M308.2,213.4c0,0-10.9-15.6-17.5,1.4C290.7,214.8,295.6,205.1,308.2,213.4z"/>
		</g>
		<g>
			<g>
				<g>
					<g>
						<path class="st17" d="M333,492.5c0.4,1.4,0.6,2.6,0.7,3.5c0,0-35.1,16-38,16c-0.5,0-0.5-0.4-0.2-1.1c-0.1-0.4-0.1-0.9-0.1-1.6
							c0-3.5,1.6-9.7,11.4-13c1.3-1.5,2.5-2.8,3.1-3.6c1-1.1,1.2-3.2,1-5.5c-0.4-5-2.7-11.4-3.4-12.6l15.2-6c0,0,2.8,5.4,5.6,11.5
							C330.1,484.5,332,489.1,333,492.5z"/>
						<path class="st18" d="M310.7,487.2c-0.4-5.1-2.7-11.3-3.4-12.5l15.2-6c0,0,2.9,5.5,5.6,11.5L310.7,487.2z"/>
					</g>
					<path class="st19" d="M333,492.5c0.4,1.4,0.6,2.6,0.7,3.5c0,0-35.1,16-38,16c-0.5,0-0.5-0.4-0.2-1.1c-0.1-0.4-0.1-0.9-0.1-1.6
						C301.6,506.8,323.9,497.7,333,492.5z"/>
				</g>
				<path class="st20" d="M310.8,495.6c-1.3-1.5-4.3-1-5.4,0.6c-0.1,0.2-0.1,0.4,0.2,0.4c0.8,0.1,1.5-0.4,2.3-0.6
					c0.9-0.2,1.4,0.3,2.1,0.5C310.6,496.7,311.2,496.1,310.8,495.6z"/>
				<path class="st20" d="M315.1,491.3c-0.9-1-2.7-1.3-4.1-0.9c-1,0.3-2.9,1.5-2.1,2.6c0.1,0.1,0.2,0.1,0.3,0.1
					c0.6-0.2,1-0.8,1.7-1.1c0.7-0.3,1.6-0.2,2.3,0.1c0.6,0.2,1,0.7,1.8,0.5C315.5,492.4,315.4,491.6,315.1,491.3z"/>
			</g>
			<g>
				<g>
					<g>
						<path class="st17" d="M292.6,493.5c0.2,1.4,0.2,2.7,0,3.6c0,0-37.3,9.7-40.2,9.1c-0.5-0.1-0.4-0.5,0-1.2
							c0-0.4,0.1-0.9,0.2-1.5c0.6-3.5,3.2-9.3,13.5-10.8c1.6-1.3,2.9-2.4,3.7-3c1.1-1,1.7-2.9,1.9-5.2c0.5-5-0.7-11.7-1.2-13l16-3.2
							c0,0,1.8,5.8,3.5,12.3C291.2,485,292.3,489.9,292.6,493.5z"/>
						<path class="st18" d="M271.6,484.3c0.5-5.1-0.7-11.6-1.2-12.9l16-3.3c0,0,1.9,5.9,3.5,12.2L271.6,484.3z"/>
					</g>
					<path class="st19" d="M292.6,493.5c0.2,1.4,0.2,2.7,0,3.6c0,0-37.3,9.7-40.2,9.1c-0.5-0.1-0.4-0.5,0-1.2c0-0.4,0.1-0.9,0.2-1.5
						C259.2,502.1,282.8,497,292.6,493.5z"/>
				</g>
				<path class="st20" d="M270.2,492.6c-1-1.7-4.1-1.8-5.5-0.3c-0.1,0.1-0.1,0.4,0.1,0.4c0.8,0.2,1.6-0.2,2.4-0.2
					c0.9,0,1.3,0.6,2,0.9C269.8,493.7,270.6,493.2,270.2,492.6z"/>
				<path class="st20" d="M275.2,489.2c-0.7-1.1-2.4-1.7-3.9-1.6c-1,0.1-3.1,1-2.6,2.2c0,0.1,0.2,0.1,0.3,0.1
					c0.7-0.1,1.1-0.6,1.8-0.8c0.8-0.2,1.6,0.1,2.3,0.5c0.6,0.3,0.9,0.8,1.7,0.7C275.4,490.3,275.4,489.4,275.2,489.2z"/>
			</g>
			<g>
				<g>
					<path class="st17" d="M270.1,478h21.1l6-129.6c0.7,0.1,1.4,0.1,2.1,0.2L307,477h21.1c0.1-16.2,1-138.7-4.6-166.9l-51.1-0.5
						C272.9,311.1,269.8,427.3,270.1,478z"/>
					<path class="st21" d="M318.1,317.6l5.9-0.1l-0.5-7.3l-5.9-0.1C317.8,312.6,318,315.1,318.1,317.6z"/>
					<path class="st21" d="M312.3,310.1l-26.1-0.2c0.1,2.8,0.2,5.5,0.2,8.3l26.3-0.5C312.2,315.3,312.3,312.6,312.3,310.1z"/>
					<path class="st21" d="M279.9,309.8l-7.5-0.1v8.7l8.2-0.1C279.9,315.7,279.9,312.6,279.9,309.8z"/>
					<rect x="292.7" y="308.1" class="st22" width="9.7" height="11.7"/>
				</g>
			</g>
		</g>
		<g>
			<path class="st13" d="M359,352.2c-0.1-0.8-0.2-1.6-0.3-2.4l-8.7-1.4c-0.1,1.2-0.2,2.5-0.3,3.8c-1.8,1.2-4.4,3.8-4.5,7.4
				c-0.1,3.4-4.3,6.6-4.6,7.8c2.7,2,4.8-0.8,6.5-3.9c0.8-1.4,1.5-1.6,1.9-1.5c0,0.7,0,1.2,0,1.3c0,0.1,0,0.3-0.1,0.4
				c-0.7,2.6-1.2,5.2-1.7,7.8c-0.2,1.3-0.5,2.5,0.2,3.8c0.1,0.2,0.4,0.2,0.7,0.1c1.8-0.9,2.2-2.9,2.6-4.6c0.3-1.1,0.5-2.1,0.8-3.1
				c-0.1,1.9-0.4,3.9-0.7,5.7c-0.4,1.7-0.9,3.8-0.1,5.5c0.7,1.7,1.6,0.9,2.3-0.2c0,0.2,0,0.4,0,0.6c0,0.5,0.5,0.7,0.9,0.5
				c5.3-2.6,5.9-11.2,5.1-16.6c3.9,2.7,0.5,7.3,1.9,10.6c0.1,0.2,0.4,0.4,0.7,0.2c3.7-2.6,1.9-9.7,0.8-13.3
				C361.6,358.2,359.6,355.1,359,352.2z"/>
			<path class="st4" d="M363.3,355.6c2.8-94.8-29.7-120.6-29.7-120.6c-6.7,6.8-5.8,38.2-5.8,38.2c9.7,13.2,15.4,63.7,17.2,82.4
				H363.3z"/>
		</g>
		<g>
			<path class="st13" d="M237.3,352.8c0.1-0.8,0.2-1.6,0.3-2.4l8.7-1.4c0.1,1.2,0.2,2.5,0.3,3.8c1.8,1.2,4.4,3.8,4.5,7.4
				c0.1,3.4,4.3,6.6,4.6,7.8c-2.7,2-4.8-0.8-6.5-3.9c-0.8-1.4-1.5-1.6-1.9-1.5c0,0.7,0,1.2,0,1.3c0,0.1,0,0.3,0.1,0.4
				c0.7,2.6,1.2,5.2,1.7,7.8c0.2,1.3,0.5,2.5-0.2,3.8c-0.1,0.2-0.4,0.2-0.7,0.1c-1.8-0.9-2.2-2.9-2.6-4.6c-0.3-1.1-0.5-2.1-0.8-3.1
				c0.1,1.9,0.4,3.9,0.7,5.7c0.4,1.7,0.9,3.8,0.1,5.5c-0.7,1.7-1.6,0.9-2.3-0.2c0,0.2,0,0.4,0,0.6c0,0.5-0.5,0.7-0.9,0.5
				c-5.3-2.6-5.9-11.2-5.1-16.6c-3.9,2.7-0.5,7.3-1.9,10.6c-0.1,0.2-0.4,0.4-0.7,0.2c-3.7-2.6-1.9-9.7-0.8-13.3
				C234.7,358.8,236.7,355.7,237.3,352.8z"/>
			<path class="st4" d="M233,356.1c-2.8-94.8,29.7-120.6,29.7-120.6c6.7,6.8,5.8,38.2,5.8,38.2c-9.7,13.2-15.4,63.7-17.2,82.4H233z"
				/>
		</g>
	</g>
</g>
</svg>
