<svg aria-hidden="true" focusable="false" role="img" xmlns="http://www.w3.org/2000/svg" viewBox="0 0 512 512">
<g>
	<path d="M456.2,342.2c-23.9-3.8-52.2-16.3-79-36.4c-8-6-21.3-15-28-21.5c-35.7,21.1-33.3,42.3-60.8,49.5
		c-9.5,2.5-19.5,3.8-29.8,3.8c-7.6,0-15-0.7-22.1-2.1c-28.7-5.5-42.1-36.5-63.1-44.7c-5.3,4.8-101.9,54.3-103.8,55.5l-4.6,2.8
		l-22.8,14.1c-4.9,3-6.4,9.5-3.4,14.4l11.1,18l11.2,18c3,4.9,9.5,6.4,14.4,3.4l27.4-17c4.2-2.6,9.7-1.9,13.1,1.8
		c4.3,4.6,8.9,8.9,13.6,13c1.5,1.3,2.6,3,3.1,4.7c0.9,2.7,0.6,5.7-0.8,8.3L116,456c-2.8,5-1,11.4,4,14.2l36.9,20.7
		c5,2.8,11.4,1,14.2-4l15.7-28c2.4-4.3,7.6-6.3,12.3-4.8c6.3,2,12.7,3.7,19.3,5c4.9,1,8.4,5.2,8.4,10.2v32.2
		c0,5.8,4.7,10.5,10.5,10.5h42.3c5.8,0,10.5-4.7,10.5-10.5v-32.2c0-5,3.5-9.2,8.4-10.2c9.3-1.9,18.4-4.5,27.2-7.7
		c4.7-1.7,9.9,0.1,12.5,4.3l16.9,27.3c3,4.9,9.5,6.4,14.4,3.4l36-22.3c4.9-3,6.4-9.5,3.4-14.4L392,422.4c-0.7-1.2-1.2-2.4-1.4-3.7
		c-0.6-3.4,0.5-6.9,3.2-9.4c4.6-4.3,8.9-8.9,13-13.6c3.3-3.8,8.7-4.7,13-2.3l28.1,15.8c5,2.8,11.4,1,14.2-4l12.8-22.8
		C472.4,370,466,356.1,456.2,342.2z"/>
	<path d="M344.9,102.6c-14.8-20.7-24.7-27.2-33.6-40.5s-21.2-47.4-22.7-53.3c-1.5-5.9-23.7-7.4-23.7-7.4h-15.8c0,0-0.8,0.1-2.1,0.2
		c-7-4.3-21.2,1.8-31,3.8c-9.9,2-29.6,31.1-36.5,44c-6.9,12.8,14.3,9.9,19.8,6.9c5.4-3,12.3-24.7,22.3-33.9
		C217.3,35.7,210.6,55,204.6,64c-8.9,13.3-28.2,33.6-43,54.3s-14.8,117-7.4,134.8s94.8,100.8,94.8,100.8h15.8
		c0,0,87.4-83,94.8-100.8C367.1,235.4,359.7,123.3,344.9,102.6z M200.9,186.6c-10.8-1.4-17.7-7.7-16.5-17.1
		c1.2-9.4,9.1-14.3,18.1-13.2c9,1.1,37,13.9,36.2,20.1C237.9,182.4,211.7,187.9,200.9,186.6z M303.8,186.6
		c-10.8,1.4-37-4.1-37.8-10.3c-0.8-6.1,27.2-18.9,36.2-20.1c9-1.1,16.9,3.8,18.1,13.2C321.6,178.9,314.6,185.2,303.8,186.6z"/>
</g>
</svg>
