<svg aria-hidden="true" focusable="false" role="img" xmlns="http://www.w3.org/2000/svg" viewBox="0 0 512 512">
<style type="text/css">
	.st0{fill-rule:evenodd;clip-rule:evenodd;fill:#614830;}
	.st1{fill-rule:evenodd;clip-rule:evenodd;fill:#76593C;}
	.st2{fill-rule:evenodd;clip-rule:evenodd;fill:#402020;}
	.st3{fill:#BAA466;stroke:#76593C;stroke-miterlimit:10;}
</style>
<g>
	<g>
		<g>
			<rect x="165.9" y="44.9" class="st0" width="213.2" height="36.9"/>
			<rect x="132.9" class="st0" width="33.8" height="512"/>
			<rect x="165.9" y="35.3" class="st1" width="213.2" height="36.9"/>
			<rect x="144.8" class="st1" width="33.8" height="512"/>
			<path class="st2" d="M161.7,48.1c3.2,0,5.8,2.6,5.8,5.8c0,3.2-2.6,5.8-5.8,5.8c-3.2,0-5.8-2.6-5.8-5.8
				C155.9,50.6,158.5,48.1,161.7,48.1"/>
			
				<rect x="143.8" y="85.5" transform="matrix(0.7071 -0.7071 0.7071 0.7071 -11.0802 181.2019)" class="st1" width="138.8" height="36.9"/>
			<path class="st2" d="M249,48.1c3.2,0,5.8,2.6,5.8,5.8c0,3.2-2.6,5.8-5.8,5.8s-5.8-2.6-5.8-5.8C243.2,50.6,245.8,48.1,249,48.1"/>
			<path class="st2" d="M161.7,141.5c3.2,0,5.8,2.6,5.8,5.8s-2.6,5.8-5.8,5.8c-3.2,0-5.8-2.6-5.8-5.8S158.5,141.5,161.7,141.5"/>
		</g>
		<g>
			<path class="st3" d="M306.8,85.3c0-3.6,2.9-6.5,6.5-6.5c3.6,0,6.5,2.9,6.5,6.5v106c0,3.6-2.9,6.5-6.5,6.5c-3.6,0-6.5-2.9-6.5-6.5
				V85.3z"/>
			<path class="st3" d="M335,212.3c-5.2-6.4-11.5-10.9-17.6-10.4c-6.2,0.5-11.7,5.8-15.9,12.9c-5.2,9-8.1,20.6-7.4,29.8
				c0.6,8.1,4.2,15.3,9.4,20.2c5.1,4.8,11.9,7.5,19.1,7c7.2-0.5,13.5-4.2,17.8-9.8c4.4-5.6,6.9-13.2,6.3-21.4
				C346.1,231.5,341.5,220.4,335,212.3 M316.6,191.3c10.1-0.8,19.5,5.4,26.7,14.4c7.8,9.7,13.2,23,14.1,34.2
				c0.8,10.9-2.5,21.1-8.6,28.7c-6.1,7.8-15.1,13-25.4,13.8c-10.3,0.8-19.9-3-27.1-9.8c-7.1-6.7-12-16.3-12.8-27.1
				c-0.8-11.2,2.5-25.1,8.8-35.9C298.2,199.6,306.5,192.1,316.6,191.3z"/>
			<g>
				<path class="st3" d="M319.3,144.2c3.7-1.8,8.1-0.2,9.9,3.5c1.8,3.7,0.2,8.1-3.5,9.9l-17.2,8.3c-3.7,1.8-8.1,0.2-9.9-3.5
					c-1.8-3.7-0.2-8.1,3.5-9.9L319.3,144.2z"/>
				<path class="st3" d="M318.6,157.1c3.2-1.5,7.1-0.2,8.6,3c1.5,3.2,0.2,7.1-3,8.6l-15,7.2c-3.2,1.5-7.1,0.2-8.6-3
					c-1.5-3.2-0.2-7.1,3-8.6L318.6,157.1z"/>
				<path class="st3" d="M318.6,170.1c3.2-1.5,7.1-0.2,8.6,3c1.5,3.2,0.2,7.1-3,8.6l-15,7.2c-3.2,1.5-7.1,0.2-8.6-3
					c-1.5-3.2-0.2-7.1,3-8.6L318.6,170.1z"/>
				<path class="st3" d="M318.6,181.8c3.2-1.5,7.1-0.2,8.6,3c1.5,3.2,0.2,7.1-3,8.6l-15,7.2c-3.2,1.5-7.1,0.2-8.6-3
					c-1.5-3.2-0.2-7.1,3-8.6L318.6,181.8z"/>
			</g>
			<g>
				<path class="st3" d="M294.1,33c0.4-3.6,3.7-6.1,7.2-5.7c3.6,0.4,6.1,3.7,5.7,7.2l-6.4,51.5c-0.4,3.6-3.7,6.1-7.2,5.7
					c-3.6-0.4-6.1-3.7-5.7-7.2L294.1,33z"/>
				<path class="st3" d="M305.6,33c0.4-3.6,3.7-6.1,7.2-5.7c3.6,0.4,6.1,3.7,5.7,7.2l-6.4,51.5c-0.4,3.6-3.7,6.1-7.2,5.7
					c-3.6-0.4-6.1-3.7-5.7-7.2L305.6,33z"/>
				<path class="st3" d="M317.2,33c0.4-3.6,3.7-6.1,7.2-5.7c3.6,0.4,6.1,3.7,5.7,7.2l-6.4,51.5c-0.4,3.6-3.7,6.1-7.2,5.7
					c-3.6-0.4-6.1-3.7-5.7-7.2L317.2,33z"/>
				<path class="st3" d="M328.7,33c0.4-3.6,3.7-6.1,7.2-5.7c3.6,0.4,6.1,3.7,5.7,7.2l-6.4,51.5c-0.4,3.6-3.7,6.1-7.2,5.7
					c-3.6-0.4-6.1-3.7-5.7-7.2L328.7,33z"/>
			</g>
		</g>
	</g>
</g>
</svg>
