<svg aria-hidden="true" focusable="false" role="img" xmlns="http://www.w3.org/2000/svg" viewBox="0 0 512 512">
<style type="text/css">
	.st0{fill:#D51E2B;}
	.st1{fill:#BA1A26;}
	.st2{fill:#F7514A;}
	.st3{fill:#22272E;}
	.st4{fill:#617085;}
	.st5{fill:#515D6E;stroke:#515D6E;stroke-miterlimit:10;}
	.st6{fill:#515D6E;}
	.st7{fill:#EBE6E2;}
	.st8{fill:#D8826C;}
	.st9{fill:#F5AE94;}
	.st10{fill:#FFFFFF;}
	.st11{fill:#F0A98F;}
	.st12{fill:#DD876C;}
	.st13{fill:#0D0D0C;}
	.st14{fill:#5C8696;}
	.st15{fill:#712311;}
	.st16{fill:#D5503B;}
	.st17{fill:#242422;}
	.st18{opacity:0.4;fill:#EAECED;}
	.st19{fill:#5C311E;}
	.st20{fill:#F5F0EB;}
	.st21{fill:#8C4C09;}
	.st22{fill:#C28C4B;}
</style>
<g>
	<g>
		<g>
			<path class="st0" d="M319.1,390.6c-7.9,5.1-16.4,2.8-24.3-0.4c-12.2-4.9-22.9-11.8-27.3,3.9c-0.2,0.7-0.4,1.4-0.7,2
				c-9.3,23.6-56.2,17.9-58.7-8.3c0-0.3-0.1-0.6-0.1-1c-1.8-15.9-9.5-20.7-18.1-17.1c-5.4,2.3-11.1,7.9-15.9,16.1
				c-3.7,6.4-10.9,6.8-19.2,4.2c-19.7-6.3-45.5-29.7-45.5-29.7c37.8,3.7,84.6-79.2,109-158.3c24.4-79.1,62.9-65.9,62.9-65.9
				c3.2-5.5,45.3,25.6,45.3,25.6c0.5,13.1,4.4,32.3,8.8,54.3C347.8,277.9,364.1,361.3,319.1,390.6z"/>
			<path class="st1" d="M335.3,216.1c-60-78.5-76,50.3-124.5,86.1c-39.4,29.1-52.1,69.2-56,88c-19.7-6.3-45.5-29.7-45.5-29.7
				c37.8,3.7,84.6-79.2,109-158.3c24.4-79.1,62.9-65.9,62.9-65.9c3.2-5.5,45.3,25.6,45.3,25.6C327,174.9,330.9,194.1,335.3,216.1z"
				/>
			<path class="st1" d="M264.7,182.8c0,0-2.5,73.8-13.4,98.2c-9.1,20.3-37.3,66.1-43.3,105.8c-1.8-15.9-9.5-20.7-18.1-17.1
				c2.7-12.9,9.6-32.7,26.5-55.3C244.7,276.8,263.2,187,264.7,182.8z"/>
			<path class="st1" d="M287.2,145.4c0,0,18,177.2,7.6,244.8c-12.2-4.9-22.9-11.8-27.3,3.9c-0.2,0.7-0.4,1.4-0.7,2
				c-2.2-22.5-4.8-67.6,6.3-100.8C288.3,249.3,287.2,145.4,287.2,145.4z"/>
		</g>
		<path class="st2" d="M147.4,402.2c0,0-20.7-29.4,2.4-44.3c23.1-14.9,88.3-160,105.4-201.8l6.2-16.4c0,0-13.7-13.3-43.5,51.5
			c-29.9,64.8-78.8,137-110.8,161.1C75.1,376.3,147.4,402.2,147.4,402.2z"/>
	</g>
	<g>
		<g>
			<g>
				<g>
					<g>
						<path class="st3" d="M325.3,503.3l-33.9-3.8c1.6-2.6,2.4-8,2.8-13.8c0.6-7.9,0.4-15.7,0.4-15.7s22.4-5.5,22.4,0
							c0,3.7,1.3,9.8,2.8,15.7C322.3,494.9,325.3,503.3,325.3,503.3z"/>
						<path class="st3" d="M326,505.7c0,0.2,0,0.6,0,0.8c-0.1,1.9-0.6,3.7-1.4,5.5H289c-0.8-1.8-1.3-3.7-1.4-5.5c0-0.2,0-0.5,0-0.7
							c0-8.5,8.6-15.4,19.2-15.4S326,497.2,326,505.7z"/>
					</g>
					<path class="st4" d="M294.3,486.4c0.6-9.1,0.4-16.4,0.4-16.4s22.4-5.5,22.4,0c0,3.7,1.3,10,2.8,16.4H294.3z"/>
				</g>
				<path class="st5" d="M325.9,506.1c-0.1,1.8-0.6,3.7-1.4,5.5H289c-0.8-1.8-1.3-3.7-1.4-5.5H325.9z"/>
			</g>
			<path class="st6" d="M313.2,493c-2.6-3.7-8.9-2.4-11.9,0.1c-0.4,0.4,0,1,0.5,0.9c1.8-0.3,3.3-1.3,5.3-1.4
				c2.1-0.1,3.6,1.2,5.6,1.3C313.1,493.9,313.5,493.3,313.2,493z"/>
			<path class="st6" d="M312.1,496.8c-2.9-2-8.7-2.8-11.3,0.2c-0.4,0.4,0,1.1,0.6,1c1.7-0.5,3.7-0.7,5.5-0.7c1.8,0,3.3,1.3,5.1,0.9
				C312.6,498,312.6,497.1,312.1,496.8z"/>
		</g>
		<g>
			<g>
				<g>
					<path class="st3" d="M268,505.3c-0.2,2-0.5,3.7-1,4.9c0,0-54,2.3-57.8,0.6c-0.6-0.3-0.4-0.8,0.3-1.6c0.2-0.6,0.4-1.3,0.7-2.1
						c1.9-4.6,7.1-11.8,21.6-10.9c2.6-1.3,4.7-2.4,5.9-3c1.8-1,3.2-3.5,4.2-6.6c2.2-6.7,2.5-16.2,2.2-18.1l22.9,0.3
						c0,0,0.8,8.4,1.2,17.9C268.5,493.3,268.5,500.3,268,505.3z"/>
					<path class="st4" d="M241.9,487.4c2.2-7.3,2.5-16.5,2.2-18.5l22.9,0.5c0,0,0.8,8,1.2,18H241.9z"/>
				</g>
				<path class="st5" d="M268,505.3c-0.2,2-0.5,3.7-1,4.9c0,0-54,2.3-57.8,0.6c-0.6-0.3-0.4-0.8,0.3-1.6c0.2-0.6,0.4-1.3,0.7-2.1
					C219.6,507.2,253.5,507.3,268,505.3z"/>
			</g>
			<path class="st6" d="M237.5,497.6c-0.9-2.6-5-3.6-7.4-2c-0.2,0.2-0.3,0.5,0,0.6c1,0.6,2.2,0.3,3.3,0.5c1.2,0.2,1.7,1.2,2.5,1.8
				C236.6,498.9,237.8,498.4,237.5,497.6z"/>
			<path class="st6" d="M245.4,494.3c-0.7-1.7-2.8-3.1-4.9-3.3c-1.5-0.1-4.6,0.4-4.1,2.2c0,0.2,0.2,0.2,0.4,0.3
				c0.9,0.1,1.7-0.5,2.7-0.5c1.1,0,2.2,0.7,3,1.3c0.7,0.6,1,1.4,2.1,1.5C245.3,495.9,245.6,494.7,245.4,494.3z"/>
		</g>
		<path class="st7" d="M230.1,136.6c0,0,51.1-9.6,99.7-1.3c0,0-10.9,92.6-14.7,112.4c0,0-38.3,9.6-71.5-0.6
			C243.6,247.2,229.5,154.5,230.1,136.6z"/>
		<path class="st8" d="M293.8,130.8c0,8.5-6.6,15.5-15.1,15.5l0,0c-8.5,0-15.1-6.9-15.1-15.5v-19.6c0-8.5,6.6-15.5,15.1-15.5l0,0
			c8.5,0,15.1,6.9,15.1,15.5V130.8z"/>
		<path class="st9" d="M226.2,308.7c-2.7-4.6-2.5-9.4-3.6-14.5c-0.4-1.7-1.1-3.3-2.4-4.7c-0.6-0.6-1.5-1-1.8-1.7l5.4-16.8
			c1.4-5.4-0.9-10.8-7.2-11.3c-3.4-0.3-6.5,0.8-8.8,2.8c-0.9,14.3-0.8,24.6-0.8,24.8c-0.4,1.9-1.6,3.8-2.4,5.6
			c-1.8,4.1-3.4,8.3-5,12.5c-1.6,4.4-4.1,10.7-1,14.9c0.6,0.7,2.2,0.4,2.1-0.5c-0.8-4.9-0.2-9.1,1.4-13.9c0.3-0.9,0.6-1.8,0.9-2.8
			c-1.7,7.1-1.8,14.6,2.7,20.3c0.8,1,3.1,0.6,2.9-0.8c0-0.3-0.1-0.6-0.1-0.9c0.6,1.1,1.3,2.2,2.1,3.2c1.4,1.7,4.7,0.5,4-1.6
			c-0.8-2.5-1.7-4.9-2.5-7.3c1,1.1,2.2,6.1,3.6,6.8c1.4,0.8,2.9-0.4,3-1.6c0.2-3.8-4.3-18.8-1.2-19.4c3.1-0.6-1,8.3,6.3,11.7
			C227.3,315.5,229.2,313.7,226.2,308.7z"/>
		<g>
			<path class="st10" d="M281,158.3c0,1.2-1,2.2-2.2,2.2c-1.2,0-2.2-1-2.2-2.2c0-1.2,1-2.2,2.2-2.2C280,156.1,281,157.1,281,158.3z"
				/>
			<path class="st10" d="M281,181.3c0,1.2-1,2.2-2.2,2.2c-1.2,0-2.2-1-2.2-2.2c0-1.2,1-2.2,2.2-2.2C280,179.1,281,180,281,181.3z"/>
			<path class="st10" d="M280.9,227.1c0,1.2-1,2.2-2.2,2.2c-1.2,0-2.2-1-2.2-2.2c0-1.2,1-2.2,2.2-2.2
				C279.9,224.9,280.9,225.8,280.9,227.1z"/>
			<path class="st10" d="M281,204.1c0,1.2-1,2.2-2.2,2.2c-1.2,0-2.2-1-2.2-2.2c0-1.2,1-2.2,2.2-2.2C280,201.9,281,202.9,281,204.1z"
				/>
		</g>
		<path class="st11" d="M410.2,156.4c-0.3-0.2-0.8-0.3-1.1,0.1c-2.8,4.1-3.2,12-7.8,14.7c1.1-3.8,2.8-6.7,2.3-11
			c-0.3-2.9-1.7-5.8-4.7-6.6c-0.4-0.1-1,0.4-0.9,0.8c1.1,4.7,1.2,13.8-2.7,17.4c-1.6,1.5-0.5-2.5-0.4-3.1c0.4-1.4,0.7-2.8,0.8-4.2
			c0.2-2.6-1.5-4.2-3.7-5.2c-0.3-0.1-0.8,0-1,0.3c-0.8-0.7-2.2-1.2-3.3-1.3c-4.2-0.4-7.1,3.1-7.9,6.9c-0.6,2.8-0.1,5.8,0.1,8.6
			c0.4,4.6-0.8,8-3.1,12c-0.1,0.2-0.1,0.4,0,0.6c-2.6,6,8,11.3,11.4,5.1c0.1-0.1,0.1-0.2,0.1-0.4c3.9-2.3,6.9-5.5,9.9-9.2
			c2.3-2.9,4.8-5.4,7.4-8.1C409.3,169.9,417.4,160.8,410.2,156.4z M391,161.9c0,0.6,0,1.2,0,1.8c0.2,1.8-0.1,3.4-1.1,5
			c-0.4,0.3-0.7,0.7-1.1,1c-1.9,1.4-3.3,0.7-4-2.2c0.4-1.9,1-4.6,3.6-4.5c1,0,1.3-0.2,2.1-0.7C390.7,162.2,390.8,162.1,391,161.9z"
			/>
		<g>
			<g>
				<path class="st9" d="M314,87.6c0.1,12.2-12.9,22-21.5,26.6c-8.6,4.6-16.1,3.1-16.1,3.1c-34.2-7.8-31.8-24-33.7-37.5
					c-0.9-6.6-1.8-19,1.1-34.3c0.4-2.1,1-4,1.9-5.7c5.3-11.1,17.8-15.3,17.8-15.3c7.5-2.6,16-3.2,23.8-1.8
					c11.2,2.1,20,7.9,22.9,19.3c0.9,3.7,1.4,7.5,1.9,11.3c1,7.8,1.5,15.6,1.8,23.5C313.9,80.4,314,84,314,87.6z"/>
			</g>
			<path class="st12" d="M278,53.6c0,0-2.6-2.3-2.5,6.6c0.1,8.9,1.2,18.2,1.2,18.2s-6.1-3.1-3.8,1.7c1.2,2.6,3.8,3.8,6.5,4.3
				c2.4,0.5,4-0.4,5.4-2c0.7-0.7,4.1-4.7,2.8-5.8c-0.6-0.5-3.7,1-4.5,1.3C283.2,78,282.4,51.3,278,53.6z"/>
			<path class="st13" d="M288.3,47.3c0,0,15.5-3.1,20.4,8.3c0,0-17.3-5.2-20.6-2.6L288.3,47.3z"/>
			<path class="st13" d="M269.7,48.6c0,0-15.3-4.1-20.8,7c0,0,17.6-4.1,20.7-1.3L269.7,48.6z"/>
			<g>
				<path class="st10" d="M252.5,66.7c0.3,4.5,4.5,7.8,9.5,7.5c4.9-0.3,8.7-4.2,8.4-8.7c-0.3-4.5-4.5-7.8-9.5-7.5
					C255.9,58.4,252.2,62.3,252.5,66.7z"/>
				<g>
					<path class="st14" d="M267.4,65.5c0.3,3.9-2,7.3-5.1,7.5c-3.1,0.2-5.8-2.8-6-6.8c-0.3-3.9,2-7.3,5.1-7.5
						C264.4,58.5,267.1,61.5,267.4,65.5z"/>
					<path class="st13" d="M265.8,65.6c0.2,2.8-1.4,5.2-3.6,5.3c-2.2,0.1-4.1-2-4.3-4.8c-0.2-2.8,1.4-5.2,3.6-5.3
						C263.7,60.6,265.6,62.8,265.8,65.6z"/>
					<path class="st10" d="M265.7,60.8c0.1,0.8-0.8,1.4-2,1.5c-1.1,0.1-2.1-0.5-2.1-1.2c-0.1-0.8,0.8-1.4,2-1.5
						C264.7,59.4,265.6,60,265.7,60.8z"/>
				</g>
			</g>
			<g>
				<path class="st10" d="M288.2,65.7c0.3,4.5,4.5,7.9,9.5,7.6c4.9-0.3,8.7-4.3,8.4-8.8c-0.3-4.5-4.5-7.9-9.5-7.6
					C291.6,57.3,287.9,61.2,288.2,65.7z"/>
				<g>
					<path class="st14" d="M301.8,64.5c0.3,3.9-2,7.3-5.1,7.5c-3.1,0.2-5.8-2.8-6-6.8c-0.3-3.9,2-7.3,5.1-7.5
						C298.8,57.6,301.5,60.6,301.8,64.5z"/>
					<path class="st13" d="M300.2,64.6c0.2,2.8-1.4,5.2-3.6,5.3c-2.2,0.1-4.1-2-4.3-4.8c-0.2-2.8,1.4-5.2,3.6-5.3
						C298.1,59.7,300,61.8,300.2,64.6z"/>
					<path class="st10" d="M300.1,59.8c0.1,0.8-0.8,1.4-1.9,1.5c-1.1,0.1-2.1-0.5-2.1-1.2c-0.1-0.8,0.8-1.4,1.9-1.5
						C299.1,58.5,300.1,59.1,300.1,59.8z"/>
				</g>
			</g>
			<g>
				<path class="st15" d="M298.6,87c0,0-1.3,4.1-3.9,8.6c-1.3,2.3-2.8,4.7-4.7,6.7c-4.7,5.1-11.1,7.8-18.8,0.5
					c-2.6-2.4-5.3-6-8.2-10.9c-1.1-1.9-2.2-4-3.4-6.3C259.7,85.7,293.3,91.6,298.6,87z"/>
				<path class="st10" d="M298.6,87c0,0-1.3,4.1-3.9,8.6c-10.4,3.7-23.9-0.5-31.7-3.7c-1.1-1.9-2.2-4-3.4-6.3
					C259.7,85.7,293.3,91.6,298.6,87z"/>
				<path class="st16" d="M290.1,102.3c-4.7,5.1-11.1,7.8-18.8,0.5C275.1,100.8,282,98.2,290.1,102.3z"/>
			</g>
			<path class="st17" d="M325.2,17c-2,2.8-5.4,5.5-8.9,6.3c2.9-3.1,5.7-7.2,5.2-11.6c0-0.2-0.3-0.3-0.4-0.3
				c-0.6,0.3-1.1,0.8-1.6,1.2c-2.7,2.4-7,2.3-10.2,1.2c-5.6-2-10.2-5.9-15.2-9c-5.5-3.3-11.6-5.3-18.1-5c-3.5,0.1-6.9,0.9-10.2,2.1
				c-8,2.9-17.6,8.6-19.7,17.6c-0.3,1.2-0.4,2.5-0.4,3.8c0,0.8,0.7,3.2,0.3,3.8c-0.2,0.3,0.2,0.6,0.4,0.5c0.1,0,0.3-0.1,0.3-0.2
				c0.1-0.2,0.1-0.2,0.1-0.3c3.8-3.1,10.1,8.9,12.4,10.8c8.8,7.4,21.5,8.4,31.9,5.5c11.8-3.2,24.7-11.3,31.5-21.2
				c1.1-1.6,2.2-3.2,3-5C325.9,17,325.4,16.8,325.2,17z"/>
			<g>
				<g>
					<path class="st11" d="M312.6,62.2c0,0,7.5-16.9,13.6-3.6c4.9,10.6-3.3,21-9.9,20.3C309.7,78.1,312.6,62.2,312.6,62.2z"/>
					<path class="st8" d="M313,64.8c0,0,5.5-10.9,8.4-7c2.9,3.9,2.9,9.3,2.9,9.3s-2.1-5.7-6.1-1.9c0,0,5.4,8.8-3.6,7
						C314.6,72.2,310.7,69.7,313,64.8z"/>
				</g>
			</g>
			<path class="st17" d="M254.8,26.4c0,0,0.9,13.8-4.9,20.6c-5.7,6.7-6.3,20.4-6.3,20.4s-21.1-26.9,2.9-42.5
				C246.5,24.8,251.3,22.9,254.8,26.4z"/>
			<path class="st17" d="M301.1,31.9c0,0,9.7,13,11.8,31.6c0,0,13.7-20.4,0.6-37.7C313.6,25.8,299.2,19.7,301.1,31.9z"/>
			<g>
				<g>
					<path class="st11" d="M244.1,64.7c0,0-7.5-16.9-13.6-3.6c-4.9,10.6,3.3,21,9.9,20.3C246.9,80.7,244.1,64.7,244.1,64.7z"/>
					<path class="st8" d="M243.6,67.4c0,0-5.5-10.9-8.4-7c-2.9,3.9-2.9,9.3-2.9,9.3s2.1-5.7,6.1-1.9c0,0-5.4,8.8,3.6,7
						C242,74.7,245.9,72.3,243.6,67.4z"/>
				</g>
			</g>
			<g>
				<g>
					<path class="st18" d="M266.8,56.7c-3.1-0.5-6.3-0.6-9.1-0.5c-1.9,3.1-3.6,6.3-5,9.7c-1,2.4-1.9,5-2.5,7.7
						c2.9,2.7,6.7,3.5,10.4,3.5C262.1,70.2,263.1,62.5,266.8,56.7z"/>
					<path class="st18" d="M305.8,56c-3.2-0.2-6.3,0-9.2,0.4c-1.6,3.3-3,6.7-4,10.1c-0.8,2.5-1.5,5.2-1.7,7.9
						c3.1,2.4,7,2.8,10.7,2.5C302.4,69.8,302.7,62.1,305.8,56z"/>
				</g>
				<path class="st19" d="M313.4,70c3-8.9,2.2-12.8,2-13.2l-0.2-0.7l-0.7-0.3c-0.5-0.2-13.5-5.3-27.6,1.1c-1.5,0.7-3,1.5-4.3,2.4
					l0-0.3l-5.2,0.2l-0.1-0.2l-0.7-0.4c-1.5-0.8-3.1-1.6-4.7-2.2c-14.4-5.4-27.2,0.5-27.7,0.7l-0.7,0.3l-0.2,0.7
					c-0.1,0.4-0.7,4.3,2.9,13c1.3,3.2,3.8,5.4,7.3,6.8c4.3,1.6,8.6,1.2,8.8,1.2c10.2-1.1,11.9-6,13.1-9.3c0.1-0.2,0.1-0.4,0.2-0.5
					c0.8-2.2,1.3-4.2,1.5-5.8c1-0.4,2.5-0.6,4.6,0.1c0.3,1.7,0.8,3.8,2,6.3c0.1,0.2,0.2,0.3,0.2,0.5c1.4,3.2,3.5,7.9,13.7,8.4
					c0.2,0,4.6,0.1,8.7-1.8C310.1,75.6,312.3,73.2,313.4,70z M262.3,76.2c0,0-3.9,0.3-7.5-1c-2.7-1-4.6-2.7-5.6-5.1
					c-2.4-5.8-2.7-9.1-2.7-10.5c2.9-1.1,13.3-4.5,24.5-0.3c1.2,0.5,2.4,1,3.5,1.6c0,1.3-0.2,4-1.5,7.5c-0.1,0.2-0.1,0.4-0.2,0.6
					C271.8,71.9,270.6,75.2,262.3,76.2z M305.4,74.4c-3.5,1.6-7.3,1.5-7.4,1.5c-8.3-0.4-9.8-3.7-11-6.6c-0.1-0.2-0.2-0.4-0.2-0.5
					c-1.5-3.4-1.9-6.1-2-7.4c1.1-0.7,2.3-1.3,3.4-1.8c11-5,21.5-2.2,24.5-1.3c0.1,1.4-0.1,4.7-2.1,10.7
					C309.8,71.4,308,73.2,305.4,74.4z"/>
			</g>
		</g>
		<g>
			<path class="st20" d="M263.4,121.3l-12.1,12.8l10.2,26.8l17.2-14.7C278.7,146.2,265.3,132.2,263.4,121.3z"/>
			<path class="st20" d="M294,121.3l12.1,12.8l-10.2,26.8l-17.2-14.7C278.7,146.2,292.1,132.2,294,121.3z"/>
		</g>
		<path class="st7" d="M230.1,136.6c0,0-33.2,31.3-27.5,155.9l21.1-0.6l10.9-105.4C234.6,186.5,237.8,152.6,230.1,136.6z"/>
		<path class="st7" d="M321.5,182.6c0,0,3.8,47.3,24.9,65.8c0,0,35.8-23,46-56.9l-16-10.9l-23,24.3c0,0-10.2-57.5-23.6-69.6
			C329.8,135.4,320.2,176.9,321.5,182.6z"/>
		<g>
			<path class="st3" d="M321.5,481.9H292l-10.6-180.3c-1,0-2-0.2-3-0.3L270,482.8h-29.6c-0.4-70.3,3.7-233.8,3.1-235.7l63.2,0.6v0
				l8.4,0.1c0.5,2.8,1.1,6.4,1.6,10.4C322.7,310.9,321.7,460.9,321.5,481.9z"/>
			<path class="st21" d="M316.6,258l-9,0.1c-0.1-3.5-0.4-7-0.8-10.4l8.2,0.1C315.7,250.6,316.2,254,316.6,258z"/>
			<path class="st21" d="M299.4,247.7l-36.5-0.3c0.1,3.9,0.3,7.7,0.3,11.6l36.8-0.7C299.3,255,299.4,251.2,299.4,247.7z"/>
			<path class="st21" d="M254.1,247.2l-10.5-0.1v12.1l11.5-0.2C254.1,255.5,253.9,251.2,254.1,247.2z"/>
			<rect x="271" y="247.3" class="st22" width="18.3" height="11.9"/>
		</g>
	</g>
</g>
</svg>
